<svg xmlns="http://www.w3.org/2000/svg" viewBox="0 0 143.82 109.68"><defs><style>.cls-1{fill:#312783;}.cls-2,.cls-3{fill:#1d1d1b;}.cls-3{font-size:21.46px;font-family:TwCenMT-CondensedExtraBold, Tw Cen MT Condensed Extra Bold;font-weight:800;}</style></defs><title>ElecWindZasób 4</title><g id="Warstwa_2" data-name="Warstwa 2"><g id="Warstwa_1-2" data-name="Warstwa 1"><path class="cls-1" d="M38.61,104.58H5.09V71.06a33.3,33.3,0,0,1,18.39,5.5c.45.3.9.6,1.33.92a33.5,33.5,0,0,1,8.59,9.17q.52.81,1,1.65A33.3,33.3,0,0,1,38.61,104.58Z"/><path class="cls-2" d="M4.09,38.53H55.15a16,16,0,0,1,4.28.6l4-4.11a16,16,0,0,0-4.18-.57H0v75.23H75.24v-4.09H4.09Z"/><path class="cls-2" d="M69.58,47.65a15.9,15.9,0,0,1,1.57,6.88v47h4.09V50.45a15.9,15.9,0,0,0-1.8-7.34Z"/><path class="cls-1" d="M111,3.58A3.57,3.57,0,0,1,110,6L70.33,43.32,34.4,85.65a33.5,33.5,0,0,0-8.59-9.17L64,37.29,105,1a3.51,3.51,0,0,1,4.94.07A3.59,3.59,0,0,1,111,3.58Z"/><text class="cls-3" transform="translate(78.74 75.77)">ECO<tspan x="0" y="25.75">ENERGY</tspan></text><text/></g></g></svg>