<svg xmlns="http://www.w3.org/2000/svg" xmlns:xlink="http://www.w3.org/1999/xlink" viewBox="0 0 140.12 123.24"><defs><style>.cls-1{isolation:isolate;}.cls-2{fill:url(#Gradient_bez_nazwy_30);}.cls-3{fill:#f6f6f6;opacity:0.4;mix-blend-mode:overlay;}.cls-4{fill:#009fe3;}.cls-5{fill:#312783;}</style><linearGradient id="Gradient_bez_nazwy_30" x1="68.14" x2="68.27" y2="61.38" gradientUnits="userSpaceOnUse"><stop offset="0" stop-color="#c9daed"/><stop offset="1" stop-color="#0096ff"/></linearGradient></defs><title>ElecWindZasób 3</title><g class="cls-1"><g id="Warstwa_2" data-name="Warstwa 2"><g id="Warstwa_1-2" data-name="Warstwa 1"><path class="cls-2" d="M119.23,86.52a1.41,1.41,0,0,1-1.43.81l-1.72-.55-1.89-.6L80.93,67.43a8.35,8.35,0,0,1-.32,1.24,9.54,9.54,0,0,1-7.1,6.27v27.42H63.77V74.87a9.49,9.49,0,0,1-7-6.63l5.7-3.46,4.22-4.65L62,63.89,56.56,67l-1.42.78h0l-1.06.6L22.46,86.19l-3.61,1.15a1.32,1.32,0,0,1-1.32-.65,1,1,0,0,1-.11-.17,1.31,1.31,0,0,1,0-1.62l2.82-2.48L56.48,62V45.51A9.34,9.34,0,0,1,62.27,37c.32-.13.65-.24,1-.34a9.26,9.26,0,0,1,1.83-.36V48.9l2,6-1-5.85V36.2h0V4.43L66.89.8a1.21,1.21,0,0,1,0-.14A1.49,1.49,0,0,1,68.32,0c.72,0,1.34.34,1.43.8l.79,3.63V36.2h1a9.46,9.46,0,0,1,9.53,9.31V61.13l-2.82-1.41-.6-.3L71.17,58l3,1.1,1.52.58,1.18.43,1.41.79,2.82,1.59,1.56.89,33.77,19,2.82,2.49A1.3,1.3,0,0,1,119.23,86.52Z"/><path class="cls-3" d="M116.42,86.35a2.15,2.15,0,0,1-.34.43l-1.89-.6L80.93,67.43a8.35,8.35,0,0,1-.32,1.24l-2.5-1.41a9.49,9.49,0,0,1-7.42,7.51V102.2H63.77V74.87a9.49,9.49,0,0,1-7-6.63l5.7-3.46,4.22-4.65L62,63.89,56.56,67l-1.42.78h0l-1.06.6a1.9,1.9,0,0,1-.09-.29l5.71-3.47L63.92,60l-4.71,3.75L53.74,66.8l-1.41.8h0L19.65,86l-2.12.68a1,1,0,0,1-.11-.17,1.31,1.31,0,0,1,0-1.62l2.82-2.48L56.48,62V45.51A9.34,9.34,0,0,1,62.27,37V48.74l2,6-1-5.87V36.61a9.26,9.26,0,0,1,1.83-.36V48.9l2,6-1-5.85V36.2h0V4.43L66.89.8a1.21,1.21,0,0,1,0-.14l.79,3.61V36h1a9.44,9.44,0,0,1,9.53,9.3V61l-2.59-1.29-.82-.42-.7-.16-5.79-1.27L74,59.94l4.22,2.38,1.56.88,33.78,19,2.82,2.49A1.33,1.33,0,0,1,116.42,86.35Z"/><path class="cls-4" d="M15.75,109.23a16.94,16.94,0,0,0,.09,1.94h-.65a12,12,0,0,0-.57-2.7,2.34,2.34,0,0,0-1.19-1.3,6.38,6.38,0,0,0-2.61-.41H9.29v13.42a3.4,3.4,0,0,0,.23,1.44,1.25,1.25,0,0,0,.79.61,8.34,8.34,0,0,0,1.84.21v.47c-1,0-2.37-.07-4.16-.07s-3.29,0-4.19.07v-.47a8.34,8.34,0,0,0,1.84-.21,1.22,1.22,0,0,0,.79-.61,3.4,3.4,0,0,0,.23-1.44V106.76H5.13a6.38,6.38,0,0,0-2.61.41,2.37,2.37,0,0,0-1.19,1.3,12.62,12.62,0,0,0-.57,2.7H.11a16.94,16.94,0,0,0,.09-1.94,26.28,26.28,0,0,0-.2-3c1.57,0,4.23.07,8,.07s6.39,0,8-.07A26.28,26.28,0,0,0,15.75,109.23Z"/><path class="cls-4" d="M34.71,109.05a4.86,4.86,0,0,0-1.48.24,1.17,1.17,0,0,0-.65.66,4.25,4.25,0,0,0-.17,1.36v5.21a12.18,12.18,0,0,1-.27,2.77,5.37,5.37,0,0,1-.89,2,4.59,4.59,0,0,1-2,1.42,7.54,7.54,0,0,1-2.93.53,8.09,8.09,0,0,1-4.48-1,4.61,4.61,0,0,1-1.67-2.1,11.15,11.15,0,0,1-.42-3.52v-5.52a3.62,3.62,0,0,0-.17-1.29,1,1,0,0,0-.64-.55,7,7,0,0,0-1.49-.18v-.48c.79.05,2,.08,3.63.08s2.71,0,3.6-.08v.48a7,7,0,0,0-1.49.18,1,1,0,0,0-.64.55,3.62,3.62,0,0,0-.17,1.29V117a12.21,12.21,0,0,0,.28,2.89,3.15,3.15,0,0,0,1.21,1.84,4.37,4.37,0,0,0,2.7.7c1.89,0,3.22-.5,4-1.49a6.61,6.61,0,0,0,1.16-4.15v-5.47a2.24,2.24,0,0,0-.55-1.75,3.44,3.44,0,0,0-2-.51v-.48c.68.05,1.65.08,2.89.08s2,0,2.64-.08Z"/><path class="cls-4" d="M53.32,121.92a3.81,3.81,0,0,1-1.23,1,3.7,3.7,0,0,1-1.66.34c-1.58,0-2.56-.59-2.92-1.79l-.87-3a2.91,2.91,0,0,0-1.18-1.77,4.85,4.85,0,0,0-2.31-.44H41.54v4.12a3.46,3.46,0,0,0,.17,1.3.91.91,0,0,0,.63.54,6.29,6.29,0,0,0,1.49.19v.47c-.87,0-2.07-.07-3.6-.07s-2.83,0-3.62.07v-.47a6.19,6.19,0,0,0,1.48-.19.93.93,0,0,0,.64-.54,3.68,3.68,0,0,0,.17-1.3v-9.34a3.62,3.62,0,0,0-.17-1.29,1,1,0,0,0-.64-.55,6.9,6.9,0,0,0-1.48-.18v-.48c.79.05,1.94.08,3.45.08l2.89,0,1.11,0a9.74,9.74,0,0,1,4.86,1,2.93,2.93,0,0,1,1.68,2.57,3.28,3.28,0,0,1-1.32,2.5A7.91,7.91,0,0,1,45,116.1l1,.09a5.75,5.75,0,0,1,2.38.76,3.06,3.06,0,0,1,1.24,1.81l.63,2.15a3.48,3.48,0,0,0,.49,1.17.87.87,0,0,0,.7.34,2.44,2.44,0,0,0,1.56-.8ZM42.2,109.21a.93.93,0,0,0-.52.59,4.11,4.11,0,0,0-.14,1.27v4.74h1.89a5,5,0,0,0,3.42-.88,3.34,3.34,0,0,0,.92-2.51,3.08,3.08,0,0,0-1-2.54,5.38,5.38,0,0,0-3.38-.83A3.09,3.09,0,0,0,42.2,109.21Z"/><path class="cls-4" d="M67.63,116.6a3.07,3.07,0,0,1,1.28,2.45,2.91,2.91,0,0,1-.78,2,5.15,5.15,0,0,1-2.26,1.37,10.94,10.94,0,0,1-3.48.49l-1.22,0c-1.17,0-2.29,0-3.37,0-1.55,0-2.72,0-3.51.07v-.47a6.19,6.19,0,0,0,1.48-.19.93.93,0,0,0,.64-.54,3.68,3.68,0,0,0,.17-1.3v-9.34a3.62,3.62,0,0,0-.17-1.29,1,1,0,0,0-.64-.55,6.9,6.9,0,0,0-1.48-.18v-.48c.79.05,1.94.08,3.45.08l2.89,0,1.11,0a8.27,8.27,0,0,1,4.22.88,2.66,2.66,0,0,1,1.47,2.35,2.73,2.73,0,0,1-1,2,6.62,6.62,0,0,1-3.06,1.36v0A8.3,8.3,0,0,1,67.63,116.6Zm-7.75-7.39a.93.93,0,0,0-.52.59,4.11,4.11,0,0,0-.14,1.27v4.15h1.61a4.35,4.35,0,0,0,3-.82,3.06,3.06,0,0,0,.85-2.31,2.84,2.84,0,0,0-.88-2.29,4.26,4.26,0,0,0-2.8-.75A3.09,3.09,0,0,0,59.88,109.21Zm5,12.3a3.3,3.3,0,0,0,.09-5.05,6.2,6.2,0,0,0-3.63-.83H59.22v4.78a3.84,3.84,0,0,0,.14,1.25.9.9,0,0,0,.52.56,3.47,3.47,0,0,0,1.18.15A6.65,6.65,0,0,0,64.85,121.51Z"/><path class="cls-4" d="M85,109.1a6.76,6.76,0,0,1,3,2.53,7.13,7.13,0,0,1,1.08,4,7.27,7.27,0,0,1-1.12,4,7.51,7.51,0,0,1-3.11,2.69,10.32,10.32,0,0,1-4.5.95,11.27,11.27,0,0,1-4.58-.86,6.71,6.71,0,0,1-3-2.52,7.77,7.77,0,0,1,0-8,7.47,7.47,0,0,1,3.1-2.69,10.23,10.23,0,0,1,4.51-1A11.36,11.36,0,0,1,85,109.1Zm-7.73.48a5.81,5.81,0,0,0-2,2.52,9.16,9.16,0,0,0-.71,3.69,8.22,8.22,0,0,0,.8,3.7A6,6,0,0,0,77.46,122a5.6,5.6,0,0,0,3,.86,5.23,5.23,0,0,0,3.05-.91,5.78,5.78,0,0,0,2-2.52,9,9,0,0,0,.71-3.69,8.27,8.27,0,0,0-.79-3.71,6,6,0,0,0-2.15-2.46,5.61,5.61,0,0,0-3-.86A5.19,5.19,0,0,0,77.25,109.58Z"/><path class="cls-5" d="M108.09,109.23c-.35.79-.6,1.44-.77,1.94h-.65a12.42,12.42,0,0,0,.63-2.7,1.32,1.32,0,0,0-.62-1.3,5,5,0,0,0-2.42-.41h-1.79a6.64,6.64,0,0,0-1.54.13,1.64,1.64,0,0,0-.88.53,5.69,5.69,0,0,0-.74,1.3l-2.56,5.8h2.07a3.5,3.5,0,0,0,1.7-.39,3.76,3.76,0,0,0,1.13-.92,12.27,12.27,0,0,0,.88-1.33l.3-.48h.65c-.35.66-.7,1.4-1.07,2.22l-.5,1.13c-.35.8-.79,1.92-1.31,3.35H100c0-.11.14-.49.34-1.14a1.55,1.55,0,0,0-.13-1.48,2,2,0,0,0-1.55-.49H96.54l-2.4,5.42a2.81,2.81,0,0,0-.34,1.3c0,.27.21.45.55.54a8.13,8.13,0,0,0,1.76.19l-.21.47c-1,0-2.34-.07-4.13-.07-1.63,0-2.85,0-3.66.07l.21-.47a7.48,7.48,0,0,0,1.57-.19,1.72,1.72,0,0,0,.88-.54,5.69,5.69,0,0,0,.74-1.3l5.17-11.69a3.91,3.91,0,0,0,.4-1.3.53.53,0,0,0-.4-.54,5.27,5.27,0,0,0-1.4-.19l.21-.47c1.83,0,4.56.07,8.18.07,2.78,0,4.76,0,6-.07C109,107.33,108.49,108.34,108.09,109.23Z"/><path class="cls-5" d="M117.58,109.05a8.28,8.28,0,0,0-1.57.18,1.81,1.81,0,0,0-.88.55,5.24,5.24,0,0,0-.74,1.29l-4.13,9.34a4.18,4.18,0,0,0-.4,1.3.51.51,0,0,0,.4.53,5.26,5.26,0,0,0,1.43.13h1.79a6.28,6.28,0,0,0,3.47-1,8.46,8.46,0,0,0,2.74-3.2h.65c-.27.48-.59,1.13-.94,1.93a25.67,25.67,0,0,0-1,2.78c-1.21,0-3.27-.07-6.18-.07-3.49,0-6.15,0-8,.07l.21-.47a7.39,7.39,0,0,0,1.57-.19,1.72,1.72,0,0,0,.88-.54,5.34,5.34,0,0,0,.74-1.3l4.13-9.34a4.14,4.14,0,0,0,.4-1.29.54.54,0,0,0-.4-.55,5.85,5.85,0,0,0-1.4-.18l.21-.48c.77.05,2,.08,3.59.08s2.72,0,3.63-.08Z"/><path class="cls-5" d="M140.12,108.57l-.22.5a2.9,2.9,0,0,0-1.08.45,11.42,11.42,0,0,0-1.44,1.15L130,117.3l-1.38,3.11a3.91,3.91,0,0,0-.4,1.3.53.53,0,0,0,.4.54,5.27,5.27,0,0,0,1.4.19l-.21.47c-.84,0-2-.07-3.56-.07s-2.85,0-3.66.07l.21-.47a7.39,7.39,0,0,0,1.57-.19,1.72,1.72,0,0,0,.88-.54,5.69,5.69,0,0,0,.74-1.3l1.08-2.45L125,110.39a2.46,2.46,0,0,0-.45-1,1.13,1.13,0,0,0-.61-.32l.22-.5c1.18.07,2,.1,2.45.1,1.3,0,2.64,0,4-.1l-.22.5a7,7,0,0,0-1.53.13,1,1,0,0,0-.77.58,1.79,1.79,0,0,0,0,1.11l1.65,5.94,5.78-5.14a5.13,5.13,0,0,0,1.29-1.51c.3-.66-.19-1-1.46-1.11l.22-.5a23.24,23.24,0,0,0,2.36.1A15.81,15.81,0,0,0,140.12,108.57Z"/></g></g></g></svg>