<svg xmlns="http://www.w3.org/2000/svg" viewBox="0 0 95.33 70.07"><defs><style>.cls-1{fill:#312783;}.cls-2{fill:#009fe3;}</style></defs><title>ElecWindZasób 6</title><g id="Warstwa_2" data-name="Warstwa 2"><g id="Warstwa_1-2" data-name="Warstwa 1"><path class="cls-1" d="M40.28,43.65A15.42,15.42,0,0,1,31.71,46a14.68,14.68,0,0,1-11.8-5.19q-4.41-5.18-4.4-14.95T19.83,11Q24.14,5.7,31.71,5.7T43.55,11q4.32,5.25,4.33,14.92a29.32,29.32,0,0,1-1.36,9.38L47,37.17l5.35-21.49h1c-.08-.25-.14-.53-.22-.78a22.77,22.77,0,0,0-4.65-8.17,20,20,0,0,0-7.22-5A24.9,24.9,0,0,0,31.68,0a25.51,25.51,0,0,0-9.49,1.73,19.22,19.22,0,0,0-7.28,5A23.13,23.13,0,0,0,10.24,15a34.33,34.33,0,0,0-1.6,10.88,34.26,34.26,0,0,0,1.62,11,22.44,22.44,0,0,0,4.61,8.1,19.58,19.58,0,0,0,7.29,5,25.06,25.06,0,0,0,9.52,1.74A25.29,25.29,0,0,0,41.23,50c.22-.09.43-.21.65-.31Z"/><path class="cls-2" d="M86.69,17.68,78,51H63L56,23.35,49.18,51H44.3L35.48,17.68H40l7,27.71,6.89-27.71h14.5l7,28,7-28Z"/><path d="M9.15,59.75a5.27,5.27,0,0,1,1.07,1.87,8.15,8.15,0,0,1,.37,2.52,7.85,7.85,0,0,1-.38,2.52,5.18,5.18,0,0,1-1.06,1.86,4.5,4.5,0,0,1-1.67,1.16,5.78,5.78,0,0,1-2.19.39,5.73,5.73,0,0,1-2.19-.4,4.54,4.54,0,0,1-1.67-1.15A5.29,5.29,0,0,1,.37,66.66,7.86,7.86,0,0,1,0,64.14a7.77,7.77,0,0,1,.37-2.5,5.15,5.15,0,0,1,1.07-1.89A4.39,4.39,0,0,1,3.11,58.6a5.75,5.75,0,0,1,2.18-.4,5.68,5.68,0,0,1,2.2.4A4.63,4.63,0,0,1,9.15,59.75ZM9,64.14a5.29,5.29,0,0,0-1-3.43,3.35,3.35,0,0,0-2.72-1.2,3.35,3.35,0,0,0-2.73,1.2,5.29,5.29,0,0,0-1,3.43,5.11,5.11,0,0,0,1,3.43A3.34,3.34,0,0,0,5.3,68.76,3.33,3.33,0,0,0,8,67.57,5.11,5.11,0,0,0,9,64.14Z"/><path d="M19.2,69.3a9.23,9.23,0,0,1-1.37.54,5.28,5.28,0,0,1-3.07-.08,3.45,3.45,0,0,1-1.32-.83,3.51,3.51,0,0,1-.87-1.39,5.86,5.86,0,0,1-.31-2,4.54,4.54,0,0,1,1.16-3.29,4,4,0,0,1,3-1.19,5,5,0,0,1,1.44.2,7.65,7.65,0,0,1,1.3.51v1.6h-.08a5.4,5.4,0,0,0-1.36-.79,3.56,3.56,0,0,0-1.36-.28,2.4,2.4,0,0,0-1.93.83,3.56,3.56,0,0,0-.71,2.41A3.63,3.63,0,0,0,14.45,68a2.4,2.4,0,0,0,1.95.83,3.94,3.94,0,0,0,.89-.11,4.27,4.27,0,0,0,.81-.3c.21-.11.4-.22.59-.34a4,4,0,0,0,.43-.32h.08Z"/><path d="M28.2,65.71H21.9a3.57,3.57,0,0,0,.24,1.37,2.57,2.57,0,0,0,1.6,1.52,3.78,3.78,0,0,0,1.2.18,4.84,4.84,0,0,0,1.76-.35A4.39,4.39,0,0,0,28,67.75H28v1.57a12.93,12.93,0,0,1-1.48.51A6,6,0,0,1,25,70a4.61,4.61,0,0,1-3.33-1.16,4.36,4.36,0,0,1-1.19-3.27,4.71,4.71,0,0,1,1.14-3.33,3.94,3.94,0,0,1,3-1.23,3.45,3.45,0,0,1,2.67,1,4.08,4.08,0,0,1,.93,2.87Zm-1.4-1.1a2.52,2.52,0,0,0-.57-1.76,2.19,2.19,0,0,0-1.71-.62,2.48,2.48,0,0,0-1.84.69,2.6,2.6,0,0,0-.78,1.69Z"/><path d="M37,69.84H35.6v-.92l-.52.37a3.82,3.82,0,0,1-.63.37,4,4,0,0,1-.83.3,5,5,0,0,1-1.09.11,2.72,2.72,0,0,1-2-.76,2.56,2.56,0,0,1-.8-2,2.71,2.71,0,0,1,.41-1.58,2.83,2.83,0,0,1,1.19-.94,6.38,6.38,0,0,1,1.88-.47c.73-.08,1.51-.14,2.35-.18V64a1.8,1.8,0,0,0-.17-.81,1.27,1.27,0,0,0-.5-.5,2,2,0,0,0-.73-.24,6.58,6.58,0,0,0-.9-.06A6,6,0,0,0,32,62.5a9.36,9.36,0,0,0-1.44.43h-.08V61.47c.28-.08.69-.16,1.22-.25a8.41,8.41,0,0,1,1.57-.14,7.21,7.21,0,0,1,1.57.15,3,3,0,0,1,1.16.51,2.21,2.21,0,0,1,.74.91A3.31,3.31,0,0,1,37,64ZM35.6,67.73V65.35l-1.55.11a8.24,8.24,0,0,0-1.41.23,2.33,2.33,0,0,0-1,.54,1.39,1.39,0,0,0-.38,1,1.37,1.37,0,0,0,.44,1.1,2.08,2.08,0,0,0,1.36.37,3.18,3.18,0,0,0,1.39-.29A6.55,6.55,0,0,0,35.6,67.73Z"/><path d="M47,69.84H45.51V65a7.78,7.78,0,0,0-.07-1.11,2,2,0,0,0-.25-.81,1.23,1.23,0,0,0-.55-.48,2.44,2.44,0,0,0-.93-.15,2.91,2.91,0,0,0-1.24.29,6,6,0,0,0-1.23.74v6.39H39.8V61.28h1.44v.95a5.94,5.94,0,0,1,1.39-.87,3.67,3.67,0,0,1,1.48-.31,2.65,2.65,0,0,1,2.11.83A3.54,3.54,0,0,1,47,64.29Z"/><path d="M63.11,58.44l-3,11.4h-1.7L56,60.37,53.7,69.84H52l-3-11.4h1.56L53,67.91l2.36-9.47h1.54L59.24,68l2.38-9.57Z"/><path d="M66.77,59.85H65.15V58.36h1.62Zm-.09,10H65.24V61.28h1.44Z"/><path d="M76.68,69.84H75.24V65a7.78,7.78,0,0,0-.07-1.11,2,2,0,0,0-.25-.81,1.23,1.23,0,0,0-.55-.48,2.46,2.46,0,0,0-.94-.15,2.9,2.9,0,0,0-1.23.29,6,6,0,0,0-1.23.74v6.39H69.53V61.28H71v.95a5.94,5.94,0,0,1,1.39-.87,3.64,3.64,0,0,1,1.48-.31,2.66,2.66,0,0,1,2.11.83,3.54,3.54,0,0,1,.73,2.41Z"/><path d="M86.39,69.84H85v-.9a5,5,0,0,1-1.3.83,3.53,3.53,0,0,1-1.46.3,2.89,2.89,0,0,1-2.43-1.18,5.24,5.24,0,0,1-.9-3.26,5.52,5.52,0,0,1,.31-1.94A4.57,4.57,0,0,1,80,62.24a3.62,3.62,0,0,1,1.21-.89,3.57,3.57,0,0,1,1.44-.3,4.32,4.32,0,0,1,1.19.14,5.36,5.36,0,0,1,1.1.44V57.92h1.44ZM85,67.73V62.82a6.18,6.18,0,0,0-1-.36,5.24,5.24,0,0,0-1-.1,2.26,2.26,0,0,0-1.88.85,3.71,3.71,0,0,0-.67,2.38,4.22,4.22,0,0,0,.52,2.32,1.83,1.83,0,0,0,1.67.79,3.16,3.16,0,0,0,1.24-.27A5.41,5.41,0,0,0,85,67.73Z"/><path d="M95.33,67.37a2.32,2.32,0,0,1-1,1.92,4.24,4.24,0,0,1-2.65.75A6.38,6.38,0,0,1,90,69.82a7.63,7.63,0,0,1-1.33-.5V67.71h.08a5.83,5.83,0,0,0,1.52.81,4.72,4.72,0,0,0,1.6.31,3,3,0,0,0,1.48-.31,1,1,0,0,0,.54-1,1,1,0,0,0-.29-.76,2.82,2.82,0,0,0-1.12-.45l-.8-.16c-.33-.06-.63-.12-.9-.19a3.07,3.07,0,0,1-1.6-.88,2.21,2.21,0,0,1-.47-1.42,2.43,2.43,0,0,1,.22-1,2.48,2.48,0,0,1,.66-.83,3.21,3.21,0,0,1,1.09-.57,5,5,0,0,1,1.49-.21,6.44,6.44,0,0,1,1.55.19,5.61,5.61,0,0,1,1.3.45v1.54h-.08a5.1,5.1,0,0,0-1.34-.69A4.74,4.74,0,0,0,92,62.29a2.7,2.7,0,0,0-1.33.31,1.05,1.05,0,0,0-.22,1.69,2.55,2.55,0,0,0,1,.44l.89.18.83.17a3.09,3.09,0,0,1,1.54.79A2.06,2.06,0,0,1,95.33,67.37Z"/></g></g></svg>