<svg xmlns="http://www.w3.org/2000/svg" viewBox="0 0 145.99 52.05"><defs><style>.cls-1{fill:#f39200;}.cls-2{fill:#e94e1b;}</style></defs><title>ElecWindZasób 5</title><g id="Warstwa_2" data-name="Warstwa 2"><g id="Warstwa_1-2" data-name="Warstwa 1"><path class="cls-1" d="M26.71,30,21.09,51.6H17.86L13.32,33.67,8.88,51.6H5.72L0,30H2.94L7.49,48,12,30h2.92l4.51,18.13L23.89,30Z"/><path class="cls-1" d="M33.66,32.68H30.58V29.85h3.08ZM33.48,51.6H30.76V35.4h2.72Z"/><path class="cls-1" d="M52.43,51.6H49.7V42.37a15.32,15.32,0,0,0-.13-2.09,3.63,3.63,0,0,0-.48-1.53,2.2,2.2,0,0,0-1-.91,4.47,4.47,0,0,0-1.77-.3,5.81,5.81,0,0,0-2.34.55,12,12,0,0,0-2.33,1.41V51.6H38.88V35.4h2.73v1.8a11.06,11.06,0,0,1,2.64-1.66,7,7,0,0,1,2.8-.59,5,5,0,0,1,4,1.58,6.71,6.71,0,0,1,1.38,4.55Z"/><path class="cls-1" d="M70.83,51.6H68.1V49.9a9.86,9.86,0,0,1-2.45,1.59,6.89,6.89,0,0,1-2.77.56,5.49,5.49,0,0,1-4.61-2.23,10,10,0,0,1-1.7-6.2A10.75,10.75,0,0,1,57.15,40a8.37,8.37,0,0,1,1.59-2.74A6.73,6.73,0,0,1,61,35.53,6.62,6.62,0,0,1,63.76,35a9,9,0,0,1,2.26.26,10.54,10.54,0,0,1,2.08.84V29h2.73Zm-2.73-4v-9.3a10.54,10.54,0,0,0-2-.68,8.74,8.74,0,0,0-1.9-.19A4.3,4.3,0,0,0,60.66,39a7.07,7.07,0,0,0-1.28,4.52,8,8,0,0,0,1,4.39,3.49,3.49,0,0,0,3.16,1.5,5.93,5.93,0,0,0,2.35-.51A10.05,10.05,0,0,0,68.1,47.61Z"/><path class="cls-1" d="M79.29,0V38.65h9.38V41.2H79.29V51.6H76.41V0Z"/><path class="cls-1" d="M104.41,51.6H101.7V49.87l-1,.69a7,7,0,0,1-1.2.71,8.09,8.09,0,0,1-1.56.56,8.56,8.56,0,0,1-2.08.22,5.15,5.15,0,0,1-3.71-1.45,4.88,4.88,0,0,1-1.53-3.7,5.1,5.1,0,0,1,.8-3,5.15,5.15,0,0,1,2.25-1.79,12.19,12.19,0,0,1,3.56-.89c1.38-.15,2.86-.27,4.45-.35v-.42a3.18,3.18,0,0,0-.33-1.53,2.32,2.32,0,0,0-.93-1,4,4,0,0,0-1.4-.45A10.77,10.77,0,0,0,95,37.7a17.05,17.05,0,0,0-2.72.82h-.15V35.75a23.24,23.24,0,0,1,2.31-.48,16.74,16.74,0,0,1,3-.27,13.67,13.67,0,0,1,3,.29,5.87,5.87,0,0,1,2.2,1A4.29,4.29,0,0,1,103.93,38a6.35,6.35,0,0,1,.48,2.62Zm-2.71-4V43.1c-.83,0-1.81.12-2.94.22a15,15,0,0,0-2.68.42,4.42,4.42,0,0,0-1.9,1,3,3,0,0,0,.12,4,3.94,3.94,0,0,0,2.57.7A6,6,0,0,0,99.49,49,11.72,11.72,0,0,0,101.7,47.61Z"/><path class="cls-1" d="M119.78,38.37h-.15a8.9,8.9,0,0,0-1.18-.21,13,13,0,0,0-1.36-.07,5.61,5.61,0,0,0-2.43.56,11.59,11.59,0,0,0-2.27,1.45V51.6h-2.73V35.4h2.73v2.39a13.16,13.16,0,0,1,2.87-1.85,6.26,6.26,0,0,1,2.53-.54c.47,0,.82,0,1,0l1,.14Z"/><path class="cls-1" d="M146,51.6h-2.73V42.37q0-1-.09-2a4.2,4.2,0,0,0-.4-1.55,2.2,2.2,0,0,0-1-1,4.05,4.05,0,0,0-1.8-.32,5,5,0,0,0-2.29.58,13.9,13.9,0,0,0-2.29,1.46c0,.22,0,.48.07.77s0,.59,0,.88V51.6H132.8V42.37c0-.71,0-1.39-.09-2a4.25,4.25,0,0,0-.4-1.55,2.11,2.11,0,0,0-1-.93,4.05,4.05,0,0,0-1.8-.32,5.17,5.17,0,0,0-2.24.55,13.82,13.82,0,0,0-2.24,1.41V51.6h-2.73V35.4h2.73v1.8a11.91,11.91,0,0,1,2.55-1.66,6.37,6.37,0,0,1,2.7-.59,5.37,5.37,0,0,1,2.81.69,4.35,4.35,0,0,1,1.72,1.93,13.34,13.34,0,0,1,3-2,7,7,0,0,1,2.91-.61,4.71,4.71,0,0,1,3.94,1.61A7.15,7.15,0,0,1,146,41.08Z"/><path class="cls-1" d="M88.49,9.15C85.73,9.21,79.29,5,79.29,5V20.93s6.44,4.22,9.2,4.15h0V9.15Z"/><path class="cls-1" d="M99.71,5.86V21.8c3.19.06,8.08,2.35,8.94,2.07V7.93C107.79,8.21,102.89,5.92,99.71,5.86Z"/><path class="cls-2" d="M98.62,6c-3,.64-7.33,3.11-10.1,3.2V25.08c2.77-.08,7.11-2.55,10.1-3.19a4.72,4.72,0,0,1,1.09-.09V5.86A4.72,4.72,0,0,0,98.62,6Z"/></g></g></svg>