<?xml version="1.0" encoding="utf-8"?>
<!-- Generator: Adobe Illustrator 23.0.1, SVG Export Plug-In . SVG Version: 6.00 Build 0)  -->
<svg version="1.1" id="Warstwa_1" xmlns="http://www.w3.org/2000/svg" xmlns:xlink="http://www.w3.org/1999/xlink" x="0px" y="0px"
	 viewBox="0 0 300 100.8" style="enable-background:new 0 0 300 100.8;" xml:space="preserve">
<style type="text/css">
	.st0{fill:url(#SVGID_1_);}
	.st1{fill:url(#SVGID_2_);}
	.st2{fill:url(#SVGID_3_);}
	.st3{fill:url(#SVGID_4_);}
	.st4{fill:url(#SVGID_5_);}
	.st5{fill:url(#SVGID_6_);}
	.st6{fill:url(#SVGID_7_);}
	.st7{fill:url(#SVGID_8_);}
	.st8{fill:url(#SVGID_9_);}
	.st9{fill:url(#SVGID_10_);}
</style>
<linearGradient id="SVGID_1_" gradientUnits="userSpaceOnUse" x1="38.054" y1="32.2903" x2="84.8625" y2="-18.2629">
	<stop  offset="0" style="stop-color:#1D71B8"/>
	<stop  offset="0.2739" style="stop-color:#312783"/>
	<stop  offset="0.5402" style="stop-color:#1D71B8"/>
	<stop  offset="1" style="stop-color:#45D1FF"/>
</linearGradient>
<path class="st0" d="M73.6-6c-0.2,0-0.4,0.1-0.5,0.2C73.7-6,74.1-6.1,73.6-6z"/>
<g>
	
		<linearGradient id="SVGID_2_" gradientUnits="userSpaceOnUse" x1="52.559" y1="56.5522" x2="86.043" y2="20.3895" gradientTransform="matrix(-1 0 0 1 123.2523 0)">
		<stop  offset="0" style="stop-color:#1D71B8"/>
		<stop  offset="0.2739" style="stop-color:#312783"/>
		<stop  offset="0.5402" style="stop-color:#1D71B8"/>
		<stop  offset="1" style="stop-color:#45D1FF"/>
	</linearGradient>
	<path class="st1" d="M88.8,11.2c-0.4-0.8-2.1-0.4-2.2-0.3c-6.2,2.2-36.9,13.6-37.6,13.9c-0.2,0.1-1,0-1.6-0.2
		c-0.9-0.2-1.9-0.5-2.5-0.2c-0.9,0.3-1.4-0.2-2-1.1c-0.1-0.1-0.2-0.3-0.3-0.6c-0.9-1.6-1.9-3.3-2.9-3.6c-1-0.3-14.3-9.3-19.3-12.8
		l-0.1,0c0,0-0.7-0.2-1.3-0.1c-0.3,0-0.5,0.1-0.7,0.3c-0.1,0.1-0.1,0.1-0.1,0.3c0,0.9,3.3,3.9,4,4.5v0l19.8,16.3
		c0,0.4-0.1,1.6,0.3,2.1c0,0,0,0.1,0.1,0.1l0,0.1c0.1,0.5-0.1,1.4-0.1,1.8l-2.3,5.6l-1.7,2.5c-0.1,0.2-9.5,24-11.1,28.7
		c-0.7,1.9-1.4,4.4-1,4.9c0.1,0.1,0.1,0.1,0.2,0.1c0,0,0.1,0,0.3,0c0.5-0.1,1.2-0.8,2-2.1c0.5-0.7,1-1.6,1.5-2.7
		c2.5-4.9,13.8-30.5,15.1-33.5l1.3,1.5l-2,45.5h8.3c-0.6-8.5-3.2-46.5-4.2-46.5c-0.8,0.1-1.5,0.5-1.7,0.8l-0.1-0.1
		c0.2-0.5,0.8-1.5,2.7-1.6c1.5-0.1,2.4,0.9,2.4,0.9l0.4,3.8v0l4.3,42.7h0.4l-4.3-42.3l4-0.5l0.6-4.6L51.9,28l2.8-1
		c0.4,0,2.5,0.3,4-0.3c0.4-0.2,1.7-0.8,3.7-1.8c4-2,10.8-5.3,19.2-9l6-2.7C87.8,13.2,89.2,12,88.8,11.2z M87.4,13l-5.9,2.6
		c-0.9,0.4-1.8,0.8-2.6,1.2l-21.1,7.9c0,0-2,0.5-3.4,0.3c-1.5-0.2-5.9,2-5.9,2s0.2,1.9,0.8,2.3c0.5,0.3,1.9-0.8,2.3-1.2l5.2,6.8
		l-0.5,4.2l-6.8-7.3c0,0-2.2,0.3-1.8,0.2c0.4-0.1,1-1,1-1l-2.1-0.8c0,0-0.1,1.2-0.1,1.4c0-0.1-0.9-0.3-1.5-0.5c0.6,0.3,1,1.1,1,1.1
		L45,34.5l-15.3,34c-0.5,1.1-1,2-1.5,2.6c0,0.1-0.1,0.1-0.1,0.1c-1,0.1-0.3-1.5-0.3-1.5s13.9-36.5,14.7-37c0.8-0.5,2-0.2,1.2-0.7
		c-0.5-0.3-0.9-0.4-1.2-0.4c0-0.2,0.3-1.5,0.1-2.1v0c0.3-0.1,1-0.3,1.7-0.1c0.7,0.2,1.2,0.3,1.5,0.3c-0.4-0.2-2-0.8-2.5-1.7
		c-0.6-1.1-0.4-2.4-0.2-2.8c-0.2,0.2-0.9,0.9-1.6,0.5c-0.9-0.6-21.8-18-21.8-18S19.2,7.3,19,6.6c0.5-0.1,1,0,1.1,0.1
		c1.1,0.8,18.1,12.5,19.4,12.8c0.9,0.2,2.1,2.4,2.7,3.4c0.1,0.2,0.2,0.4,0.3,0.6c0.3,0.5,1.1,1.8,2.4,1.3c0.5-0.2,1.4,0,2.3,0.3
		c0.9,0.2,1.5,0.3,2,0.1c0.8-0.6,27.2-10.1,37.4-13.8c0.4-0.1,1.5-0.3,1.8,0.2C88.7,11.9,87.8,12.7,87.4,13z"/>
	<g>
		<linearGradient id="SVGID_3_" gradientUnits="userSpaceOnUse" x1="67.78" y1="68.9377" x2="279.3385" y2="30.5484">
			<stop  offset="0" style="stop-color:#1D71B8"/>
			<stop  offset="0.2739" style="stop-color:#312783"/>
			<stop  offset="0.5402" style="stop-color:#1D71B8"/>
			<stop  offset="1" style="stop-color:#45D1FF"/>
		</linearGradient>
		<rect x="98.3" y="43.2" class="st2" width="6.5" height="39.2"/>
		<linearGradient id="SVGID_4_" gradientUnits="userSpaceOnUse" x1="69.428" y1="78.0196" x2="280.9865" y2="39.6303">
			<stop  offset="0" style="stop-color:#1D71B8"/>
			<stop  offset="0.2739" style="stop-color:#312783"/>
			<stop  offset="0.5402" style="stop-color:#1D71B8"/>
			<stop  offset="1" style="stop-color:#45D1FF"/>
		</linearGradient>
		<path class="st3" d="M134.1,68.6c0.2-0.3,0.3-1,0.3-2c0-2-0.3-3.7-0.9-5.2s-1.4-2.8-2.5-3.8c-1-1-2.3-1.8-3.7-2.4
			c-1.4-0.5-3-0.8-4.7-0.8c-2,0-3.8,0.3-5.4,1.1c-1.6,0.7-3,1.6-4.1,2.8c-1.1,1.2-2,2.6-2.6,4.3c-0.6,1.6-0.9,3.4-0.9,5.2
			c0,2.4,0.3,4.5,1,6.3c0.7,1.8,1.6,3.3,2.8,4.5c1.2,1.2,2.6,2.1,4.2,2.8c1.6,0.6,3.4,0.9,5.2,0.9c1,0,1.9-0.1,2.9-0.2
			c1-0.1,2-0.4,3-0.7c1-0.3,1.9-0.8,2.8-1.4c0.9-0.6,1.7-1.3,2.4-2.1l-1.9-2.4c-0.3-0.4-0.7-0.6-1.2-0.6c-0.4,0-0.8,0.1-1.3,0.4
			c-0.4,0.2-0.9,0.5-1.5,0.8c-0.6,0.3-1.3,0.6-2,0.8c-0.8,0.2-1.7,0.4-2.7,0.4c-1.1,0-2-0.2-2.9-0.5c-0.9-0.3-1.6-0.8-2.3-1.5
			c-0.6-0.7-1.1-1.5-1.5-2.5c-0.4-1-0.6-2.2-0.7-3.6l16.7,0C133.5,69.1,133.9,69,134.1,68.6z M116.3,65.2c0.3-2,1-3.5,2.1-4.6
			c1.1-1.1,2.5-1.6,4.4-1.6c1,0,1.8,0.2,2.5,0.5c0.7,0.3,1.3,0.8,1.8,1.3c0.5,0.6,0.8,1.2,1.1,2c0.2,0.8,0.3,1.5,0.3,2.4H116.3z"/>
		<linearGradient id="SVGID_5_" gradientUnits="userSpaceOnUse" x1="70.2819" y1="82.7251" x2="281.8404" y2="44.3358">
			<stop  offset="0" style="stop-color:#1D71B8"/>
			<stop  offset="0.2739" style="stop-color:#312783"/>
			<stop  offset="0.5402" style="stop-color:#1D71B8"/>
			<stop  offset="1" style="stop-color:#45D1FF"/>
		</linearGradient>
		<path class="st4" d="M161.3,74.4c-0.5,0-0.9,0.1-1.2,0.4c-0.4,0.3-0.8,0.5-1.3,0.9c-0.5,0.3-1.1,0.6-1.8,0.9
			c-0.7,0.3-1.7,0.4-2.8,0.4c-1.2,0-2.2-0.2-3.2-0.6c-0.9-0.4-1.7-1-2.4-1.8c-0.7-0.8-1.2-1.8-1.5-3c-0.3-1.2-0.5-2.5-0.5-4
			c0-1.4,0.2-2.7,0.5-3.9c0.3-1.2,0.8-2.1,1.4-2.9c0.6-0.8,1.4-1.4,2.4-1.9c1-0.4,2.1-0.6,3.4-0.6c1,0,1.9,0.1,2.5,0.3
			c0.7,0.2,1.3,0.5,1.8,0.7c0.5,0.3,0.9,0.5,1.3,0.7c0.4,0.2,0.7,0.3,1.1,0.3c0.4,0,0.7-0.1,0.9-0.2c0.2-0.2,0.4-0.4,0.6-0.6
			l1.9-2.5c-1.4-1.3-2.9-2.3-4.7-2.9c-1.7-0.7-3.7-1-6-1c-2.4,0-4.5,0.4-6.4,1.1c-1.9,0.7-3.4,1.7-4.7,3c-1.2,1.3-2.2,2.8-2.8,4.6
			c-0.7,1.8-1,3.7-1,5.8c0,2.3,0.4,4.4,1.1,6.2c0.7,1.8,1.7,3.3,3,4.6c1.2,1.2,2.7,2.2,4.4,2.8c1.7,0.6,3.4,1,5.3,1
			c1.1,0,2.2-0.1,3.2-0.2c1.1-0.1,2.1-0.4,3.2-0.7c1-0.4,2-0.8,3-1.4c0.9-0.6,1.8-1.3,2.6-2.2l-2.1-2.5
			C162.4,74.6,161.9,74.4,161.3,74.4z"/>
		<linearGradient id="SVGID_6_" gradientUnits="userSpaceOnUse" x1="69.2427" y1="76.9984" x2="280.8012" y2="38.6091">
			<stop  offset="0" style="stop-color:#1D71B8"/>
			<stop  offset="0.2739" style="stop-color:#312783"/>
			<stop  offset="0.5402" style="stop-color:#1D71B8"/>
			<stop  offset="1" style="stop-color:#45D1FF"/>
		</linearGradient>
		<path class="st5" d="M203.2,55.3c-0.6,0-1.1,0.1-1.5,0.5c-0.4,0.3-0.4,0.6-0.8,1.9l-5.1,26l-6.7-28.4h-7.2l-5.6,18l-6.2-32.3
			l-0.1-0.7c-0.6-2.9-3.1-5-6-5H70.4v5.6v41.2h24v-5.7H77.6V60.8h16.9v-5.4H77.6V41.1h82.1c1.7,0,3.2,1.2,3.6,2.9l0.3,1.2l8.5,37.2
			h7.4l5.3-17.2c0.1-0.3,0.2-0.7,0.3-1.1c0.1-0.4,0.2-0.8,0.3-1.3c0.2,0.9,0.4,1.7,0.6,2.3l6.1,29.5h7.9l8-39.3H203.2z"/>
		<linearGradient id="SVGID_7_" gradientUnits="userSpaceOnUse" x1="72.4063" y1="94.4329" x2="283.9648" y2="56.0435">
			<stop  offset="0" style="stop-color:#1D71B8"/>
			<stop  offset="0.2739" style="stop-color:#312783"/>
			<stop  offset="0.5402" style="stop-color:#1D71B8"/>
			<stop  offset="1" style="stop-color:#45D1FF"/>
		</linearGradient>
		<polygon class="st6" points="207.4,82.4 213.9,82.4 219.2,55.3 219.2,55.3 212.7,55.3 		"/>
		<linearGradient id="SVGID_8_" gradientUnits="userSpaceOnUse" x1="69.4948" y1="78.3877" x2="281.0533" y2="39.9984">
			<stop  offset="0" style="stop-color:#1D71B8"/>
			<stop  offset="0.2739" style="stop-color:#312783"/>
			<stop  offset="0.5402" style="stop-color:#1D71B8"/>
			<stop  offset="1" style="stop-color:#45D1FF"/>
		</linearGradient>
		<path class="st7" d="M223,49.6c-0.2-0.5-0.5-1-0.9-1.3c-0.4-0.4-0.8-0.7-1.3-0.9c-0.5-0.2-1.1-0.3-1.6-0.3c-0.6,0-1.1,0.1-1.6,0.3
			c-0.5,0.2-0.9,0.5-1.3,0.9c-0.4,0.4-0.7,0.8-0.9,1.3c-0.2,0.5-0.3,1.1-0.3,1.6c0,0.6,0.1,1.1,0.3,1.6c0.2,0.5,0.5,0.9,0.9,1.3
			c0.4,0.4,0.8,0.7,1.3,0.9s1,0.3,1.6,0.3c0.6,0,1.1-0.1,1.6-0.3c0.5-0.2,0.9-0.5,1.3-0.9c0.4-0.4,0.7-0.8,0.9-1.3
			c0.2-0.5,0.3-1,0.3-1.6C223.4,50.7,223.2,50.2,223,49.6z"/>
		<linearGradient id="SVGID_9_" gradientUnits="userSpaceOnUse" x1="73.1012" y1="98.2622" x2="284.6597" y2="59.8729">
			<stop  offset="0" style="stop-color:#1D71B8"/>
			<stop  offset="0.2739" style="stop-color:#312783"/>
			<stop  offset="0.5402" style="stop-color:#1D71B8"/>
			<stop  offset="1" style="stop-color:#45D1FF"/>
		</linearGradient>
		<path class="st8" d="M247.5,57.8c-0.5-0.9-1.3-1.6-2.3-2.1c-1-0.5-2.3-0.7-3.7-0.7c-0.9,0-1.8,0.1-2.6,0.3
			c-0.8,0.2-1.6,0.4-2.4,0.8c-0.8,0.3-1.5,0.7-2.3,1.2c-0.7,0.5-1.4,1-2.1,1.5l0.1-2.1c0-0.8-0.5-1.2-1.3-1.2h-4l-7.2,27h6.5
			l5.2-19.6c1.1-0.9,2.2-1.6,3.4-2.1c1.1-0.5,2.2-0.8,3.4-0.8c1.5,0,2.6,0.5,3.1,1.4c0.5,0.9,0.5,2.2,0.1,3.8l-4.6,17.2h6.5
			l4.6-17.2c0.4-1.5,0.6-2.9,0.5-4.1C248.3,59.8,248,58.7,247.5,57.8z"/>
		<linearGradient id="SVGID_10_" gradientUnits="userSpaceOnUse" x1="73.2583" y1="99.1278" x2="284.8168" y2="60.7385">
			<stop  offset="0" style="stop-color:#1D71B8"/>
			<stop  offset="0.2739" style="stop-color:#312783"/>
			<stop  offset="0.5402" style="stop-color:#1D71B8"/>
			<stop  offset="1" style="stop-color:#45D1FF"/>
		</linearGradient>
		<path class="st9" d="M275.4,43.2l-3.8,14.2c-0.6-0.8-1.4-1.4-2.4-1.9c-0.9-0.5-2.2-0.7-3.7-0.7c-1.8,0-3.5,0.3-5.1,1.1
			c-1.6,0.7-3.1,1.7-4.4,3c-1.4,1.3-2.6,2.8-3.6,4.5c-1,1.7-1.8,3.6-2.3,5.6c-0.6,2.2-0.9,4.2-0.9,5.9c0,1.7,0.3,3.2,0.9,4.3
			c0.6,1.2,1.4,2.1,2.5,2.7c1.1,0.6,2.3,0.9,3.8,0.9c1.9,0,3.6-0.4,5.3-1.2c1.6-0.8,3.1-1.8,4.6-3l-0.2,2.6c0,0.8,0.5,1.2,1.3,1.2h4
			l10.5-39.2H275.4z M267,74.4c-1.1,1-2.2,1.8-3.3,2.4c-1.1,0.6-2.3,0.8-3.7,0.8c-0.9,0-1.6-0.1-2.2-0.4c-0.6-0.3-1.1-0.8-1.3-1.5
			c-0.3-0.7-0.4-1.6-0.4-2.7c0.1-1.1,0.3-2.5,0.7-4c0.4-1.6,0.9-2.9,1.5-4.1c0.6-1.2,1.3-2.1,2.1-2.8c0.8-0.8,1.6-1.3,2.5-1.7
			c0.9-0.4,1.8-0.5,2.8-0.5c1,0,1.9,0.2,2.7,0.5c0.8,0.4,1.4,1,1.9,1.9L267,74.4z"/>
	</g>
</g>
</svg>
