<?xml version="1.0" encoding="utf-8"?>
<!-- Generator: Adobe Illustrator 23.0.1, SVG Export Plug-In . SVG Version: 6.00 Build 0)  -->
<svg version="1.1" id="Warstwa_1" xmlns="http://www.w3.org/2000/svg" xmlns:xlink="http://www.w3.org/1999/xlink" x="0px" y="0px"
	 viewBox="0 0 300 100.8" style="enable-background:new 0 0 300 100.8;" xml:space="preserve">
<style type="text/css">
	.st0{fill:#FFFFFF;}
</style>
<g>
	<path class="st0" d="M73.6-6c-0.2,0-0.4,0.1-0.5,0.2C73.7-6,74.1-6.1,73.6-6z"/>
	<path class="st0" d="M87.6,13.2c0.2,0,1.6-1.2,1.2-2c-0.4-0.8-2.1-0.4-2.2-0.3C80.4,13.1,49.7,24.5,49,24.8c-0.2,0.1-1,0-1.6-0.2
		c-0.9-0.2-1.9-0.5-2.5-0.2c-0.9,0.3-1.4-0.2-2-1.1c-0.1-0.1-0.2-0.3-0.3-0.6c-0.9-1.6-1.9-3.3-2.9-3.6S25.4,9.8,20.4,6.3h-0.1
		c0,0-0.7-0.2-1.3-0.1c-0.3,0-0.5,0.1-0.7,0.3c-0.1,0.1-0.1,0.1-0.1,0.3c0,0.9,3.3,3.9,4,4.5L42,27.6c0,0.4-0.1,1.6,0.3,2.1
		c0,0,0,0.1,0.1,0.1v0.1c0.1,0.5-0.1,1.4-0.1,1.8L40,37.3l-1.7,2.5c-0.1,0.2-9.5,24-11.1,28.7c-0.7,1.9-1.4,4.4-1,4.9
		c0.1,0.1,0.1,0.1,0.2,0.1c0,0,0.1,0,0.3,0c0.5-0.1,1.2-0.8,2-2.1c0.5-0.7,1-1.6,1.5-2.7c2.5-4.9,13.8-30.5,15.1-33.5l1.3,1.5
		l-2,45.5h8.3c-0.6-8.5-3.2-46.5-4.2-46.5c-0.8,0.1-1.5,0.5-1.7,0.8l-0.1-0.1c0.2-0.5,0.8-1.5,2.7-1.6c1.5-0.1,2.4,0.9,2.4,0.9
		l0.4,3.8l4.3,42.7h0.4l-4.3-42.3l4-0.5l0.6-4.6L51.9,28l2.8-1c0.4,0,2.5,0.3,4-0.3c0.4-0.2,1.7-0.8,3.7-1.8c4-2,10.8-5.3,19.2-9
		L87.6,13.2z M78.9,16.8l-21.1,7.9c0,0-2,0.5-3.4,0.3c-1.5-0.2-5.9,2-5.9,2s0.2,1.9,0.8,2.3c0.5,0.3,1.9-0.8,2.3-1.2l5.2,6.8
		l-0.5,4.2l-6.8-7.3c0,0-2.2,0.3-1.8,0.2c0.4-0.1,1-1,1-1l-2.1-0.8c0,0-0.1,1.2-0.1,1.4c0-0.1-0.9-0.3-1.5-0.5c0.6,0.3,1,1.1,1,1.1
		l-1,2.3l-15.3,34c-0.5,1.1-1,2-1.5,2.6c0,0.1-0.1,0.1-0.1,0.1c-1,0.1-0.3-1.5-0.3-1.5s13.9-36.5,14.7-37s2-0.2,1.2-0.7
		c-0.5-0.3-0.9-0.4-1.2-0.4c0-0.2,0.3-1.5,0.1-2.1c0.3-0.1,1-0.3,1.7-0.1s1.2,0.3,1.5,0.3c-0.4-0.2-2-0.8-2.5-1.7
		c-0.6-1.1-0.4-2.4-0.2-2.8c-0.2,0.2-0.9,0.9-1.6,0.5c-0.9-0.6-21.8-18-21.8-18S19.2,7.3,19,6.6c0.5-0.1,1,0,1.1,0.1
		c1.1,0.8,18.1,12.5,19.4,12.8c0.9,0.2,2.1,2.4,2.7,3.4c0.1,0.2,0.2,0.4,0.3,0.6c0.3,0.5,1.1,1.8,2.4,1.3c0.5-0.2,1.4,0,2.3,0.3
		c0.9,0.2,1.5,0.3,2,0.1c0.8-0.6,27.2-10.1,37.4-13.8c0.4-0.1,1.5-0.3,1.8,0.2c0.3,0.3-0.6,1.1-1,1.4l-5.9,2.6
		C80.6,16,79.7,16.4,78.9,16.8z"/>
	<rect x="98.3" y="43.2" class="st0" width="6.5" height="39.2"/>
	<path class="st0" d="M131,57.6c-1-1-2.3-1.8-3.7-2.4c-1.4-0.5-3-0.8-4.7-0.8c-2,0-3.8,0.3-5.4,1.1c-1.6,0.7-3,1.6-4.1,2.8
		c-1.1,1.2-2,2.6-2.6,4.3c-0.6,1.6-0.9,3.4-0.9,5.2c0,2.4,0.3,4.5,1,6.3s1.6,3.3,2.8,4.5s2.6,2.1,4.2,2.8c1.6,0.6,3.4,0.9,5.2,0.9
		c1,0,1.9-0.1,2.9-0.2c1-0.1,2-0.4,3-0.7c1-0.3,1.9-0.8,2.8-1.4c0.9-0.6,1.7-1.3,2.4-2.1l-1.9-2.4c-0.3-0.4-0.7-0.6-1.2-0.6
		c-0.4,0-0.8,0.1-1.3,0.4c-0.4,0.2-0.9,0.5-1.5,0.8c-0.6,0.3-1.3,0.6-2,0.8c-0.8,0.2-1.7,0.4-2.7,0.4c-1.1,0-2-0.2-2.9-0.5
		s-1.6-0.8-2.3-1.5c-0.6-0.7-1.1-1.5-1.5-2.5c-0.4-1-0.6-2.2-0.7-3.6h16.7c0.9-0.1,1.3-0.2,1.5-0.6c0.2-0.3,0.3-1,0.3-2
		c0-2-0.3-3.7-0.9-5.2C132.9,59.9,132.1,58.6,131,57.6z M116.3,65.2c0.3-2,1-3.5,2.1-4.6c1.1-1.1,2.5-1.6,4.4-1.6
		c1,0,1.8,0.2,2.5,0.5c0.7,0.3,1.3,0.8,1.8,1.3c0.5,0.6,0.8,1.2,1.1,2c0.2,0.8,0.3,1.5,0.3,2.4H116.3z"/>
	<path class="st0" d="M161.3,74.4c-0.5,0-0.9,0.1-1.2,0.4c-0.4,0.3-0.8,0.5-1.3,0.9c-0.5,0.3-1.1,0.6-1.8,0.9s-1.7,0.4-2.8,0.4
		c-1.2,0-2.2-0.2-3.2-0.6c-0.9-0.4-1.7-1-2.4-1.8c-0.7-0.8-1.2-1.8-1.5-3c-0.3-1.2-0.5-2.5-0.5-4c0-1.4,0.2-2.7,0.5-3.9
		c0.3-1.2,0.8-2.1,1.4-2.9c0.6-0.8,1.4-1.4,2.4-1.9c1-0.4,2.1-0.6,3.4-0.6c1,0,1.9,0.1,2.5,0.3c0.7,0.2,1.3,0.5,1.8,0.7
		c0.5,0.3,0.9,0.5,1.3,0.7c0.4,0.2,0.7,0.3,1.1,0.3s0.7-0.1,0.9-0.2c0.2-0.2,0.4-0.4,0.6-0.6l1.9-2.5c-1.4-1.3-2.9-2.3-4.7-2.9
		c-1.7-0.7-3.7-1-6-1c-2.4,0-4.5,0.4-6.4,1.1c-1.9,0.7-3.4,1.7-4.7,3c-1.2,1.3-2.2,2.8-2.8,4.6c-0.7,1.8-1,3.7-1,5.8
		c0,2.3,0.4,4.4,1.1,6.2s1.7,3.3,3,4.6c1.2,1.2,2.7,2.2,4.4,2.8c1.7,0.6,3.4,1,5.3,1c1.1,0,2.2-0.1,3.2-0.2c1.1-0.1,2.1-0.4,3.2-0.7
		c1-0.4,2-0.8,3-1.4c0.9-0.6,1.8-1.3,2.6-2.2l-2.1-2.5C162.4,74.6,161.9,74.4,161.3,74.4z"/>
	<path class="st0" d="M203.2,55.3c-0.6,0-1.1,0.1-1.5,0.5c-0.4,0.3-0.4,0.6-0.8,1.9l-5.1,26l-6.7-28.4h-7.2l-5.6,18L170.1,41
		l-0.1-0.7c-0.6-2.9-3.1-5-6-5H70.4v5.6v41.2h24v-5.7H77.6V60.8h16.9v-5.4H77.6V41.1h82.1c1.7,0,3.2,1.2,3.6,2.9l0.3,1.2l8.5,37.2
		h7.4l5.3-17.2c0.1-0.3,0.2-0.7,0.3-1.1c0.1-0.4,0.2-0.8,0.3-1.3c0.2,0.9,0.4,1.7,0.6,2.3l6.1,29.5h7.9l8-39.3H203.2z"/>
	<polygon class="st0" points="207.4,82.4 213.9,82.4 219.2,55.3 212.7,55.3 	"/>
	<path class="st0" d="M222.1,54.1c0.4-0.4,0.7-0.8,0.9-1.3s0.3-1,0.3-1.6c0.1-0.5-0.1-1-0.3-1.6c-0.2-0.5-0.5-1-0.9-1.3
		c-0.4-0.4-0.8-0.7-1.3-0.9s-1.1-0.3-1.6-0.3c-0.6,0-1.1,0.1-1.6,0.3s-0.9,0.5-1.3,0.9c-0.4,0.4-0.7,0.8-0.9,1.3
		c-0.2,0.5-0.3,1.1-0.3,1.6c0,0.6,0.1,1.1,0.3,1.6c0.2,0.5,0.5,0.9,0.9,1.3c0.4,0.4,0.8,0.7,1.3,0.9c0.5,0.2,1,0.3,1.6,0.3
		c0.6,0,1.1-0.1,1.6-0.3C221.3,54.8,221.7,54.5,222.1,54.1z"/>
	<path class="st0" d="M247.5,57.8c-0.5-0.9-1.3-1.6-2.3-2.1s-2.3-0.7-3.7-0.7c-0.9,0-1.8,0.1-2.6,0.3c-0.8,0.2-1.6,0.4-2.4,0.8
		c-0.8,0.3-1.5,0.7-2.3,1.2c-0.7,0.5-1.4,1-2.1,1.5l0.1-2.1c0-0.8-0.5-1.2-1.3-1.2h-4l-7.2,27h6.5l5.2-19.6c1.1-0.9,2.2-1.6,3.4-2.1
		c1.1-0.5,2.2-0.8,3.4-0.8c1.5,0,2.6,0.5,3.1,1.4c0.5,0.9,0.5,2.2,0.1,3.8l-4.6,17.2h6.5l4.6-17.2c0.4-1.5,0.6-2.9,0.5-4.1
		C248.3,59.8,248,58.7,247.5,57.8z"/>
	<path class="st0" d="M275.4,43.2l-3.8,14.2c-0.6-0.8-1.4-1.4-2.4-1.9c-0.9-0.5-2.2-0.7-3.7-0.7c-1.8,0-3.5,0.3-5.1,1.1
		c-1.6,0.7-3.1,1.7-4.4,3c-1.4,1.3-2.6,2.8-3.6,4.5s-1.8,3.6-2.3,5.6c-0.6,2.2-0.9,4.2-0.9,5.9s0.3,3.2,0.9,4.3
		c0.6,1.2,1.4,2.1,2.5,2.7c1.1,0.6,2.3,0.9,3.8,0.9c1.9,0,3.6-0.4,5.3-1.2c1.6-0.8,3.1-1.8,4.6-3l-0.2,2.6c0,0.8,0.5,1.2,1.3,1.2h4
		l10.5-39.2H275.4z M267,74.4c-1.1,1-2.2,1.8-3.3,2.4s-2.3,0.8-3.7,0.8c-0.9,0-1.6-0.1-2.2-0.4c-0.6-0.3-1.1-0.8-1.3-1.5
		c-0.3-0.7-0.4-1.6-0.4-2.7c0.1-1.1,0.3-2.5,0.7-4c0.4-1.6,0.9-2.9,1.5-4.1c0.6-1.2,1.3-2.1,2.1-2.8c0.8-0.8,1.6-1.3,2.5-1.7
		c0.9-0.4,1.8-0.5,2.8-0.5s1.9,0.2,2.7,0.5c0.8,0.4,1.4,1,1.9,1.9L267,74.4z"/>
</g>
</svg>
