<svg xmlns="http://www.w3.org/2000/svg" viewBox="0 0 807.59 769.3"><defs><style>.cls-1{fill:#fff;}.cls-2{fill:#eee;}</style></defs><title>ElecWindZasób 2</title><g id="Warstwa_2" data-name="Warstwa 2"><g id="Warstwa_1-2" data-name="Warstwa 1"><polygon class="cls-1" points="0 253.6 32.34 110.63 165.94 79.14 217.85 26.38 331.89 0 378.69 37.44 394.86 41.7 390.61 49.36 365.08 46.8 354.01 36.59 341.25 33.19 362.52 74.89 511.45 69.78 645.9 74.04 668.03 50.21 722.49 92.76 772.7 262.11 725.9 329.33 754.83 354.01 748.87 437.41 807.59 557.4 719.94 634.84 693.56 695.26 707.17 769.3 693.56 769.3 604.21 717.39 505.49 720.79 456.98 754.83 442.52 754.83 419.54 702.92 378.69 724.2 314.02 647.61 293.59 664.63 266.36 615.27 224.66 593.14 218.71 645.9 190.62 645.05 165.94 611.86 160.84 576.12 91.06 514.85 51.91 515.7 58.72 453.58 34.04 411.88 40 308.91 0 253.6"/><path class="cls-2" d="M681.87,587.5l11.74-22-59.43-32.93-9.5-35V436.91l-12.47-13.53,14.35-18.3V377.64L693,368l34.81-37-1.9-1.63,1.54-2.22-48.62-10.53-23.94-58.16-28-.74-4-22.24-16.27-9.08-7.85-42.31,13,1.9L683,140.25l3.87-18.92L670.66,103.5,649.42,70.25,645.9,74l20.72,32.4,14.87,16.37-2.93,14.37-67.92,43.55-15.27-2.23L502.1,217.65l-6.79,10.71-56.25-5.31V207.28l-39.32-31,32.17-46.06-17.53-27.09v-30l-5,.18v31.36l16.51,25.5-28.63,41-85.41-26.67L259.4,183l-35.64-20.94V112L218,88.84l16.28-30-11.5-33.61-4.89,1.13,10.85,32.2-16.1,29.61,6.12,24.47v49.49L186.46,183l15.39,28.21L165.63,238l-15-6.67L88.29,259.46l-29.41-8L36.57,304.18,40,308.91l22-51.45,26.75,7.29,58.91-26.62-2,16.3-19.84,31.06,7.39,30.43-3.92,48.72,45.65,30.43-5.48,18.47-23.81-10.68-28.39,34.42L95.81,434,56.05,449.06l2.67,4.52,37.8-14.44,22.79,3.51L147.09,409l25.54,11.46,4.13-13.91,41.53,35.52L253.51,426l33,31.77L275.2,492.44l-59.22,81,8.71,19.73,7.22,3.83-10.42-22.63,57.25-78.29,43.43-.82,35.57,11.86L323.42,617.8l-17.56-5H261.57l4.79,2.54,1.13,2,37.66.45L326.74,624l36-116.13,21.13-2,61.51,27.62,12.15,41.82-63.24,71.62,28.21,36.71-2.94,19.28,3.75,8.52,4.47-29.14-27-35.15,61.43-69.57,32.29,5.8,6.76,35.71,14.06,4.46,58.93-26.35-4.54,43.16,11.21,20.86,16.27,56.41,5.16-.18-16.78-58.12-10.73-20,4.57-43.43,54.15-58,53.36,29.57-12.47,23.38,74.91,18,4.57-4Zm-184-353.87,7.59-12,88.32-37.07,8.35,45,16.26,9.08,4.31,23.91,28.77.76,23.71,57.58L721,330.82l-30.51,32.45-69,10v30.05L605.61,423.6l14,15.22v55.06l-66-2.53L510.43,465.5,509,426.3l13.58-15.46V392.05l-33-8.14-5.83-10.78,9.39-10.93-23.53-26-29.38,3.47L412,328l27.06-69.64V228.07ZM259.71,189l53.07-39,79.47,24.81-1,1.22L434,209.72v47.67L407,327.1l-28.79,4.75-112-50.16-8.41-83.24-7.08-14.78Zm-5.18,231-35.41,16.21-40.81-34.89,2.47-8.33-46.27-30.84,3.75-46.59-7.08-29.14,19.31-30.22,2.21-18.48,13.56,6,42.07-31.1-15.25-28,28.24-18.23L243,179.13l9.9,20.69,8.62,85.25,116,52,13-2.14,1.79,24.22L317.7,443.93l-10.79,46.63-26,.49,11.31-34.74Zm130.16,80.81L361.11,503l-38.2-12.73-10.87.2,10.23-44.17,75.16-85.42-2-26.76,13-2.15,31,12.83,28.1-3.33,18.84,20.86-8.76,10.2,8.53,15.75L517.55,396v13L503.9,424.5l1.48,39.69-22.31,19.23L446.7,528.61ZM578.07,590,515,618.21l-9.39-3-6.85-36.16-36.86-6.62-11.7-40.2,36.48-45.32,20.4-17.59,45.14,27,67.64,2.6,9.75,35.85Z"/></g></g></svg>