<svg xmlns="http://www.w3.org/2000/svg" viewBox="0 0 152.87 164.62"><defs><style>.cls-1{fill:#0096ff;}</style></defs><title>ElecWindZasób 3</title><g id="Warstwa_2" data-name="Warstwa 2"><g id="Warstwa_1-2" data-name="Warstwa 1"><path class="cls-1" d="M152.71,10.83c-.86-1.73-4.53-.85-4.74-.63C134.54,14.94,68.2,39.61,66.6,40.27a7.22,7.22,0,0,1-3.47-.44c-2-.42-4.1-1.08-5.4-.42-2,.64-3-.44-4.33-2.39a3.32,3.32,0,0,1-.65-1.3c-2-3.45-4.11-7.14-6.29-7.8S15.53,7.82,4.71.25H4.49A7.33,7.33,0,0,0,1.73.05,2,2,0,0,0,.22.68C0,.9,0,.9,0,1.34c0,2,7.14,8.44,8.65,9.73h0L51.51,46.35c0,.86-.22,3.45.66,4.55,0,0,0,.22.2.22v.2a23,23,0,0,1-.2,4l-5,12.11-3.69,5.42c-.2.42-20.54,51.85-23.93,62.1-1.51,4.11-3,9.53-2.17,10.61.22.22.22.22.44.22h.66c1.07-.22,2.59-1.74,4.32-4.55A35.38,35.38,0,0,0,26,135.37c5.43-10.61,29.92-66,32.69-72.49l2.81,3.23-4.33,98.47H75.16C73.86,146.18,68.24,64,66.07,64a5.74,5.74,0,0,0-3.67,1.73l-.22-.22C62.6,64.4,63.89,62.22,68,62a6.78,6.78,0,0,1,5.19,2l.87,8.21h0l9.3,92.41h.87L74.94,73.09,83.59,72l1.3-10-12-14.71,6-2.16a21.78,21.78,0,0,0,8.65-.65c.88-.44,3.69-1.74,8-4C104.19,36.18,118.91,29,137.08,21l13-5.84C150.56,15.18,153.59,12.59,152.71,10.83Zm-3,4-12.78,5.63c-2,.85-4,1.71-5.63,2.59L85.63,40.13a24.5,24.5,0,0,1-7.34.66c-3.25-.44-12.78,4.32-12.78,4.32s.44,4.11,1.73,5,4.11-1.72,5-2.59L83.49,62.14l-1.07,9.1L67.7,55.44a38,38,0,0,1-4,.42c.78-.22,2.18-2.15,2.18-2.15L61.34,52s-.22,2.6-.22,3a16.07,16.07,0,0,0-3.25-1.07A6,6,0,0,1,60,56.3l-2.17,5-33.1,73.56a25.26,25.26,0,0,1-3.09,5.6.2.2,0,0,1-.18.22h0c-2.18.22-.66-3.25-.66-3.25s30.07-79,31.91-80.06,4.32-.42,2.59-1.52A5.22,5.22,0,0,0,52.73,55a14.12,14.12,0,0,0,.21-4.54h0a6.37,6.37,0,0,1,3.69-.22,13.73,13.73,0,0,0,3.23.66c-.85-.44-4.32-1.74-5.4-3.69a7.71,7.71,0,0,1-.44-6c-.42.44-2,2-3.45,1.1-2-1.29-47.18-39-47.18-39A5.14,5.14,0,0,1,1.73.86a3.61,3.61,0,0,1,2.38.22C6.44,2.86,43.23,28.16,46,28.78c2,.44,4.55,5.19,5.85,7.36l.64,1.3c.65,1.07,2.39,4,5.2,2.81a8.59,8.59,0,0,1,5,.66,7.66,7.66,0,0,0,4.32.2c1.74-1.3,58.87-21.94,81-29.92.85-.22,3.23-.65,4,.44C152.51,12.37,150.56,14.1,149.7,14.82Z"/></g></g></svg>