<?xml version="1.0" encoding="UTF-8"?>
<svg enable-background="new 0 0 807.6 769.3" version="1.1" viewBox="0 0 807.6 769.3" xml:space="preserve" xmlns="http://www.w3.org/2000/svg">
<style type="text/css">
	.st0{fill:#FFFFFF;}
	.st1{fill:#EEEEEE;}
	.st2{fill:#5EBBFD;}
</style>
<title>ElecWindZasób 2</title>

	
		<polygon class="st0" points="0 253.6 32.3 110.6 165.9 79.1 217.9 26.4 331.9 0 378.7 37.4 394.9 41.7 390.6 49.4 365.1 46.8 354 36.6 341.3 33.2 362.5 74.9 511.5 69.8 645.9 74 668 50.2 722.5 92.8 772.7 262.1 725.9 329.3 754.8 354 748.9 437.4 807.6 557.4 719.9 634.8 693.6 695.3 707.2 769.3 693.6 769.3 604.2 717.4 505.5 720.8 457 754.8 442.5 754.8 419.5 702.9 378.7 724.2 314 647.6 293.6 664.6 266.4 615.3 224.7 593.1 218.7 645.9 190.6 645 165.9 611.9 160.8 576.1 91.1 514.8 51.9 515.7 58.7 453.6 34 411.9 40 308.9"/>
		<path class="st1" d="m681.9 587.5 11.7-22-59.4-32.9-9.5-35v-60.7l-12.5-13.5 14.3-18.3v-27.4l66.5-9.7 34.8-37-1.9-1.6 1.5-2.2-48.6-10.5-23.9-58.2-28-0.7-4-22.2-16.3-9.1-7.8-42.3 13 1.9 71.2-45.7 3.9-18.9-16.2-17.8-21.2-33.3-3.5 3.8 20.7 32.4 14.9 16.4-2.9 14.4-67.9 43.6-15.3-2.2-93.3 39.2-6.8 10.7-56.3-5.3v-15.8l-39.3-31 32.2-46.1-17.5-27.1v-30l-5 0.2v31.4l16.5 25.5-28.6 41-85.4-26.7-52.6 38.2-35.6-20.9v-50.1l-5.8-23.2 16.3-30-11.5-33.6-4.9 1.1 10.9 32.2-16.1 29.6 6.1 24.5v49.5l-32.3 20.9 15.4 28.2-36.3 26.8-15-6.7-62.3 28.1-29.4-8-22.3 52.7 3.4 4.7 22-51.5 26.8 7.3 58.9-26.6-2 16.3-19.8 31.1 7.4 30.4-3.9 48.7 45.6 30.4-5.5 18.5-23.8-10.7-28.4 34.4-21.5-3.1-39.8 15.1 2.7 4.5 37.8-14.4 22.8 3.5 27.8-33.6 25.5 11.5 4.1-13.9 41.5 35.5 35.2-16.1 33 31.8-11.3 34.7-59.2 81 8.7 19.7 7.2 3.8-10.4-22.6 57.3-78.3 43.4-0.8 35.6 11.9-34.3 110.7-17.6-5h-44.3l4.8 2.5 1.1 2 37.7 0.5 21.6 6.2 36-116.1 21.1-2 61.5 27.6 12.1 41.8-63.2 71.6 28.2 36.7-2.9 19.3 3.8 8.5 4.5-29.1-27-35.2 61.4-69.6 32.3 5.8 6.8 35.7 14.1 4.5 58.9-26.3-4.5 43.2 11.2 20.9 16.3 56.4 5.2-0.2-16.8-58.1-10.7-20 4.6-43.4 54.2-58 53.4 29.6-12.5 23.4 74.9 18 4.6-4-72.3-17.7zm-184-353.9 7.6-12 88.3-37.1 8.3 45 16.3 9.1 4.3 23.9 28.8 0.8 23.7 57.6 45.8 9.9-30.5 32.5-69 10v30l-15.9 20.3 14 15.2v55.1l-66-2.5-43.2-25.9-1.4-39.2 13.6-15.5v-18.8l-33-8.1-5.8-10.8 9.4-10.9-23.5-26-29.4 3.5-28.3-11.7 27.1-69.6v-30.3l58.8 5.5zm-238.2-44.6 53.1-39 79.5 24.8-1 1.2 42.8 33.7v47.7l-27 69.7-28.8 4.8-112-50.2-8.4-83.2-7.1-14.8 8.9 5.3zm-5.2 231-35.4 16.2-40.8-34.9 2.5-8.3-46.3-30.8 3.8-46.6-7.1-29.1 19.3-30.2 2.2-18.5 13.6 6 42.1-31.1-15.3-28 28.2-18.2 21.7 12.7 9.9 20.7 8.6 85.3 116 52 13-2.1 1.8 24.2-74.6 84.8-10.8 46.6-26 0.5 11.3-34.7-37.7-36.5zm130.2 80.8-23.6 2.2-38.2-12.7-10.9 0.2 10.2-44.2 75.2-85.4-2-26.8 13-2.1 31 12.8 28.1-3.3 18.8 20.9-8.8 10.2 8.5 15.8 31.4 7.7v13l-13.6 15.5 1.5 39.7-22.3 19.2-36.4 45.2-61.9-27.9zm193.4 89.2-63.1 28.2-9.4-3-6.9-36.2-36.9-6.6-11.7-40.2 36.5-45.3 20.4-17.6 45.1 27 67.6 2.6 9.8 35.8-51.4 55.3z"/>
	


	
		<path class="st2" d="m83.5 104.3c-0.4-0.8-2.1-0.4-2.2-0.3-6.1 2.2-36.5 13.5-37.3 13.8-0.5 0.1-1.1 0-1.6-0.2-0.9-0.2-1.9-0.5-2.5-0.2-0.9 0.3-1.4-0.2-2-1.1l-0.3-0.6c-0.9-1.6-1.9-3.3-2.9-3.6s-14.2-9.2-19.1-12.7h-0.1c-0.4-0.1-0.8-0.1-1.3-0.1-0.3 0-0.5 0.1-0.7 0.3-0.1 0.1-0.1 0.1-0.1 0.3 0 0.9 3.3 3.9 4 4.5l19.6 16.2c0 0.4-0.1 1.6 0.3 2.1 0 0 0 0.1 0.1 0.1v0.1c0 0.6 0 1.2-0.1 1.8l-2.3 5.5-1.7 2.5c-0.1 0.2-9.4 23.7-11 28.4-0.7 1.9-1.4 4.4-1 4.9 0.1 0.1 0.1 0.1 0.2 0.1h0.5c0.5-0.1 1.2-0.8 2-2.1 0.6-0.8 1.1-1.7 1.5-2.7 2.5-4.9 13.7-30.2 15-33.2l1.3 1.5-2 45.1h8.2c-0.6-8.4-3.2-46.1-4.2-46.1-0.6 0.1-1.2 0.3-1.7 0.8l-0.1-0.1c0.2-0.5 0.8-1.5 2.7-1.6 0.9 0 1.8 0.3 2.4 0.9l0.4 3.8 4.3 42.3h0.4l-4.3-41.9 4-0.5 0.6-4.6-5.5-6.7 2.7-1c1.3 0.2 2.7 0.1 4-0.3 0.4-0.2 1.7-0.8 3.7-1.8 4-2 10.7-5.3 19-8.9l6-2.7c0.1 0 1.5-1.2 1.1-2zm-1.4 1.8-5.9 2.6c-0.9 0.4-1.8 0.8-2.6 1.2l-20.9 7.8c-1.1 0.3-2.2 0.4-3.4 0.3-1.5-0.2-5.9 2-5.9 2s0.2 1.9 0.8 2.3 1.9-0.8 2.3-1.2l5.2 6.7-0.5 4.2-6.7-7.2c-0.6 0.1-1.2 0.2-1.8 0.2 0.4-0.1 1-1 1-1l-2.1-0.8s-0.1 1.2-0.1 1.4c-0.5-0.2-1-0.4-1.5-0.5 0.4 0.3 0.8 0.6 1 1.1l-1 2.3-15.2 33.7c-0.4 0.9-0.8 1.8-1.4 2.6 0 0.1 0 0.1-0.1 0.1-1 0.1-0.3-1.5-0.3-1.5s13.8-36.2 14.6-36.7 2-0.2 1.2-0.7c-0.4-0.2-0.8-0.4-1.2-0.4 0.1-0.7 0.2-1.4 0.1-2.1 0.5-0.2 1.1-0.2 1.7-0.1 0.5 0.2 1 0.3 1.5 0.3-0.4-0.2-2-0.8-2.5-1.7-0.4-0.9-0.5-1.8-0.2-2.7-0.2 0.2-0.9 0.9-1.6 0.5-0.9-0.6-21.6-17.9-21.6-17.9-0.4-0.3-0.6-0.7-0.8-1.1 0.4-0.1 0.7-0.1 1.1 0.1 1.1 0.8 17.9 12.4 19.2 12.7 0.9 0.2 2.1 2.4 2.7 3.4l0.3 0.6c0.3 0.5 1.1 1.8 2.4 1.3 0.8-0.1 1.6 0 2.3 0.3 0.6 0.2 1.3 0.3 2 0.1 0.8-0.6 27-10 37.1-13.7 0.4-0.1 1.5-0.3 1.8 0.2 0.3 0.2-0.6 1-1 1.3z"/>
	


	
		<path class="st2" d="m635.7 328.7c-0.4-0.8-2.1-0.4-2.2-0.3-6.1 2.2-36.5 13.5-37.3 13.8-0.5 0.1-1.1 0-1.6-0.2-0.9-0.2-1.9-0.5-2.5-0.2-0.9 0.3-1.4-0.2-2-1.1l-0.3-0.6c-0.9-1.6-1.9-3.3-2.9-3.6s-14.2-9.2-19.1-12.7h-0.1c-0.4-0.1-0.8-0.1-1.3-0.1-0.3 0-0.5 0.1-0.7 0.3-0.1 0.1-0.1 0.1-0.1 0.3 0 0.9 3.3 3.9 4 4.5l19.6 16.2c0 0.4-0.1 1.6 0.3 2.1 0 0 0 0.1 0.1 0.1v0.1c0 0.6 0 1.2-0.1 1.8l-2.3 5.5-1.7 2.5c-0.1 0.2-9.4 23.7-11 28.4-0.7 1.9-1.4 4.4-1 4.9 0.1 0.1 0.1 0.1 0.2 0.1h0.3c0.5-0.1 1.2-0.8 2-2.1 0.6-0.8 1.1-1.7 1.5-2.7 2.5-4.9 13.7-30.2 15-33.2l1.3 1.5-2 45.1h8.2c-0.6-8.4-3.2-46.1-4.2-46.1-0.6 0.1-1.2 0.3-1.7 0.8l-0.1-0.1c0.2-0.5 0.8-1.5 2.7-1.6 0.9 0 1.8 0.3 2.4 0.9l0.4 3.8 4.3 42.3h0.4l-4.3-41.9 4-0.5 0.6-4.6-5.5-6.7 2.7-1c1.3 0.2 2.7 0.1 4-0.3 0.4-0.2 1.7-0.8 3.7-1.8 4-2 10.7-5.3 19-8.9l6-2.7c0.4 0 1.7-1.2 1.3-2zm-1.3 1.8-5.9 2.6c-0.9 0.4-1.8 0.8-2.6 1.2l-20.9 7.8c-1.1 0.3-2.2 0.4-3.4 0.3-1.5-0.2-5.9 2-5.9 2s0.2 1.9 0.8 2.3 1.9-0.8 2.3-1.2l5.2 6.7-0.5 4.2-6.7-7.2c-0.6 0.1-1.2 0.2-1.8 0.2 0.4-0.1 1-1 1-1l-2.1-0.8s-0.1 1.2-0.1 1.4c-0.5-0.2-1-0.4-1.5-0.5 0.4 0.3 0.8 0.6 1 1.1l-1 2.3-15.2 33.7c-0.4 0.9-0.8 1.8-1.4 2.6 0 0.1 0 0.1-0.1 0.1-1 0.1-0.3-1.5-0.3-1.5s13.8-36.2 14.6-36.7 2-0.2 1.2-0.7c-0.4-0.2-0.8-0.4-1.2-0.4 0.1-0.7 0.2-1.4 0.1-2.1 0.5-0.2 1.1-0.2 1.7-0.1 0.5 0.2 1 0.3 1.5 0.3-0.4-0.2-2-0.8-2.5-1.7-0.4-0.9-0.5-1.8-0.2-2.7-0.2 0.2-0.9 0.9-1.6 0.5-0.9-0.6-21.6-17.9-21.6-17.9-0.4-0.3-0.6-0.7-0.8-1.1 0.4-0.1 0.7-0.1 1.1 0.1 1.1 0.8 17.9 12.4 19.2 12.7 0.9 0.2 2.1 2.4 2.7 3.4l0.3 0.6c0.3 0.5 1.1 1.8 2.4 1.3 0.8-0.1 1.6 0 2.3 0.3 0.6 0.2 1.3 0.3 2 0.1 0.8-0.6 27-10 37.1-13.7 0.4-0.1 1.5-0.3 1.8 0.2 0.3 0.2-0.6 1-1 1.3z"/>
	


	
		<path class="st2" d="m412.1 601.4c-0.4-0.8-2.1-0.4-2.2-0.3-6.1 2.2-36.5 13.5-37.3 13.8-0.5 0.1-1.1 0-1.6-0.2-0.9-0.2-1.9-0.5-2.5-0.2-0.9 0.3-1.4-0.2-2-1.1l-0.3-0.6c-0.9-1.6-1.9-3.3-2.9-3.6s-14.2-9.2-19.1-12.7h-0.1c-0.4-0.1-0.8-0.1-1.3-0.1-0.3 0-0.5 0.1-0.7 0.3-0.1 0.1-0.1 0.1-0.1 0.3 0 0.9 3.3 3.9 4 4.5l19.6 16.2c0 0.4-0.1 1.6 0.3 2.1 0 0 0 0.1 0.1 0.1v0.1c0 0.6 0 1.2-0.1 1.8l-2.3 5.5-1.7 2.5c-0.1 0.2-9.4 23.7-11 28.4-0.7 1.9-1.4 4.4-1 4.9 0.1 0.1 0.1 0.1 0.2 0.1h0.3c0.5-0.1 1.2-0.8 2-2.1 0.6-0.8 1.1-1.7 1.5-2.7 2.5-4.9 13.7-30.2 15-33.2l1.3 1.5-2 45.1h8.2c-0.6-8.4-3.2-46.1-4.2-46.1-0.6 0.1-1.2 0.3-1.7 0.8l-0.1-0.1c0.2-0.5 0.8-1.5 2.7-1.6 0.9 0 1.8 0.3 2.4 0.9l0.4 3.8 4.3 42.3h0.4l-4.3-41.9 4-0.5 0.6-4.6-5.5-6.7 2.7-1c1.3 0.2 2.7 0.1 4-0.3 0.4-0.2 1.7-0.8 3.7-1.8 4-2 10.7-5.3 19-8.9l6-2.7c0.3 0 1.7-1.2 1.3-2zm-1.4 1.8-5.9 2.6c-0.9 0.4-1.8 0.8-2.6 1.2l-20.9 7.8c-1.1 0.3-2.2 0.4-3.4 0.3-1.5-0.2-5.9 2-5.9 2s0.2 1.9 0.8 2.3 1.9-0.8 2.3-1.2l5.2 6.7-0.5 4.2-6.7-7.2c-0.6 0.1-1.2 0.2-1.8 0.2 0.4-0.1 1-1 1-1l-2.1-0.8s-0.1 1.2-0.1 1.4c-0.5-0.2-1-0.4-1.5-0.5 0.4 0.3 0.8 0.6 1 1.1l-1 2.3-15.2 33.7c-0.4 0.9-0.8 1.8-1.4 2.6 0 0.1 0 0.1-0.1 0.1-1 0.1-0.3-1.5-0.3-1.5s13.8-36.2 14.6-36.7 2-0.2 1.2-0.7c-0.4-0.2-0.8-0.4-1.2-0.4 0.1-0.7 0.2-1.4 0.1-2.1 0.5-0.2 1.1-0.2 1.7-0.1 0.5 0.2 1 0.3 1.5 0.3-0.4-0.2-2-0.8-2.5-1.7-0.4-0.9-0.5-1.8-0.2-2.7-0.2 0.2-0.9 0.9-1.6 0.5-0.9-0.6-21.6-17.9-21.6-17.9-0.4-0.3-0.6-0.7-0.8-1.1 0.4-0.1 0.7-0.1 1.1 0.1 1.1 0.8 17.9 12.4 19.2 12.7 0.9 0.2 2.1 2.4 2.7 3.4l0.3 0.6c0.3 0.5 1.1 1.8 2.4 1.3 0.8-0.1 1.6 0 2.3 0.3 0.6 0.2 1.3 0.3 2 0.1 0.8-0.6 27-10 37.1-13.7 0.4-0.1 1.5-0.3 1.8 0.2 0.3 0.2-0.6 1-1 1.3z"/>
	

</svg>
