<?xml version="1.0" encoding="utf-8"?>
<!-- Generator: Adobe Illustrator 23.0.1, SVG Export Plug-In . SVG Version: 6.00 Build 0)  -->
<svg version="1.1" id="Warstwa_1" xmlns="http://www.w3.org/2000/svg" xmlns:xlink="http://www.w3.org/1999/xlink" x="0px" y="0px"
	 viewBox="0 0 1288.8 404.3" style="enable-background:new 0 0 1288.8 404.3;" xml:space="preserve">
<style type="text/css">
	.st0{fill:url(#SVGID_1_);}
	.st1{fill:#FFFFFF;}
	.st2{fill:#96C8FF;}
	.st3{fill:url(#SVGID_2_);}
	.st4{fill:#333333;}
	.st5{fill:#0096FF;}
</style>
<title>ElecWindZasób 1</title>
<linearGradient id="SVGID_1_" gradientUnits="userSpaceOnUse" x1="50" y1="-257.85" x2="892.5" y2="-257.85" gradientTransform="matrix(1 0 0 1 0 410)">
	<stop  offset="0" style="stop-color:#FFFFFF"/>
	<stop  offset="1" style="stop-color:#F6F6F6;stop-opacity:0"/>
</linearGradient>
<rect x="50" class="st0" width="842.5" height="304.3"/>
<path class="st1" d="M50,301.8c-26.2,0-47.5-21.3-47.5-47.5V50C2.5,23.8,23.8,2.5,50,2.5h343.8v298.8c0,0.3-0.2,0.5-0.5,0.5H50z"/>
<path class="st2" d="M391.3,5v294.3H50c-24.8,0-45-20.2-45-45V50C5,25.2,25.2,5,50,5H391.3 M396.3,0H50C22.4,0,0,22.4,0,50v204.3
	c0,27.6,22.4,50,50,50l0,0h343.3c1.7,0,3-1.3,3-3V0z"/>
<linearGradient id="SVGID_2_" gradientUnits="userSpaceOnUse" x1="3462.6699" y1="-1910.92" x2="2613.1699" y2="-1910.92" gradientTransform="matrix(-1 0 0 -1 3851.97 -1658.77)">
	<stop  offset="0" style="stop-color:#F6F6F6;stop-opacity:0"/>
	<stop  offset="1" style="stop-color:#FFFFFF"/>
</linearGradient>
<rect x="389.3" y="100" class="st3" width="849.5" height="304.3"/>
<path class="st1" d="M895,401.8V102.5h343.8c26.2,0,47.5,21.3,47.5,47.5v204.3c0,26.2-21.3,47.5-47.5,47.5H895z"/>
<path class="st2" d="M1238.8,105c24.8,0,45,20.2,45,45v204.3c0,24.8-20.2,45-45,45H897.5V105H1238.8 M1238.8,100H892.5v304.3h346.3
	c27.6,0,50-22.4,50-50l0,0l0,0V150C1288.8,122.4,1266.4,100,1238.8,100z"/>
<rect x="448.8" y="52.5" class="st1" width="391.3" height="299.3"/>
<path class="st2" d="M837.5,55v294.3H451.3V55H837.5 M842.5,50H446.3v304.3h396.3L842.5,50L842.5,50z"/>
<g>
	<path class="st4" d="M47.7,108.7v-2.3l15.6-24.3H49.1v-3.2h18.9v2.2l-15.7,24.3h15.8v3.2H47.7z"/>
	<path class="st4" d="M70,108.7l10.1-29.7h4.3l10.1,29.7h-4l-2.8-9.1H76.7l-2.9,9.1H70z M79.1,92l-1.4,4.5h8.9L85.2,92
		c-0.5-1.7-1.1-3.3-1.5-5c-0.5-1.6-1-3.3-1.5-5.1H82c-0.5,1.7-0.9,3.4-1.4,5.1C80.1,88.7,79.6,90.4,79.1,92z"/>
	<path class="st4" d="M106.9,109.2c-2.1,0-4-0.4-5.8-1.2c-1.8-0.8-3.3-1.9-4.6-3.2l2.3-2.6c1.1,1.1,2.3,2,3.7,2.7
		c1.4,0.7,2.9,1,4.5,1c2,0,3.5-0.4,4.6-1.3c1.1-0.9,1.6-2.1,1.6-3.5c0-0.8-0.1-1.4-0.4-1.9c-0.3-0.5-0.6-1-1-1.4
		c-0.4-0.4-1-0.7-1.6-1c-0.6-0.3-1.3-0.6-1.9-1l-4.3-1.9c-0.7-0.3-1.4-0.7-2.1-1.1c-0.7-0.4-1.4-0.9-1.9-1.5c-0.6-0.6-1-1.3-1.4-2.2
		c-0.4-0.8-0.5-1.8-0.5-2.9c0-1.1,0.2-2.2,0.7-3.1c0.5-1,1.1-1.8,1.9-2.5c0.8-0.7,1.8-1.3,2.9-1.7c1.1-0.4,2.4-0.6,3.7-0.6
		c1.8,0,3.4,0.3,4.9,1c1.5,0.7,2.8,1.6,3.9,2.7l-2,2.4c-0.9-0.9-1.9-1.6-3-2.1c-1.1-0.5-2.4-0.7-3.7-0.7c-1.7,0-3,0.4-4,1.2
		c-1,0.8-1.5,1.8-1.5,3.2c0,0.7,0.1,1.3,0.4,1.8c0.3,0.5,0.7,0.9,1.2,1.3c0.5,0.4,1,0.7,1.6,1c0.6,0.3,1.2,0.6,1.8,0.8l4.2,1.8
		c0.8,0.4,1.6,0.8,2.4,1.2c0.8,0.5,1.4,1,1.9,1.6c0.5,0.6,1,1.3,1.3,2.2c0.3,0.8,0.5,1.8,0.5,2.9c0,1.2-0.2,2.3-0.7,3.3
		c-0.5,1-1.1,1.9-2,2.7c-0.9,0.8-1.9,1.4-3.2,1.8C109.8,109,108.4,109.2,106.9,109.2z"/>
	<path class="st4" d="M128.1,108.7V82.1h-9v-3.2h21.8v3.2h-9v26.6H128.1z"/>
	<path class="st4" d="M156.1,109.2c-1.9,0-3.6-0.4-5.1-1.1c-1.6-0.7-2.9-1.8-4-3.1c-1.1-1.3-2-3-2.6-4.9c-0.6-1.9-0.9-4.1-0.9-6.5
		c0-2.4,0.3-4.5,0.9-6.4c0.6-1.9,1.5-3.5,2.6-4.8c1.1-1.3,2.5-2.3,4-3c1.6-0.7,3.3-1,5.1-1c1.9,0,3.6,0.4,5.1,1.1
		c1.6,0.7,2.9,1.7,4,3c1.1,1.3,2,2.9,2.6,4.8c0.6,1.9,0.9,4,0.9,6.4c0,2.4-0.3,4.5-0.9,6.5c-0.6,1.9-1.5,3.6-2.6,4.9
		c-1.1,1.3-2.5,2.4-4,3.1C159.7,108.9,158,109.2,156.1,109.2z M156.1,105.9c1.3,0,2.5-0.3,3.6-0.9c1.1-0.6,2-1.4,2.8-2.5
		c0.8-1.1,1.4-2.4,1.8-3.9c0.4-1.5,0.6-3.2,0.6-5.1c0-1.8-0.2-3.5-0.6-5c-0.4-1.5-1-2.7-1.8-3.8s-1.7-1.8-2.8-2.4
		c-1.1-0.6-2.3-0.8-3.6-0.8c-1.3,0-2.5,0.3-3.6,0.8c-1.1,0.6-2,1.4-2.8,2.4s-1.4,2.3-1.8,3.8c-0.4,1.5-0.6,3.1-0.6,5
		c0,1.9,0.2,3.6,0.6,5.1c0.4,1.5,1,2.8,1.8,3.9c0.8,1.1,1.7,1.9,2.8,2.5C153.6,105.6,154.8,105.9,156.1,105.9z"/>
	<path class="st4" d="M183.5,109.2c-2.1,0-4-0.4-5.8-1.2c-1.8-0.8-3.3-1.9-4.6-3.2l2.3-2.6c1.1,1.1,2.3,2,3.7,2.7
		c1.4,0.7,2.9,1,4.5,1c2,0,3.5-0.4,4.6-1.3c1.1-0.9,1.6-2.1,1.6-3.5c0-0.8-0.1-1.4-0.4-1.9c-0.3-0.5-0.6-1-1-1.4
		c-0.4-0.4-1-0.7-1.6-1c-0.6-0.3-1.3-0.6-1.9-1l-4.3-1.9c-0.7-0.3-1.4-0.7-2.1-1.1c-0.7-0.4-1.4-0.9-1.9-1.5c-0.6-0.6-1-1.3-1.4-2.2
		c-0.4-0.8-0.5-1.8-0.5-2.9c0-1.1,0.2-2.2,0.7-3.1c0.5-1,1.1-1.8,1.9-2.5c0.8-0.7,1.8-1.3,2.9-1.7c1.1-0.4,2.4-0.6,3.7-0.6
		c1.8,0,3.4,0.3,4.9,1c1.5,0.7,2.8,1.6,3.9,2.7l-2,2.4c-0.9-0.9-1.9-1.6-3-2.1c-1.1-0.5-2.4-0.7-3.7-0.7c-1.7,0-3,0.4-4,1.2
		c-1,0.8-1.5,1.8-1.5,3.2c0,0.7,0.1,1.3,0.4,1.8c0.3,0.5,0.7,0.9,1.2,1.3c0.5,0.4,1,0.7,1.6,1c0.6,0.3,1.2,0.6,1.8,0.8l4.2,1.8
		c0.8,0.4,1.6,0.8,2.4,1.2c0.8,0.5,1.4,1,1.9,1.6c0.5,0.6,1,1.3,1.3,2.2c0.3,0.8,0.5,1.8,0.5,2.9c0,1.2-0.2,2.3-0.7,3.3
		c-0.5,1-1.1,1.9-2,2.7c-0.9,0.8-1.9,1.4-3.2,1.8C186.4,109,185,109.2,183.5,109.2z"/>
	<path class="st4" d="M210.4,109.2c-1.9,0-3.6-0.4-5.1-1.1c-1.6-0.7-2.9-1.8-4-3.1c-1.1-1.3-2-3-2.6-4.9c-0.6-1.9-0.9-4.1-0.9-6.5
		c0-2.4,0.3-4.5,0.9-6.4c0.6-1.9,1.5-3.5,2.6-4.8c1.1-1.3,2.5-2.3,4-3c1.6-0.7,3.3-1,5.1-1c1.9,0,3.6,0.4,5.1,1.1
		c1.6,0.7,2.9,1.7,4,3c1.1,1.3,2,2.9,2.6,4.8c0.6,1.9,0.9,4,0.9,6.4c0,2.4-0.3,4.5-0.9,6.5c-0.6,1.9-1.5,3.6-2.6,4.9
		c-1.1,1.3-2.5,2.4-4,3.1C214,108.9,212.3,109.2,210.4,109.2z M210.4,105.9c1.3,0,2.5-0.3,3.6-0.9c1.1-0.6,2-1.4,2.8-2.5
		c0.8-1.1,1.4-2.4,1.8-3.9c0.4-1.5,0.6-3.2,0.6-5.1c0-1.8-0.2-3.5-0.6-5c-0.4-1.5-1-2.7-1.8-3.8s-1.7-1.8-2.8-2.4
		c-1.1-0.6-2.3-0.8-3.6-0.8c-1.3,0-2.5,0.3-3.6,0.8c-1.1,0.6-2,1.4-2.8,2.4s-1.4,2.3-1.8,3.8c-0.4,1.5-0.6,3.1-0.6,5
		c0,1.9,0.2,3.6,0.6,5.1c0.4,1.5,1,2.8,1.8,3.9c0.8,1.1,1.7,1.9,2.8,2.5C207.9,105.6,209.1,105.9,210.4,105.9z"/>
	<path class="st4" d="M232.5,108.7l-6.3-29.7h3.9l3.1,16.2c0.3,1.6,0.6,3.2,0.9,4.8c0.3,1.6,0.6,3.2,0.9,4.8h0.2
		c0.3-1.6,0.7-3.2,1-4.8c0.4-1.6,0.7-3.2,1-4.8l4.1-16.2h3.4l4.1,16.2c0.4,1.6,0.7,3.2,1.1,4.8c0.4,1.6,0.7,3.2,1.1,4.9h0.2
		c0.3-1.6,0.5-3.2,0.8-4.8c0.3-1.6,0.6-3.2,0.9-4.8l3.1-16.2h3.6l-6.2,29.7H249l-4.5-17.9c-0.3-1.1-0.5-2.3-0.7-3.4
		c-0.2-1.1-0.5-2.2-0.7-3.4h-0.2c-0.2,1.1-0.5,2.3-0.7,3.4c-0.3,1.1-0.5,2.2-0.7,3.4l-4.4,17.9H232.5z"/>
	<path class="st4" d="M260.9,108.7L271,78.9h4.3l10.1,29.7h-4l-2.8-9.1h-10.8l-2.9,9.1H260.9z M270,92l-1.4,4.5h8.9l-1.4-4.5
		c-0.5-1.7-1.1-3.3-1.5-5c-0.5-1.6-1-3.3-1.5-5.1h-0.2c-0.5,1.7-0.9,3.4-1.4,5.1C271.1,88.7,270.5,90.4,270,92z"/>
	<path class="st4" d="M289.5,108.7V78.9h3.9l10.7,18.7l3.2,6.2h0.2c-0.1-1.5-0.2-3.1-0.3-4.7c-0.1-1.6-0.2-3.2-0.2-4.8V78.9h3.6
		v29.7h-3.9L296,90l-3.2-6.1h-0.2c0.1,1.5,0.2,3,0.3,4.6c0.1,1.6,0.2,3.1,0.2,4.7v15.5H289.5z"/>
	<path class="st4" d="M318.9,108.7V78.9h3.8v29.7H318.9z"/>
	<path class="st4" d="M330.8,108.7V78.9h17.1v3.2h-13.4v9.3h11.3v3.2h-11.3v10.8h13.8v3.2H330.8z"/>
</g>
<g>
	<path class="st5" d="M91.3,181.8v-27.6H94l0.3,2.2h0.1c0.9-0.7,1.8-1.4,2.9-1.9c1.1-0.5,2.2-0.8,3.3-0.8c1.3,0,2.4,0.2,3.3,0.7
		c1,0.5,1.8,1.1,2.4,2c0.6,0.9,1.1,1.9,1.5,3.1c0.3,1.2,0.5,2.6,0.5,4.1c0,1.7-0.2,3.1-0.7,4.4c-0.5,1.3-1.1,2.4-1.8,3.3
		c-0.8,0.9-1.7,1.6-2.7,2.1c-1,0.5-2.1,0.7-3.2,0.7c-0.9,0-1.8-0.2-2.7-0.6c-0.9-0.4-1.8-0.9-2.7-1.6l0.1,3.4v6.6H91.3z M99.4,171.3
		c0.8,0,1.5-0.2,2.2-0.5c0.7-0.4,1.3-0.9,1.8-1.5c0.5-0.7,0.9-1.5,1.2-2.4c0.3-1,0.4-2,0.4-3.2c0-1.1-0.1-2-0.3-2.9
		c-0.2-0.9-0.5-1.6-0.9-2.3c-0.4-0.6-0.9-1.1-1.6-1.5c-0.7-0.3-1.4-0.5-2.3-0.5c-0.8,0-1.7,0.2-2.5,0.7c-0.8,0.5-1.7,1.1-2.7,2v10.2
		c0.9,0.7,1.7,1.3,2.6,1.6C98,171.1,98.7,171.3,99.4,171.3z"/>
	<path class="st5" d="M113.5,173.6v-19.4h2.7l0.3,3.5h0.1c0.7-1.2,1.5-2.2,2.4-2.9c0.9-0.7,2-1.1,3.1-1.1c0.8,0,1.5,0.1,2.1,0.4
		l-0.6,2.9c-0.3-0.1-0.6-0.2-0.9-0.2c-0.3-0.1-0.6-0.1-1-0.1c-0.8,0-1.7,0.3-2.6,1c-0.9,0.7-1.7,1.8-2.3,3.5v12.5H113.5z"/>
	<path class="st5" d="M125.2,173.6v-1.8l10.2-15h-9.1v-2.7h13.3v1.8l-10.2,15h10.6v2.7H125.2z"/>
	<path class="st5" d="M144.4,181.9c-0.5,0-0.9,0-1.2-0.1c-0.4-0.1-0.7-0.2-1-0.3l0.6-2.6c0.2,0.1,0.5,0.1,0.7,0.2
		c0.3,0.1,0.5,0.1,0.8,0.1c1.1,0,2-0.4,2.7-1.2c0.7-0.8,1.3-1.8,1.7-3l0.4-1.4l-7.8-19.5h3.4l4,10.8c0.3,0.9,0.6,1.8,0.9,2.7
		c0.3,0.9,0.6,1.9,0.9,2.8h0.2c0.3-0.9,0.6-1.8,0.8-2.8c0.3-1,0.5-1.9,0.8-2.7l3.5-10.8h3.2l-7.3,21c-0.3,1-0.7,1.9-1.2,2.7
		c-0.4,0.8-0.9,1.5-1.5,2.1c-0.6,0.6-1.3,1.1-2,1.4C146.2,181.8,145.4,181.9,144.4,181.9z"/>
	<path class="st5" d="M169.2,174c-2.5,0-4.4-0.9-5.9-2.6c-1.5-1.8-2.2-4.3-2.2-7.5c0-1.6,0.2-3,0.7-4.3c0.5-1.3,1.1-2.3,1.9-3.2
		c0.8-0.9,1.7-1.6,2.7-2c1-0.5,2.1-0.7,3.2-0.7c1.1,0,2.1,0.2,2.9,0.6c0.8,0.4,1.7,0.9,2.5,1.6l-0.2-3.3v-7.5h3.3v28.5h-2.7
		l-0.3-2.3h-0.1c-0.8,0.7-1.7,1.4-2.7,1.9C171.5,173.8,170.4,174,169.2,174z M170,171.3c0.9,0,1.8-0.2,2.6-0.7
		c0.8-0.4,1.6-1.1,2.4-2v-10.2c-0.8-0.7-1.6-1.3-2.4-1.6c-0.8-0.3-1.5-0.5-2.3-0.5c-0.8,0-1.5,0.2-2.2,0.5c-0.7,0.4-1.3,0.9-1.8,1.5
		c-0.5,0.7-0.9,1.4-1.2,2.3c-0.3,0.9-0.4,1.9-0.4,3c0,2.3,0.5,4.2,1.4,5.5C166.9,170.6,168.2,171.3,170,171.3z"/>
	<path class="st5" d="M192.4,174c-1.2,0-2.3-0.2-3.4-0.7s-2-1.1-2.9-2c-0.8-0.9-1.5-1.9-2-3.2c-0.5-1.3-0.7-2.7-0.7-4.3
		c0-1.6,0.2-3.1,0.7-4.3c0.5-1.3,1.2-2.3,2-3.2c0.8-0.9,1.8-1.5,2.9-2c1.1-0.5,2.2-0.7,3.4-0.7c1.2,0,2.3,0.2,3.4,0.7
		c1.1,0.5,2,1.1,2.9,2c0.8,0.9,1.5,2,2,3.2c0.5,1.3,0.7,2.7,0.7,4.3c0,1.6-0.2,3-0.7,4.3c-0.5,1.3-1.2,2.3-2,3.2
		c-0.8,0.9-1.8,1.5-2.9,2C194.7,173.8,193.6,174,192.4,174z M192.4,171.3c0.8,0,1.6-0.2,2.3-0.5c0.7-0.4,1.3-0.9,1.8-1.5
		c0.5-0.7,0.9-1.4,1.1-2.3c0.3-0.9,0.4-1.9,0.4-3c0-1.1-0.1-2.1-0.4-3.1c-0.3-0.9-0.6-1.7-1.1-2.4c-0.5-0.7-1.1-1.2-1.8-1.5
		c-0.7-0.4-1.5-0.5-2.3-0.5c-0.8,0-1.6,0.2-2.3,0.5c-0.7,0.4-1.3,0.9-1.8,1.5c-0.5,0.7-0.9,1.5-1.1,2.4c-0.3,0.9-0.4,1.9-0.4,3.1
		c0,1.1,0.1,2.1,0.4,3c0.3,0.9,0.6,1.7,1.1,2.3c0.5,0.7,1.1,1.2,1.8,1.5C190.8,171.1,191.5,171.3,192.4,171.3z"/>
	<path class="st5" d="M206.5,173.6v-19.4h2.7l0.3,2.8h0.1c0.9-0.9,1.8-1.7,2.8-2.3c1-0.6,2.1-0.9,3.3-0.9c1.5,0,2.7,0.3,3.5,1
		c0.8,0.7,1.5,1.6,1.9,2.7c1-1.1,2-2,3.1-2.7c1-0.7,2.1-1,3.3-1c2,0,3.5,0.6,4.5,1.9c1,1.3,1.5,3.2,1.5,5.7v12.3H230v-11.9
		c0-1.8-0.3-3.2-0.9-4c-0.6-0.8-1.5-1.2-2.7-1.2c-1.5,0-3.1,1-4.9,3v14.1h-3.3v-11.9c0-1.8-0.3-3.2-0.9-4c-0.6-0.8-1.5-1.2-2.8-1.2
		c-1.5,0-3.1,1-4.9,3v14.1H206.5z"/>
	<path class="st5" d="M247.2,174c-1.2,0-2.3-0.2-3.4-0.7s-2-1.1-2.9-2c-0.8-0.9-1.5-1.9-2-3.2c-0.5-1.3-0.7-2.7-0.7-4.3
		c0-1.6,0.2-3.1,0.7-4.3c0.5-1.3,1.2-2.3,2-3.2c0.8-0.9,1.8-1.5,2.9-2c1.1-0.5,2.2-0.7,3.4-0.7c1.2,0,2.3,0.2,3.4,0.7
		c1.1,0.5,2,1.1,2.9,2c0.8,0.9,1.5,2,2,3.2c0.5,1.3,0.7,2.7,0.7,4.3c0,1.6-0.2,3-0.7,4.3c-0.5,1.3-1.2,2.3-2,3.2
		c-0.8,0.9-1.8,1.5-2.9,2C249.5,173.8,248.4,174,247.2,174z M247.2,171.3c0.8,0,1.6-0.2,2.3-0.5c0.7-0.4,1.3-0.9,1.8-1.5
		c0.5-0.7,0.9-1.4,1.1-2.3c0.3-0.9,0.4-1.9,0.4-3c0-1.1-0.1-2.1-0.4-3.1c-0.3-0.9-0.6-1.7-1.1-2.4c-0.5-0.7-1.1-1.2-1.8-1.5
		c-0.7-0.4-1.5-0.5-2.3-0.5c-0.8,0-1.6,0.2-2.3,0.5c-0.7,0.4-1.3,0.9-1.8,1.5c-0.5,0.7-0.9,1.5-1.1,2.4c-0.3,0.9-0.4,1.9-0.4,3.1
		c0,1.1,0.1,2.1,0.4,3c0.3,0.9,0.6,1.7,1.1,2.3c0.5,0.7,1.1,1.2,1.8,1.5C245.6,171.1,246.4,171.3,247.2,171.3z"/>
	<path class="st5" d="M264.2,173.6l-5.4-19.4h3.4l2.9,11.2c0.2,0.9,0.4,1.8,0.6,2.7s0.4,1.8,0.6,2.7h0.2c0.2-0.9,0.4-1.8,0.6-2.7
		c0.2-0.9,0.4-1.8,0.7-2.7l3-11.2h3.2l3,11.2c0.2,0.9,0.5,1.8,0.7,2.7s0.4,1.8,0.7,2.7h0.2c0.2-0.9,0.4-1.8,0.6-2.7
		c0.2-0.9,0.4-1.8,0.6-2.7l2.8-11.2h3.1l-5.2,19.4h-4l-2.8-10.4c-0.2-0.9-0.5-1.9-0.7-2.8c-0.2-0.9-0.4-1.9-0.7-2.8h-0.2
		c-0.2,1-0.4,1.9-0.6,2.9c-0.2,0.9-0.5,1.8-0.7,2.8l-2.7,10.4H264.2z"/>
	<path class="st5" d="M297.6,174c-1.3,0-2.5-0.2-3.7-0.7c-1.1-0.5-2.1-1.1-3-2c-0.8-0.9-1.5-1.9-2-3.2s-0.7-2.7-0.7-4.3
		c0-1.6,0.2-3,0.7-4.3c0.5-1.3,1.1-2.3,2-3.2c0.8-0.9,1.7-1.6,2.8-2c1-0.5,2.1-0.7,3.2-0.7c1.2,0,2.3,0.2,3.3,0.6
		c1,0.4,1.8,1,2.4,1.8c0.7,0.8,1.2,1.8,1.5,2.9s0.5,2.4,0.5,3.8c0,0.3,0,0.7,0,1c0,0.3,0,0.6-0.1,0.9h-13.1c0.1,2.1,0.8,3.7,1.9,4.9
		c1.2,1.2,2.7,1.8,4.5,1.8c0.9,0,1.8-0.1,2.6-0.4c0.8-0.3,1.5-0.6,2.3-1.1l1.2,2.2c-0.9,0.5-1.8,1-2.8,1.4
		C300.1,173.8,298.9,174,297.6,174z M291.5,162.3h10.4c0-2-0.4-3.5-1.3-4.5c-0.8-1-2-1.5-3.5-1.5c-0.7,0-1.4,0.1-2,0.4
		c-0.6,0.3-1.2,0.7-1.7,1.2c-0.5,0.5-0.9,1.2-1.3,1.9C291.8,160.5,291.6,161.3,291.5,162.3z"/>
	<path class="st5" d="M82.5,198.1c-0.6,0-1.2-0.2-1.6-0.6s-0.7-0.9-0.7-1.5c0-0.6,0.2-1.2,0.7-1.5c0.4-0.4,1-0.6,1.6-0.6
		s1.2,0.2,1.6,0.6c0.4,0.4,0.7,0.9,0.7,1.5c0,0.6-0.2,1.1-0.7,1.5S83.2,198.1,82.5,198.1z M80.8,221.6v-19.4h3.3v19.4H80.8z"/>
	<path class="st5" d="M98.7,229.8v-27.6h2.7l0.3,2.2h0.1c0.9-0.7,1.8-1.4,2.9-1.9c1.1-0.5,2.2-0.8,3.3-0.8c1.3,0,2.4,0.2,3.3,0.7
		c1,0.5,1.8,1.1,2.4,2c0.6,0.9,1.1,1.9,1.5,3.1c0.3,1.2,0.5,2.6,0.5,4.1c0,1.7-0.2,3.1-0.7,4.4c-0.5,1.3-1.1,2.4-1.8,3.3
		c-0.8,0.9-1.7,1.6-2.7,2.1c-1,0.5-2.1,0.7-3.2,0.7c-0.9,0-1.8-0.2-2.7-0.6c-0.9-0.4-1.8-0.9-2.7-1.6l0.1,3.4v6.6H98.7z
		 M106.7,219.3c0.8,0,1.5-0.2,2.2-0.5c0.7-0.4,1.3-0.9,1.8-1.5c0.5-0.7,0.9-1.5,1.2-2.4c0.3-1,0.4-2,0.4-3.2c0-1.1-0.1-2-0.3-2.9
		c-0.2-0.9-0.5-1.6-0.9-2.3c-0.4-0.6-0.9-1.1-1.6-1.5c-0.7-0.3-1.4-0.5-2.3-0.5c-0.8,0-1.7,0.2-2.5,0.7c-0.8,0.5-1.7,1.1-2.7,2v10.2
		c0.9,0.7,1.7,1.3,2.6,1.6C105.3,219.1,106.1,219.3,106.7,219.3z"/>
	<path class="st5" d="M120.9,221.6v-19.4h2.7l0.3,3.5h0.1c0.7-1.2,1.5-2.2,2.4-2.9c0.9-0.7,2-1.1,3.1-1.1c0.8,0,1.5,0.1,2.1,0.4
		l-0.6,2.9c-0.3-0.1-0.6-0.2-0.9-0.2c-0.3-0.1-0.6-0.1-1-0.1c-0.8,0-1.7,0.3-2.6,1c-0.9,0.7-1.7,1.8-2.3,3.5v12.5H120.9z"/>
	<path class="st5" d="M132.6,221.6v-1.8l10.2-15h-9.1v-2.7H147v1.8l-10.2,15h10.6v2.7H132.6z"/>
	<path class="st5" d="M159.1,222.1c-1.3,0-2.5-0.2-3.7-0.7c-1.1-0.5-2.1-1.1-3-2s-1.5-1.9-2-3.2c-0.5-1.3-0.7-2.7-0.7-4.3
		c0-1.6,0.2-3,0.7-4.3c0.5-1.3,1.1-2.3,2-3.2c0.8-0.9,1.7-1.6,2.8-2c1-0.5,2.1-0.7,3.2-0.7c1.2,0,2.3,0.2,3.3,0.6
		c1,0.4,1.8,1,2.4,1.8c0.7,0.8,1.2,1.8,1.5,2.9c0.3,1.1,0.5,2.4,0.5,3.8c0,0.3,0,0.7,0,1c0,0.3,0,0.6-0.1,0.9H153
		c0.1,2.1,0.8,3.7,1.9,4.9c1.2,1.2,2.7,1.8,4.5,1.8c0.9,0,1.8-0.1,2.6-0.4c0.8-0.3,1.5-0.6,2.3-1.1l1.2,2.2c-0.9,0.5-1.8,1-2.8,1.4
		C161.6,221.9,160.4,222.1,159.1,222.1z M153,210.3h10.4c0-2-0.4-3.5-1.3-4.5c-0.8-1-2-1.5-3.5-1.5c-0.7,0-1.4,0.1-2,0.4
		c-0.6,0.3-1.2,0.7-1.7,1.2c-0.5,0.5-0.9,1.2-1.3,1.9C153.3,208.5,153.1,209.3,153,210.3z"/>
	<path class="st5" d="M171,221.6v-19.4h2.7l0.3,2.8h0.1c0.9-0.9,1.8-1.7,2.8-2.3c1-0.6,2.1-0.9,3.3-0.9c1.5,0,2.7,0.3,3.5,1
		c0.8,0.7,1.5,1.6,1.9,2.7c1-1.1,2-2,3.1-2.7c1-0.7,2.1-1,3.3-1c2,0,3.5,0.6,4.5,1.9c1,1.3,1.5,3.2,1.5,5.7v12.3h-3.3v-11.9
		c0-1.8-0.3-3.2-0.9-4c-0.6-0.8-1.5-1.2-2.7-1.2c-1.5,0-3.1,1-4.9,3v14.1h-3.3v-11.9c0-1.8-0.3-3.2-0.9-4c-0.6-0.8-1.5-1.2-2.8-1.2
		c-1.5,0-3.1,1-4.9,3v14.1H171z"/>
	<path class="st5" d="M204.5,229.9c-0.5,0-0.9,0-1.2-0.1c-0.4-0.1-0.7-0.2-1-0.3l0.6-2.6c0.2,0.1,0.5,0.1,0.7,0.2
		c0.3,0.1,0.5,0.1,0.8,0.1c1.1,0,2-0.4,2.7-1.2c0.7-0.8,1.3-1.8,1.7-3l0.4-1.4l-7.8-19.5h3.4l4,10.8c0.3,0.9,0.6,1.8,0.9,2.7
		c0.3,0.9,0.6,1.9,0.9,2.8h0.2c0.3-0.9,0.6-1.8,0.8-2.8c0.3-1,0.5-1.9,0.8-2.7l3.5-10.8h3.2l-7.3,21c-0.3,1-0.7,1.9-1.2,2.7
		c-0.4,0.8-0.9,1.5-1.5,2.1c-0.6,0.6-1.3,1.1-2,1.4C206.4,229.8,205.5,229.9,204.5,229.9z"/>
	<path class="st5" d="M227.9,222.1c-1.4,0-2.7-0.3-4-0.8c-1.3-0.5-2.3-1.1-3.3-1.9l1.6-2.2c0.9,0.7,1.7,1.3,2.6,1.7
		c0.9,0.4,1.9,0.6,3.1,0.6c1.3,0,2.2-0.3,2.9-0.9c0.6-0.6,1-1.3,1-2.2c0-0.5-0.1-0.9-0.4-1.3c-0.3-0.4-0.6-0.7-1-1
		c-0.4-0.3-0.9-0.5-1.4-0.7c-0.5-0.2-1.1-0.4-1.6-0.6c-0.7-0.2-1.4-0.5-2.1-0.8c-0.7-0.3-1.3-0.7-1.9-1.1c-0.5-0.4-1-1-1.3-1.5
		c-0.3-0.6-0.5-1.3-0.5-2.1c0-0.8,0.2-1.5,0.5-2.2c0.3-0.7,0.7-1.3,1.3-1.8c0.6-0.5,1.3-0.9,2.1-1.2c0.8-0.3,1.8-0.4,2.8-0.4
		c1.2,0,2.4,0.2,3.4,0.6c1,0.4,1.9,0.9,2.7,1.6l-1.6,2.1c-0.7-0.5-1.4-0.9-2.1-1.2c-0.7-0.3-1.5-0.5-2.4-0.5c-1.2,0-2.1,0.3-2.7,0.8
		c-0.6,0.6-0.9,1.2-0.9,2c0,0.5,0.1,0.8,0.4,1.2c0.2,0.3,0.6,0.6,1,0.9c0.4,0.3,0.9,0.5,1.4,0.7c0.5,0.2,1.1,0.4,1.6,0.6
		c0.7,0.3,1.4,0.5,2.1,0.8c0.7,0.3,1.3,0.7,1.9,1.1c0.6,0.4,1,1,1.4,1.6c0.4,0.6,0.5,1.4,0.5,2.3c0,0.8-0.2,1.5-0.5,2.2
		c-0.3,0.7-0.8,1.3-1.4,1.8c-0.6,0.5-1.3,1-2.2,1.3C230.1,221.9,229.1,222.1,227.9,222.1z"/>
	<path class="st5" d="M243.3,222.1c-1.3,0-2.1-0.4-2.7-1.1c-0.5-0.7-0.8-1.8-0.8-3.3v-9.3l-2.3,1.4l-1.2-2.1l3.5-2.1v-12.4h3.3v10.7
		l2.2-1.4l1.2,2.1l-3.4,2.1v11.3c0,0.5,0.1,0.9,0.3,1.1c0.2,0.2,0.4,0.3,0.6,0.3c0.1,0,0.2,0,0.3,0c0.1,0,0.2,0,0.4-0.1l0.4,2.5
		c-0.2,0.1-0.5,0.2-0.8,0.2C244.1,222,243.7,222.1,243.3,222.1z"/>
	<path class="st5" d="M257.7,222.1c-1.2,0-2.3-0.2-3.4-0.7s-2-1.1-2.9-2c-0.8-0.9-1.5-1.9-2-3.2c-0.5-1.3-0.7-2.7-0.7-4.3
		c0-1.6,0.2-3.1,0.7-4.3c0.5-1.3,1.2-2.3,2-3.2c0.8-0.9,1.8-1.5,2.9-2c1.1-0.5,2.2-0.7,3.4-0.7c1.2,0,2.3,0.2,3.4,0.7
		c1.1,0.5,2,1.1,2.9,2c0.8,0.9,1.5,2,2,3.2c0.5,1.3,0.7,2.7,0.7,4.3c0,1.6-0.2,3-0.7,4.3c-0.5,1.3-1.2,2.3-2,3.2
		c-0.8,0.9-1.8,1.5-2.9,2C260,221.8,258.9,222.1,257.7,222.1z M257.7,219.3c0.8,0,1.6-0.2,2.3-0.5c0.7-0.4,1.3-0.9,1.8-1.5
		c0.5-0.7,0.9-1.4,1.1-2.3c0.3-0.9,0.4-1.9,0.4-3s-0.1-2.1-0.4-3.1c-0.3-0.9-0.6-1.7-1.1-2.4c-0.5-0.7-1.1-1.2-1.8-1.5
		c-0.7-0.4-1.5-0.5-2.3-0.5c-0.8,0-1.6,0.2-2.3,0.5c-0.7,0.4-1.3,0.9-1.8,1.5c-0.5,0.7-0.9,1.5-1.1,2.4c-0.3,0.9-0.4,1.9-0.4,3.1
		s0.1,2.1,0.4,3c0.3,0.9,0.6,1.7,1.1,2.3c0.5,0.7,1.1,1.2,1.8,1.5C256.1,219.2,256.8,219.3,257.7,219.3z"/>
	<path class="st5" d="M274.7,221.6l-5.4-19.4h3.4l2.9,11.2c0.2,0.9,0.4,1.8,0.6,2.7c0.2,0.9,0.4,1.8,0.6,2.7h0.2
		c0.2-0.9,0.4-1.8,0.6-2.7c0.2-0.9,0.4-1.8,0.7-2.7l3-11.2h3.2l3,11.2c0.2,0.9,0.5,1.8,0.7,2.7c0.2,0.9,0.4,1.8,0.7,2.7h0.2
		c0.2-0.9,0.4-1.8,0.6-2.7c0.2-0.9,0.4-1.8,0.6-2.7l2.8-11.2h3.1l-5.2,19.4h-4l-2.8-10.4c-0.2-0.9-0.5-1.9-0.7-2.8
		c-0.2-0.9-0.4-1.9-0.7-2.8h-0.2c-0.2,1-0.4,1.9-0.6,2.9c-0.2,0.9-0.5,1.8-0.7,2.8l-2.7,10.4H274.7z"/>
	<path class="st5" d="M308.1,222.1c-1.3,0-2.5-0.2-3.7-0.7c-1.1-0.5-2.1-1.1-3-2s-1.5-1.9-2-3.2c-0.5-1.3-0.7-2.7-0.7-4.3
		c0-1.6,0.2-3,0.7-4.3c0.5-1.3,1.1-2.3,2-3.2c0.8-0.9,1.7-1.6,2.8-2c1-0.5,2.1-0.7,3.2-0.7c1.2,0,2.3,0.2,3.3,0.6
		c1,0.4,1.8,1,2.4,1.8c0.7,0.8,1.2,1.8,1.5,2.9c0.3,1.1,0.5,2.4,0.5,3.8c0,0.3,0,0.7,0,1c0,0.3,0,0.6-0.1,0.9H302
		c0.1,2.1,0.8,3.7,1.9,4.9c1.2,1.2,2.7,1.8,4.5,1.8c0.9,0,1.8-0.1,2.6-0.4c0.8-0.3,1.5-0.6,2.3-1.1l1.2,2.2c-0.9,0.5-1.8,1-2.8,1.4
		C310.6,221.9,309.4,222.1,308.1,222.1z M301.9,210.3h10.4c0-2-0.4-3.5-1.3-4.5c-0.8-1-2-1.5-3.5-1.5c-0.7,0-1.4,0.1-2,0.4
		c-0.6,0.3-1.2,0.7-1.7,1.2c-0.5,0.5-0.9,1.2-1.3,1.9C302.3,208.5,302.1,209.3,301.9,210.3z"/>
</g>
<g>
	<path class="st4" d="M604.1,158.7v-29.7h4.5l5.7,15.9c0.4,1,0.7,2.1,1.1,3.1c0.3,1,0.7,2.1,1.1,3.1h0.2c0.4-1,0.7-2.1,1-3.1
		c0.3-1,0.7-2.1,1-3.1l5.6-15.9h4.6v29.7h-3.5v-16.4c0-1.3,0.1-2.8,0.2-4.4c0.1-1.6,0.2-3.1,0.3-4.4h-0.2l-2.4,6.8l-5.6,15.4h-2.5
		l-5.6-15.4l-2.4-6.8H607c0.1,1.3,0.2,2.8,0.3,4.4c0.1,1.6,0.2,3.1,0.2,4.4v16.4H604.1z"/>
	<path class="st4" d="M648,159.2c-1.9,0-3.6-0.4-5.1-1.1c-1.6-0.7-2.9-1.8-4-3.1c-1.1-1.3-2-3-2.6-4.9c-0.6-1.9-0.9-4.1-0.9-6.5
		c0-2.4,0.3-4.5,0.9-6.4c0.6-1.9,1.5-3.5,2.6-4.8c1.1-1.3,2.5-2.3,4-3c1.6-0.7,3.3-1,5.1-1c1.9,0,3.6,0.4,5.1,1.1
		c1.6,0.7,2.9,1.7,4,3c1.1,1.3,2,2.9,2.6,4.8s0.9,4,0.9,6.4c0,2.4-0.3,4.5-0.9,6.5c-0.6,1.9-1.5,3.6-2.6,4.9c-1.1,1.3-2.5,2.4-4,3.1
		C651.6,158.9,649.9,159.2,648,159.2z M648,155.9c1.3,0,2.5-0.3,3.6-0.9c1.1-0.6,2-1.4,2.8-2.5c0.8-1.1,1.4-2.4,1.8-3.9
		c0.4-1.5,0.6-3.2,0.6-5.1c0-1.8-0.2-3.5-0.6-5c-0.4-1.5-1-2.7-1.8-3.8c-0.8-1-1.7-1.8-2.8-2.4c-1.1-0.6-2.3-0.8-3.6-0.8
		c-1.3,0-2.5,0.3-3.6,0.8c-1.1,0.6-2,1.4-2.8,2.4s-1.4,2.3-1.8,3.8c-0.4,1.5-0.6,3.1-0.6,5c0,1.9,0.2,3.6,0.6,5.1
		c0.4,1.5,1,2.8,1.8,3.9c0.8,1.1,1.7,1.9,2.8,2.5C645.5,155.6,646.7,155.9,648,155.9z"/>
	<path class="st4" d="M678.4,159.2c-1.9,0-3.6-0.3-5.2-1c-1.6-0.7-2.9-1.7-4.1-3c-1.2-1.3-2.1-2.9-2.7-4.9c-0.7-1.9-1-4.1-1-6.5
		c0-2.4,0.3-4.5,1-6.4c0.7-1.9,1.6-3.5,2.8-4.9c1.2-1.3,2.6-2.3,4.2-3.1c1.6-0.7,3.4-1.1,5.3-1.1c1.8,0,3.4,0.4,4.8,1.1
		c1.4,0.7,2.5,1.6,3.4,2.6l-2,2.4c-0.8-0.8-1.7-1.5-2.7-2c-1-0.5-2.1-0.8-3.4-0.8c-1.4,0-2.7,0.3-3.9,0.8c-1.1,0.6-2.1,1.4-2.9,2.4
		s-1.4,2.3-1.9,3.8c-0.4,1.5-0.7,3.1-0.7,5c0,1.9,0.2,3.6,0.7,5.1c0.4,1.5,1,2.8,1.8,3.8c0.8,1.1,1.7,1.9,2.9,2.4
		c1.1,0.6,2.4,0.9,3.8,0.9c1.5,0,2.7-0.3,3.8-0.9s2.1-1.4,3.1-2.5l2.1,2.4c-1.2,1.4-2.5,2.4-4,3.2S680.3,159.2,678.4,159.2z"/>
</g>
<g>
	<path class="st5" d="M548.2,223.6v-19.4h2.7l0.3,2.8h0.1c0.9-0.9,1.8-1.7,2.8-2.3s2.1-0.9,3.3-0.9c1.5,0,2.7,0.3,3.5,1
		s1.5,1.6,1.9,2.7c1-1.1,2-2,3.1-2.7c1-0.7,2.1-1,3.3-1c2,0,3.5,0.6,4.5,1.9c1,1.3,1.5,3.2,1.5,5.7v12.3h-3.3v-11.9
		c0-1.8-0.3-3.2-0.9-4c-0.6-0.8-1.5-1.2-2.7-1.2c-1.5,0-3.1,1-4.9,3v14.1H560v-11.9c0-1.8-0.3-3.2-0.9-4c-0.6-0.8-1.5-1.2-2.8-1.2
		c-1.5,0-3.1,1-4.9,3v14.1H548.2z"/>
	<path class="st5" d="M583,200.1c-0.6,0-1.2-0.2-1.6-0.6s-0.7-0.9-0.7-1.5c0-0.6,0.2-1.2,0.7-1.5c0.4-0.4,1-0.6,1.6-0.6
		s1.2,0.2,1.6,0.6c0.4,0.4,0.7,0.9,0.7,1.5c0,0.6-0.2,1.1-0.7,1.5S583.6,200.1,583,200.1z M581.3,223.6v-19.4h3.3v19.4H581.3z"/>
	<path class="st5" d="M591.1,223.6v-28.5h3.2v19.3h0.1l8.3-10.2h3.6l-6.5,7.8l7.4,11.6h-3.6l-5.7-9.4l-3.6,4.2v5.1H591.1z"/>
	<path class="st5" d="M610.9,223.6v-19.4h2.7l0.3,3.5h0.1c0.7-1.2,1.5-2.2,2.4-2.9c0.9-0.7,2-1.1,3.1-1.1c0.8,0,1.5,0.1,2.1,0.4
		l-0.6,2.9c-0.3-0.1-0.6-0.2-0.9-0.2c-0.3-0.1-0.6-0.1-1-0.1c-0.8,0-1.7,0.3-2.6,1c-0.9,0.7-1.7,1.8-2.3,3.5v12.5H610.9z"/>
	<path class="st5" d="M632,224c-1.2,0-2.3-0.2-3.4-0.7s-2-1.1-2.9-2c-0.8-0.9-1.5-1.9-2-3.2c-0.5-1.3-0.7-2.7-0.7-4.3
		c0-1.6,0.2-3.1,0.7-4.3c0.5-1.3,1.2-2.3,2-3.2c0.8-0.9,1.8-1.5,2.9-2c1.1-0.5,2.2-0.7,3.4-0.7c1.2,0,2.3,0.2,3.4,0.7
		c1.1,0.5,2,1.1,2.9,2c0.8,0.9,1.5,2,2,3.2c0.5,1.3,0.7,2.7,0.7,4.3c0,1.6-0.2,3-0.7,4.3c-0.5,1.3-1.2,2.3-2,3.2
		c-0.8,0.9-1.8,1.5-2.9,2C634.3,223.8,633.2,224,632,224z M632,221.3c0.8,0,1.6-0.2,2.3-0.5c0.7-0.4,1.3-0.9,1.8-1.5
		c0.5-0.7,0.9-1.4,1.1-2.3c0.3-0.9,0.4-1.9,0.4-3s-0.1-2.1-0.4-3.1c-0.3-0.9-0.6-1.7-1.1-2.4c-0.5-0.7-1.1-1.2-1.8-1.5
		c-0.7-0.4-1.5-0.5-2.3-0.5c-0.8,0-1.6,0.2-2.3,0.5c-0.7,0.4-1.3,0.9-1.8,1.5c-0.5,0.7-0.9,1.5-1.1,2.4c-0.3,0.9-0.4,1.9-0.4,3.1
		s0.1,2.1,0.4,3c0.3,0.9,0.6,1.7,1.1,2.3c0.5,0.7,1.1,1.2,1.8,1.5C630.4,221.1,631.2,221.3,632,221.3z"/>
	<path class="st5" d="M645.1,230.4l-0.8-1.9c1.1-0.5,2-1.2,2.7-2c0.6-0.8,0.9-1.8,0.9-2.9c-0.1,0-0.2,0-0.4,0
		c-0.6,0-1.2-0.2-1.7-0.6c-0.5-0.4-0.7-1-0.7-1.7c0-0.7,0.2-1.3,0.7-1.7c0.5-0.4,1.1-0.6,1.7-0.6c0.9,0,1.5,0.3,2,1
		c0.5,0.7,0.7,1.6,0.7,2.8c0,1.7-0.5,3.2-1.4,4.5C648,228.7,646.7,229.7,645.1,230.4z"/>
	<path class="st5" d="M663.7,223.6v-19.4h2.7l0.3,2.8h0.1c0.9-0.9,1.8-1.7,2.8-2.3s2.1-0.9,3.3-0.9c1.5,0,2.7,0.3,3.5,1
		s1.5,1.6,1.9,2.7c1-1.1,2-2,3.1-2.7c1-0.7,2.1-1,3.3-1c2,0,3.5,0.6,4.5,1.9c1,1.3,1.5,3.2,1.5,5.7v12.3h-3.3v-11.9
		c0-1.8-0.3-3.2-0.9-4c-0.6-0.8-1.5-1.2-2.7-1.2c-1.5,0-3.1,1-4.9,3v14.1h-3.3v-11.9c0-1.8-0.3-3.2-0.9-4c-0.6-0.8-1.5-1.2-2.8-1.2
		c-1.5,0-3.1,1-4.9,3v14.1H663.7z"/>
	<path class="st5" d="M701.3,224c-1.6,0-3-0.5-4.1-1.4s-1.6-2.3-1.6-4.1c0-2.1,0.9-3.8,2.8-4.9s4.9-1.9,9.1-2.4
		c0-0.6-0.1-1.2-0.2-1.8c-0.1-0.6-0.3-1.1-0.6-1.6c-0.3-0.5-0.7-0.8-1.2-1.1c-0.5-0.3-1.2-0.4-2-0.4c-1.1,0-2.2,0.2-3.2,0.6
		s-1.9,0.9-2.6,1.4l-1.3-2.3c0.9-0.6,2-1.2,3.3-1.7s2.7-0.8,4.3-0.8c2.4,0,4.1,0.7,5.2,2.2c1.1,1.5,1.6,3.4,1.6,5.8v11.9h-2.7
		l-0.3-2.3h-0.1c-0.9,0.8-1.9,1.4-3,2S702.5,224,701.3,224z M702.3,221.4c0.9,0,1.8-0.2,2.6-0.7c0.8-0.4,1.7-1.1,2.6-1.9v-5.4
		c-1.6,0.2-3,0.5-4.1,0.8c-1.1,0.3-2,0.6-2.7,1c-0.7,0.4-1.2,0.9-1.5,1.4c-0.3,0.5-0.5,1.1-0.5,1.7c0,1.1,0.3,1.9,1,2.4
		C700.5,221.2,701.3,221.4,702.3,221.4z"/>
	<path class="st5" d="M720.6,224c-1.3,0-2.1-0.4-2.7-1.1c-0.5-0.7-0.8-1.8-0.8-3.3v-9.3l-2.3,1.4l-1.2-2.1l3.5-2.1v-12.4h3.3v10.7
		l2.2-1.4l1.2,2.1l-3.4,2.1v11.3c0,0.5,0.1,0.9,0.3,1.1c0.2,0.2,0.4,0.3,0.6,0.3c0.1,0,0.2,0,0.3,0c0.1,0,0.2,0,0.4-0.1l0.4,2.5
		c-0.2,0.1-0.5,0.2-0.8,0.2C721.5,224,721.1,224,720.6,224z"/>
	<path class="st5" d="M735.3,224c-1.3,0-2.5-0.2-3.7-0.7s-2.1-1.1-3-2c-0.8-0.9-1.5-1.9-2-3.2c-0.5-1.3-0.7-2.7-0.7-4.3
		s0.2-3,0.7-4.3s1.1-2.3,2-3.2c0.8-0.9,1.7-1.6,2.8-2c1-0.5,2.1-0.7,3.2-0.7c1.2,0,2.3,0.2,3.3,0.6c1,0.4,1.8,1,2.4,1.8
		c0.7,0.8,1.2,1.8,1.5,2.9s0.5,2.4,0.5,3.8c0,0.3,0,0.7,0,1c0,0.3,0,0.6-0.1,0.9h-13.1c0.1,2.1,0.8,3.7,1.9,4.9s2.7,1.8,4.5,1.8
		c0.9,0,1.8-0.1,2.6-0.4c0.8-0.3,1.5-0.6,2.3-1.1l1.2,2.2c-0.9,0.5-1.8,1-2.8,1.4C737.9,223.8,736.7,224,735.3,224z M729.2,212.3
		h10.4c0-2-0.4-3.5-1.3-4.5c-0.8-1-2-1.5-3.5-1.5c-0.7,0-1.4,0.1-2,0.4c-0.6,0.3-1.2,0.7-1.7,1.2c-0.5,0.5-0.9,1.2-1.3,1.9
		C729.6,210.5,729.3,211.3,729.2,212.3z"/>
	<path class="st5" d="M600.3,248.1c-0.6,0-1.2-0.2-1.6-0.6c-0.4-0.4-0.7-0.9-0.7-1.5c0-0.6,0.2-1.2,0.7-1.5s1-0.6,1.6-0.6
		s1.2,0.2,1.6,0.6s0.7,0.9,0.7,1.5c0,0.6-0.2,1.1-0.7,1.5C601.5,247.9,600.9,248.1,600.3,248.1z M598.6,271.6v-19.4h3.3v19.4H598.6z
		"/>
	<path class="st5" d="M623.1,272c-2.5,0-4.4-0.9-5.9-2.6c-1.5-1.8-2.2-4.3-2.2-7.5c0-1.6,0.2-3,0.7-4.3c0.5-1.3,1.1-2.3,1.9-3.2
		c0.8-0.9,1.7-1.6,2.7-2c1-0.5,2.1-0.7,3.2-0.7c1.1,0,2.1,0.2,2.9,0.6c0.8,0.4,1.7,0.9,2.5,1.6l-0.2-3.3v-7.5h3.3v28.5h-2.7
		l-0.3-2.3H629c-0.8,0.7-1.7,1.4-2.7,1.9C625.3,271.8,624.2,272,623.1,272z M623.8,269.3c0.9,0,1.8-0.2,2.6-0.7
		c0.8-0.4,1.6-1.1,2.4-2v-10.2c-0.8-0.7-1.6-1.3-2.4-1.6c-0.8-0.3-1.5-0.5-2.3-0.5c-0.8,0-1.5,0.2-2.2,0.5c-0.7,0.4-1.3,0.9-1.8,1.5
		c-0.5,0.7-0.9,1.4-1.2,2.3c-0.3,0.9-0.4,1.9-0.4,3c0,2.3,0.5,4.2,1.4,5.5C620.8,268.6,622.1,269.3,623.8,269.3z"/>
	<path class="st5" d="M644.3,272c-2.1,0-3.6-0.6-4.5-1.9c-0.9-1.3-1.4-3.2-1.4-5.7v-12.3h3.3V264c0,1.8,0.3,3.2,0.9,4
		c0.6,0.8,1.5,1.2,2.8,1.2c1,0,1.9-0.3,2.7-0.8c0.8-0.5,1.6-1.4,2.6-2.5v-13.8h3.3v19.4h-2.7l-0.3-3h-0.1c-0.9,1.1-1.9,1.9-2.9,2.6
		C646.9,271.7,645.7,272,644.3,272z"/>
	<path class="st5" d="M658.4,271.6v-1.8l10.2-15h-9.1v-2.7h13.3v1.8l-10.2,15h10.6v2.7H658.4z M666.3,248.1c-0.6,0-1.1-0.2-1.5-0.6
		c-0.4-0.4-0.6-0.9-0.6-1.6c0-0.6,0.2-1.1,0.6-1.5c0.4-0.4,0.9-0.6,1.5-0.6c0.6,0,1.1,0.2,1.5,0.6c0.4,0.4,0.6,0.9,0.6,1.5
		c0,0.6-0.2,1.2-0.6,1.6C667.4,247.9,666.9,248.1,666.3,248.1z"/>
	<path class="st5" d="M684.9,272c-1.3,0-2.5-0.2-3.7-0.7c-1.1-0.5-2.1-1.1-3-2s-1.5-1.9-2-3.2c-0.5-1.3-0.7-2.7-0.7-4.3
		c0-1.6,0.2-3,0.7-4.3c0.5-1.3,1.1-2.3,2-3.2c0.8-0.9,1.7-1.6,2.8-2c1-0.5,2.1-0.7,3.2-0.7c1.2,0,2.3,0.2,3.3,0.6s1.8,1,2.4,1.8
		c0.7,0.8,1.2,1.8,1.5,2.9c0.3,1.1,0.5,2.4,0.5,3.8c0,0.3,0,0.7,0,1c0,0.3,0,0.6-0.1,0.9h-13.1c0.1,2.1,0.8,3.7,1.9,4.9
		c1.2,1.2,2.7,1.8,4.5,1.8c0.9,0,1.8-0.1,2.6-0.4c0.8-0.3,1.5-0.6,2.3-1.1l1.2,2.2c-0.9,0.5-1.8,1-2.8,1.4
		C687.4,271.8,686.2,272,684.9,272z M678.8,260.3h10.4c0-2-0.4-3.5-1.3-4.5c-0.8-1-2-1.5-3.5-1.5c-0.7,0-1.4,0.1-2,0.4
		c-0.6,0.3-1.2,0.7-1.7,1.2c-0.5,0.5-0.9,1.2-1.3,1.9C679.1,258.5,678.9,259.3,678.8,260.3z"/>
</g>
<g>
	<path class="st4" d="M966.9,208.7v-29.7h3.8v26.5h13v3.2H966.9z"/>
	<path class="st4" d="M998.8,209.2c-1.9,0-3.6-0.4-5.1-1.1s-2.9-1.8-4-3.1c-1.1-1.3-2-3-2.6-4.9c-0.6-1.9-0.9-4.1-0.9-6.5
		c0-2.4,0.3-4.5,0.9-6.4c0.6-1.9,1.5-3.5,2.6-4.8c1.1-1.3,2.5-2.3,4-3c1.6-0.7,3.3-1,5.1-1c1.9,0,3.6,0.4,5.1,1.1
		c1.6,0.7,2.9,1.7,4,3c1.1,1.3,2,2.9,2.6,4.8s0.9,4,0.9,6.4c0,2.4-0.3,4.5-0.9,6.5c-0.6,1.9-1.5,3.6-2.6,4.9c-1.1,1.3-2.5,2.4-4,3.1
		S1000.6,209.2,998.8,209.2z M998.8,205.9c1.3,0,2.5-0.3,3.6-0.9c1.1-0.6,2-1.4,2.8-2.5c0.8-1.1,1.4-2.4,1.8-3.9
		c0.4-1.5,0.6-3.2,0.6-5.1c0-1.8-0.2-3.5-0.6-5c-0.4-1.5-1-2.7-1.8-3.8s-1.7-1.8-2.8-2.4c-1.1-0.6-2.3-0.8-3.6-0.8
		c-1.3,0-2.5,0.3-3.6,0.8c-1.1,0.6-2,1.4-2.8,2.4s-1.4,2.3-1.8,3.8c-0.4,1.5-0.6,3.1-0.6,5c0,1.9,0.2,3.6,0.6,5.1
		c0.4,1.5,1,2.8,1.8,3.9c0.8,1.1,1.7,1.9,2.8,2.5C996.2,205.6,997.4,205.9,998.8,205.9z"/>
	<path class="st4" d="M1017.9,208.7v-29.7h3.8v14.9h0.1l12.4-14.9h4.3l-9.3,11.3l10.7,18.4h-4.2l-8.9-15.5l-5.1,6v9.4H1017.9z"/>
	<path class="st4" d="M1039.7,208.7l10.1-29.7h4.3l10.1,29.7h-4l-2.8-9.1h-10.8l-2.9,9.1H1039.7z M1048.8,192l-1.4,4.5h8.9l-1.4-4.5
		c-0.5-1.7-1.1-3.3-1.5-5c-0.5-1.6-1-3.3-1.5-5.1h-0.2c-0.5,1.7-0.9,3.4-1.4,5.1C1049.9,188.7,1049.4,190.4,1048.8,192z"/>
	<path class="st4" d="M1068.3,208.7v-29.7h3.8v26.5h13v3.2H1068.3z"/>
	<path class="st4" d="M1090.4,208.7v-29.7h3.8v29.7H1090.4z"/>
	<path class="st4" d="M1100.3,208.7v-2.3l15.6-24.3h-14.2v-3.2h18.9v2.2l-15.7,24.3h15.8v3.2H1100.3z"/>
	<path class="st4" d="M1122.5,208.7l10.1-29.7h4.3l10.1,29.7h-4l-2.8-9.1h-10.8l-2.9,9.1H1122.5z M1131.6,192l-1.4,4.5h8.9l-1.4-4.5
		c-0.5-1.7-1.1-3.3-1.5-5c-0.5-1.6-1-3.3-1.5-5.1h-0.2c-0.5,1.7-0.9,3.4-1.4,5.1C1132.6,188.7,1132.1,190.4,1131.6,192z"/>
	<path class="st4" d="M1161.9,209.2c-1.9,0-3.6-0.3-5.2-1c-1.6-0.7-2.9-1.7-4.1-3c-1.2-1.3-2.1-2.9-2.7-4.9c-0.7-1.9-1-4.1-1-6.5
		c0-2.4,0.3-4.5,1-6.4c0.7-1.9,1.6-3.5,2.8-4.9c1.2-1.3,2.6-2.3,4.2-3.1c1.6-0.7,3.4-1.1,5.3-1.1c1.8,0,3.4,0.4,4.8,1.1
		c1.4,0.7,2.5,1.6,3.4,2.6l-2,2.4c-0.8-0.8-1.7-1.5-2.7-2c-1-0.5-2.1-0.8-3.4-0.8c-1.4,0-2.7,0.3-3.9,0.8c-1.1,0.6-2.1,1.4-2.9,2.4
		c-0.8,1-1.4,2.3-1.9,3.8c-0.4,1.5-0.7,3.1-0.7,5c0,1.9,0.2,3.6,0.7,5.1c0.4,1.5,1,2.8,1.8,3.8c0.8,1.1,1.7,1.9,2.9,2.4
		c1.1,0.6,2.4,0.9,3.8,0.9c1.5,0,2.7-0.3,3.8-0.9c1.1-0.6,2.1-1.4,3.1-2.5l2.1,2.4c-1.2,1.4-2.5,2.4-4,3.2
		S1163.8,209.2,1161.9,209.2z"/>
	<path class="st4" d="M1181.6,209.2c-3.7,0-6.5-1.6-8.2-4.8l2.7-1.9c0.7,1.2,1.4,2,2.3,2.6c0.8,0.5,1.8,0.8,2.9,0.8
		c1.6,0,2.8-0.5,3.6-1.5c0.8-1,1.2-2.6,1.2-4.9v-20.6h3.8v21c0,1.3-0.2,2.5-0.5,3.6c-0.3,1.1-0.8,2.1-1.5,3c-0.7,0.8-1.5,1.5-2.5,2
		C1184.3,209,1183.1,209.2,1181.6,209.2z"/>
	<path class="st4" d="M1193.9,208.7l10.1-29.7h4.3l10.1,29.7h-4l-2.8-9.1h-10.8l-2.9,9.1H1193.9z M1203,192l-1.4,4.5h8.9l-1.4-4.5
		c-0.5-1.7-1.1-3.3-1.5-5c-0.5-1.6-1-3.3-1.5-5.1h-0.2c-0.5,1.7-0.9,3.4-1.4,5.1C1204,188.7,1203.5,190.4,1203,192z"/>
</g>
<g>
	<path class="st5" d="M1036.2,274c-1.3,0-2.1-0.4-2.7-1.1c-0.5-0.7-0.8-1.8-0.8-3.3v-24.6h3.3v24.8c0,0.5,0.1,0.9,0.3,1.1
		c0.2,0.2,0.4,0.3,0.6,0.3c0.1,0,0.2,0,0.3,0c0.1,0,0.2,0,0.4-0.1l0.4,2.5c-0.2,0.1-0.5,0.2-0.8,0.2C1037,274,1036.6,274,1036.2,274
		z"/>
	<path class="st5" d="M1054.7,281.8c-1,0-1.9-0.3-2.6-0.9s-1.1-1.4-1.1-2.5c0-0.5,0.1-1,0.3-1.5c0.2-0.5,0.4-1,0.7-1.4
		c0.3-0.4,0.7-0.8,1-1.2s0.8-0.7,1.1-0.9l-0.3-2.2h-0.1c-0.9,0.8-1.9,1.4-3,2s-2.2,0.8-3.4,0.8c-1.6,0-3-0.5-4.1-1.4
		s-1.6-2.3-1.6-4.1c0-2.1,0.9-3.8,2.8-4.9c1.9-1.1,4.9-1.9,9.1-2.4c0-0.6-0.1-1.2-0.2-1.8c-0.1-0.6-0.3-1.1-0.6-1.6
		c-0.3-0.5-0.7-0.8-1.2-1.1c-0.5-0.3-1.2-0.4-2-0.4c-1.1,0-2.2,0.2-3.2,0.6c-1,0.4-1.9,0.9-2.6,1.4l-1.3-2.3c0.9-0.6,2-1.2,3.3-1.7
		c1.3-0.5,2.7-0.8,4.3-0.8c2.4,0,4.1,0.7,5.2,2.2c1.1,1.5,1.6,3.4,1.6,5.8v11.9c-1.1,0.5-2,1.1-2.6,1.9c-0.6,0.8-0.9,1.6-0.9,2.3
		c0,0.6,0.2,1.1,0.6,1.4c0.4,0.3,0.8,0.5,1.3,0.5c0.3,0,0.6,0,0.9-0.1c0.3-0.1,0.5-0.2,0.8-0.4l0.8,1.6c-0.4,0.3-0.9,0.5-1.5,0.8
		S1055.2,281.8,1054.7,281.8z M1048.3,271.4c0.9,0,1.8-0.2,2.6-0.7c0.8-0.4,1.7-1.1,2.6-1.9v-5.4c-1.6,0.2-3,0.5-4.1,0.8
		c-1.1,0.3-2,0.6-2.7,1c-0.7,0.4-1.2,0.9-1.5,1.4c-0.3,0.5-0.5,1.1-0.5,1.7c0,1.1,0.3,1.9,1,2.4
		C1046.6,271.2,1047.4,271.4,1048.3,271.4z"/>
	<path class="st5" d="M1069.7,274c-2.5,0-4.4-0.9-5.9-2.6c-1.5-1.8-2.2-4.3-2.2-7.5c0-1.6,0.2-3,0.7-4.3c0.5-1.3,1.1-2.3,1.9-3.2
		c0.8-0.9,1.7-1.6,2.7-2c1-0.5,2.1-0.7,3.2-0.7c1.1,0,2.1,0.2,2.9,0.6c0.8,0.4,1.7,0.9,2.5,1.6l-0.2-3.3v-7.5h3.3v28.5h-2.7
		l-0.3-2.3h-0.1c-0.8,0.7-1.7,1.4-2.7,1.9S1070.8,274,1069.7,274z M1070.4,271.3c0.9,0,1.8-0.2,2.6-0.7c0.8-0.4,1.6-1.1,2.4-2v-10.2
		c-0.8-0.7-1.6-1.3-2.4-1.6c-0.8-0.3-1.5-0.5-2.3-0.5c-0.8,0-1.5,0.2-2.2,0.5c-0.7,0.4-1.3,0.9-1.8,1.5s-0.9,1.4-1.2,2.3
		c-0.3,0.9-0.4,1.9-0.4,3c0,2.3,0.5,4.2,1.4,5.5C1067.4,270.6,1068.7,271.3,1070.4,271.3z"/>
	<path class="st5" d="M1092.8,274c-1.2,0-2.3-0.2-3.4-0.7s-2-1.1-2.9-2c-0.8-0.9-1.5-1.9-2-3.2c-0.5-1.3-0.7-2.7-0.7-4.3
		c0-1.6,0.2-3.1,0.7-4.3c0.5-1.3,1.2-2.3,2-3.2c0.8-0.9,1.8-1.5,2.9-2c1.1-0.5,2.2-0.7,3.4-0.7c1.2,0,2.3,0.2,3.4,0.7
		c1.1,0.5,2,1.1,2.9,2c0.8,0.9,1.5,2,2,3.2c0.5,1.3,0.7,2.7,0.7,4.3c0,1.6-0.2,3-0.7,4.3c-0.5,1.3-1.2,2.3-2,3.2
		c-0.8,0.9-1.8,1.5-2.9,2S1094,274,1092.8,274z M1092.8,271.3c0.8,0,1.6-0.2,2.3-0.5c0.7-0.4,1.3-0.9,1.8-1.5s0.9-1.4,1.1-2.3
		c0.3-0.9,0.4-1.9,0.4-3s-0.1-2.1-0.4-3.1c-0.3-0.9-0.6-1.7-1.1-2.4c-0.5-0.7-1.1-1.2-1.8-1.5c-0.7-0.4-1.5-0.5-2.3-0.5
		c-0.8,0-1.6,0.2-2.3,0.5c-0.7,0.4-1.3,0.9-1.8,1.5c-0.5,0.7-0.9,1.5-1.1,2.4c-0.3,0.9-0.4,1.9-0.4,3.1s0.1,2.1,0.4,3
		c0.3,0.9,0.6,1.7,1.1,2.3c0.5,0.7,1.1,1.2,1.8,1.5C1091.2,271.1,1092,271.3,1092.8,271.3z"/>
	<path class="st5" d="M1109.8,273.6l-5.4-19.4h3.4l2.9,11.2c0.2,0.9,0.4,1.8,0.6,2.7s0.4,1.8,0.6,2.7h0.2c0.2-0.9,0.4-1.8,0.6-2.7
		c0.2-0.9,0.4-1.8,0.7-2.7l3-11.2h3.2l3,11.2c0.2,0.9,0.5,1.8,0.7,2.7s0.4,1.8,0.7,2.7h0.2c0.2-0.9,0.4-1.8,0.6-2.7s0.4-1.8,0.6-2.7
		l2.8-11.2h3.1l-5.2,19.4h-4l-2.8-10.4c-0.2-0.9-0.5-1.9-0.7-2.8c-0.2-0.9-0.4-1.9-0.7-2.8h-0.2c-0.2,1-0.4,1.9-0.6,2.9
		c-0.2,0.9-0.5,1.8-0.7,2.8l-2.7,10.4H1109.8z"/>
	<path class="st5" d="M1143.2,274c-1.3,0-2.5-0.2-3.7-0.7s-2.1-1.1-3-2c-0.8-0.9-1.5-1.9-2-3.2c-0.5-1.3-0.7-2.7-0.7-4.3
		s0.2-3,0.7-4.3s1.1-2.3,2-3.2c0.8-0.9,1.7-1.6,2.8-2c1-0.5,2.1-0.7,3.2-0.7c1.2,0,2.3,0.2,3.3,0.6c1,0.4,1.8,1,2.4,1.8
		c0.7,0.8,1.2,1.8,1.5,2.9s0.5,2.4,0.5,3.8c0,0.3,0,0.7,0,1c0,0.3,0,0.6-0.1,0.9h-13.1c0.1,2.1,0.8,3.7,1.9,4.9s2.7,1.8,4.5,1.8
		c0.9,0,1.8-0.1,2.6-0.4c0.8-0.3,1.5-0.6,2.3-1.1l1.2,2.2c-0.9,0.5-1.8,1-2.8,1.4C1145.7,273.8,1144.5,274,1143.2,274z
		 M1137.1,262.3h10.4c0-2-0.4-3.5-1.3-4.5c-0.8-1-2-1.5-3.5-1.5c-0.7,0-1.4,0.1-2,0.4c-0.6,0.3-1.2,0.7-1.7,1.2
		c-0.5,0.5-0.9,1.2-1.3,1.9C1137.4,260.5,1137.2,261.3,1137.1,262.3z"/>
	<path class="st5" d="M1019.3,298.1c-0.6,0-1.2-0.2-1.6-0.6c-0.4-0.4-0.7-0.9-0.7-1.5c0-0.6,0.2-1.2,0.7-1.5c0.4-0.4,1-0.6,1.6-0.6
		c0.6,0,1.2,0.2,1.6,0.6c0.4,0.4,0.7,0.9,0.7,1.5c0,0.6-0.2,1.1-0.7,1.5C1020.5,297.9,1019.9,298.1,1019.3,298.1z M1017.6,321.6
		v-19.4h3.3v19.4H1017.6z"/>
	<path class="st5" d="M1035.5,321.6v-19.4h2.7l0.3,2.8h0.1c0.9-0.9,1.8-1.7,2.8-2.3s2.1-0.9,3.3-0.9c1.5,0,2.7,0.3,3.5,1
		s1.5,1.6,1.9,2.7c1-1.1,2-2,3.1-2.7c1-0.7,2.1-1,3.3-1c2,0,3.5,0.6,4.5,1.9c1,1.3,1.5,3.2,1.5,5.7v12.3h-3.3v-11.9
		c0-1.8-0.3-3.2-0.9-4c-0.6-0.8-1.5-1.2-2.7-1.2c-1.5,0-3.1,1-4.9,3v14.1h-3.3v-11.9c0-1.8-0.3-3.2-0.9-4c-0.6-0.8-1.5-1.2-2.8-1.2
		c-1.5,0-3.1,1-4.9,3v14.1H1035.5z"/>
	<path class="st5" d="M1076.2,322c-1.2,0-2.3-0.2-3.4-0.7s-2-1.1-2.9-2c-0.8-0.9-1.5-1.9-2-3.2c-0.5-1.3-0.7-2.7-0.7-4.3
		c0-1.6,0.2-3.1,0.7-4.3c0.5-1.3,1.2-2.3,2-3.2c0.8-0.9,1.8-1.5,2.9-2c1.1-0.5,2.2-0.7,3.4-0.7c1.2,0,2.3,0.2,3.4,0.7
		c1.1,0.5,2,1.1,2.9,2c0.8,0.9,1.5,2,2,3.2s0.7,2.7,0.7,4.3c0,1.6-0.2,3-0.7,4.3s-1.2,2.3-2,3.2c-0.8,0.9-1.8,1.5-2.9,2
		C1078.5,321.8,1077.4,322,1076.2,322z M1076.2,319.3c0.8,0,1.6-0.2,2.3-0.5c0.7-0.4,1.3-0.9,1.8-1.5c0.5-0.7,0.9-1.4,1.1-2.3
		c0.3-0.9,0.4-1.9,0.4-3s-0.1-2.1-0.4-3.1c-0.3-0.9-0.6-1.7-1.1-2.4c-0.5-0.7-1.1-1.2-1.8-1.5c-0.7-0.4-1.5-0.5-2.3-0.5
		s-1.6,0.2-2.3,0.5c-0.7,0.4-1.3,0.9-1.8,1.5c-0.5,0.7-0.9,1.5-1.1,2.4c-0.3,0.9-0.4,1.9-0.4,3.1s0.1,2.1,0.4,3
		c0.3,0.9,0.6,1.7,1.1,2.3s1.1,1.2,1.8,1.5C1074.6,319.1,1075.3,319.3,1076.2,319.3z"/>
	<path class="st5" d="M1090.3,321.6v-19.4h2.7l0.3,3.5h0.1c0.7-1.2,1.5-2.2,2.4-2.9c0.9-0.7,2-1.1,3.1-1.1c0.8,0,1.5,0.1,2.1,0.4
		l-0.6,2.9c-0.3-0.1-0.6-0.2-0.9-0.2c-0.3-0.1-0.6-0.1-1-0.1c-0.8,0-1.7,0.3-2.6,1c-0.9,0.7-1.7,1.8-2.3,3.5v12.5H1090.3z"/>
	<path class="st5" d="M1109.1,322c-1.4,0-2.7-0.3-4-0.8c-1.3-0.5-2.3-1.1-3.3-1.9l1.6-2.2c0.9,0.7,1.7,1.3,2.6,1.7
		c0.9,0.4,1.9,0.6,3.1,0.6c1.3,0,2.2-0.3,2.9-0.9c0.6-0.6,1-1.3,1-2.2c0-0.5-0.1-0.9-0.4-1.3c-0.3-0.4-0.6-0.7-1-1s-0.9-0.5-1.4-0.7
		c-0.5-0.2-1.1-0.4-1.6-0.6c-0.7-0.2-1.4-0.5-2.1-0.8c-0.7-0.3-1.3-0.7-1.9-1.1c-0.5-0.4-1-1-1.3-1.5c-0.3-0.6-0.5-1.3-0.5-2.1
		c0-0.8,0.2-1.5,0.5-2.2s0.7-1.3,1.3-1.8c0.6-0.5,1.3-0.9,2.1-1.2c0.8-0.3,1.8-0.4,2.8-0.4c1.2,0,2.4,0.2,3.4,0.6s1.9,0.9,2.7,1.6
		l-1.6,2.1c-0.7-0.5-1.4-0.9-2.1-1.2c-0.7-0.3-1.5-0.5-2.4-0.5c-1.2,0-2.1,0.3-2.7,0.8c-0.6,0.6-0.9,1.2-0.9,2
		c0,0.5,0.1,0.8,0.4,1.2c0.2,0.3,0.6,0.6,1,0.9c0.4,0.3,0.9,0.5,1.4,0.7c0.5,0.2,1.1,0.4,1.6,0.6c0.7,0.3,1.4,0.5,2.1,0.8
		c0.7,0.3,1.3,0.7,1.9,1.1c0.6,0.4,1,1,1.4,1.6c0.4,0.6,0.5,1.4,0.5,2.3c0,0.8-0.2,1.5-0.5,2.2s-0.8,1.3-1.4,1.8
		c-0.6,0.5-1.3,1-2.2,1.3C1111.3,321.9,1110.2,322,1109.1,322z"/>
	<path class="st5" d="M1120.8,321.6v-28.5h3.2v19.3h0.1l8.3-10.2h3.6l-6.5,7.8l7.4,11.6h-3.6l-5.7-9.4l-3.6,4.2v5.1H1120.8z"/>
	<path class="st5" d="M1142.2,298.1c-0.6,0-1.2-0.2-1.6-0.6c-0.4-0.4-0.7-0.9-0.7-1.5c0-0.6,0.2-1.2,0.7-1.5s1-0.6,1.6-0.6
		s1.2,0.2,1.6,0.6s0.7,0.9,0.7,1.5c0,0.6-0.2,1.1-0.7,1.5C1143.4,297.9,1142.9,298.1,1142.2,298.1z M1140.6,321.6v-19.4h3.3v19.4
		H1140.6z"/>
	<path class="st5" d="M1158.3,322c-1.3,0-2.5-0.2-3.7-0.7c-1.1-0.5-2.1-1.1-3-2s-1.5-1.9-2-3.2c-0.5-1.3-0.7-2.7-0.7-4.3
		c0-1.6,0.2-3,0.7-4.3c0.5-1.3,1.1-2.3,2-3.2s1.7-1.6,2.8-2c1-0.5,2.1-0.7,3.2-0.7c1.2,0,2.3,0.2,3.3,0.6c1,0.4,1.8,1,2.4,1.8
		c0.7,0.8,1.2,1.8,1.5,2.9c0.3,1.1,0.5,2.4,0.5,3.8c0,0.3,0,0.7,0,1c0,0.3,0,0.6-0.1,0.9h-13.1c0.1,2.1,0.8,3.7,1.9,4.9
		c1.2,1.2,2.7,1.8,4.5,1.8c0.9,0,1.8-0.1,2.6-0.4c0.8-0.3,1.5-0.6,2.3-1.1l1.2,2.2c-0.9,0.5-1.8,1-2.8,1.4
		C1160.8,321.8,1159.6,322,1158.3,322z M1152.2,310.3h10.4c0-2-0.4-3.5-1.3-4.5c-0.8-1-2-1.5-3.5-1.5c-0.7,0-1.4,0.1-2,0.4
		c-0.6,0.3-1.2,0.7-1.7,1.2c-0.5,0.5-0.9,1.2-1.3,1.9C1152.5,308.5,1152.3,309.3,1152.2,310.3z"/>
</g>
</svg>
