<svg xmlns="http://www.w3.org/2000/svg" xmlns:xlink="http://www.w3.org/1999/xlink" viewBox="0 0 1288.77 404.34"><defs><style>.cls-1{fill:url(#Gradient_bez_nazwy);}.cls-2{fill:#fff;}.cls-3{fill:#96c8ff;}.cls-10,.cls-11,.cls-4,.cls-7,.cls-8,.cls-9{fill:#888;}.cls-12,.cls-13,.cls-14,.cls-15,.cls-5{fill:#0096ff;}.cls-6{fill:url(#Gradient_bez_nazwy_2);}.cls-10,.cls-11,.cls-12,.cls-13,.cls-14,.cls-15,.cls-7,.cls-8,.cls-9{isolation:isolate;font-size:40px;font-family:Lato-Regular, Lato;}.cls-7{letter-spacing:-0.06em;}.cls-9{letter-spacing:-0.05em;}.cls-10{letter-spacing:-0.01em;}.cls-11{letter-spacing:-0.06em;}.cls-13{letter-spacing:-0.01em;}.cls-14{letter-spacing:-0.03em;}.cls-15{letter-spacing:-0.02em;}</style><linearGradient id="Gradient_bez_nazwy" x1="49.98" y1="253.83" x2="892.51" y2="253.83" gradientTransform="matrix(1, 0, 0, -1, 0, 406)" gradientUnits="userSpaceOnUse"><stop offset="0" stop-color="#fff"/><stop offset="1" stop-color="#f6f6f6" stop-opacity="0"/></linearGradient><linearGradient id="Gradient_bez_nazwy_2" x1="198.71" y1="2518.94" x2="-650.8" y2="2518.94" gradientTransform="matrix(-1, 0, 0, 1, 587.97, -2266.77)" gradientUnits="userSpaceOnUse"><stop offset="0" stop-color="#f6f6f6" stop-opacity="0"/><stop offset="1" stop-color="#fff"/></linearGradient></defs><title>ElecWindZasób 1</title><g id="Warstwa_2" data-name="Warstwa 2"><g id="Warstwa_1-2" data-name="Warstwa 1"><rect class="cls-1" x="49.98" width="842.53" height="304.34"/><path class="cls-2" d="M50,301.84a47.56,47.56,0,0,1-47.5-47.5V50A47.56,47.56,0,0,1,50,2.5H393.76V301.34a.5.5,0,0,1-.5.5Z"/><path class="cls-3" d="M391.26,5V299.34H50a45.05,45.05,0,0,1-45-45V50A45.05,45.05,0,0,1,50,5H391.26m5-5H50A50,50,0,0,0,0,50V254.34a50,50,0,0,0,50,50H393.26a3,3,0,0,0,3-3Z"/><path class="cls-4" d="M66.1,62.09a2.25,2.25,0,0,1-.4,1.28L49.48,86.15H65.86v3.16H44.38V87.79a1.73,1.73,0,0,1,.11-.6,2.73,2.73,0,0,1,.27-.54L61,63.81H45.14V60.65h21Z"/><path class="cls-4" d="M94.36,89.31h-3a1.33,1.33,0,0,1-.84-.26,1.51,1.51,0,0,1-.48-.66l-2.68-6.92H74.5l-2.68,6.92a1.46,1.46,0,0,1-.46.64,1.29,1.29,0,0,1-.84.28h-3L78.94,60.65h4ZM86.28,78.67,81.78,67c-.14-.35-.28-.75-.42-1.21s-.29-1-.42-1.47a22.91,22.91,0,0,1-.86,2.7l-4.5,11.64Z"/><path class="cls-4" d="M112.8,65.13a1.41,1.41,0,0,1-.39.45.85.85,0,0,1-.51.15,1.48,1.48,0,0,1-.8-.34,12.6,12.6,0,0,0-1.15-.75,8.54,8.54,0,0,0-1.66-.75,6.94,6.94,0,0,0-2.35-.34,7.11,7.11,0,0,0-2.29.35,4.66,4.66,0,0,0-1.66.95,3.79,3.79,0,0,0-1,1.41,4.51,4.51,0,0,0-.35,1.74,3.25,3.25,0,0,0,.59,2,5.06,5.06,0,0,0,1.56,1.35,12.81,12.81,0,0,0,2.2,1l2.52.85a24.92,24.92,0,0,1,2.52,1,8.71,8.71,0,0,1,2.2,1.39,6.57,6.57,0,0,1,1.56,2.06,6.88,6.88,0,0,1,.59,3,9.89,9.89,0,0,1-.64,3.53A8.23,8.23,0,0,1,111.87,87a8.8,8.8,0,0,1-3,1.92,11.29,11.29,0,0,1-4.07.7,12.32,12.32,0,0,1-5.08-1,12,12,0,0,1-3.9-2.73l1.12-1.84a1.15,1.15,0,0,1,.39-.37.92.92,0,0,1,.51-.15,1.14,1.14,0,0,1,.59.21,7.81,7.81,0,0,1,.75.53l1,.7A8.13,8.13,0,0,0,105,86.41a7.58,7.58,0,0,0,2.46-.38,5.52,5.52,0,0,0,1.77-1,4.64,4.64,0,0,0,1.15-1.65,5.61,5.61,0,0,0,.4-2.14,3.58,3.58,0,0,0-.59-2.13,4.92,4.92,0,0,0-1.55-1.39,10.4,10.4,0,0,0-2.2-1l-2.52-.8a18.1,18.1,0,0,1-2.52-1,8.31,8.31,0,0,1-2.2-1.4,6.36,6.36,0,0,1-1.55-2.15A7.6,7.6,0,0,1,97,68.15a7.6,7.6,0,0,1,2.31-5.46A8.28,8.28,0,0,1,102.11,61a10.23,10.23,0,0,1,3.79-.66,12.08,12.08,0,0,1,4.37.76,10.29,10.29,0,0,1,3.47,2.2Z"/><path class="cls-4" d="M139.22,63.91h-9.28v25.4h-3.86V63.91h-9.3V60.65h22.44Z"/><path class="cls-4" d="M168.66,75a16.54,16.54,0,0,1-1,5.91,13.67,13.67,0,0,1-2.88,4.63,12.9,12.9,0,0,1-4.47,3,16,16,0,0,1-11.53,0,12.86,12.86,0,0,1-4.46-3,13.67,13.67,0,0,1-2.88-4.63,17.63,17.63,0,0,1,0-11.82,13.81,13.81,0,0,1,2.88-4.64,13,13,0,0,1,4.46-3,15.93,15.93,0,0,1,11.53,0,13,13,0,0,1,4.47,3,13.81,13.81,0,0,1,2.88,4.64A16.54,16.54,0,0,1,168.66,75Zm-4,0a14.66,14.66,0,0,0-.72-4.74,10.06,10.06,0,0,0-2-3.55,8.94,8.94,0,0,0-3.2-2.23,11,11,0,0,0-4.2-.78,10.7,10.7,0,0,0-4.18.78,8.85,8.85,0,0,0-3.21,2.23,10,10,0,0,0-2.05,3.55,15.93,15.93,0,0,0,0,9.47,10,10,0,0,0,2.05,3.54,8.83,8.83,0,0,0,3.21,2.22,11.79,11.79,0,0,0,8.38,0,8.91,8.91,0,0,0,3.2-2.22,10.11,10.11,0,0,0,2-3.54,14.31,14.31,0,0,0,.74-4.73Z"/><path class="cls-4" d="M188.86,65.13a1.41,1.41,0,0,1-.39.45.85.85,0,0,1-.51.15,1.48,1.48,0,0,1-.8-.34,12.6,12.6,0,0,0-1.15-.75,8.54,8.54,0,0,0-1.66-.75,6.94,6.94,0,0,0-2.35-.34,7.11,7.11,0,0,0-2.29.35,4.66,4.66,0,0,0-1.66.95,3.79,3.79,0,0,0-1,1.41,4.37,4.37,0,0,0-.34,1.75,3.25,3.25,0,0,0,.59,2,5.06,5.06,0,0,0,1.56,1.35,12.81,12.81,0,0,0,2.2,1l2.52.85a24.92,24.92,0,0,1,2.52,1,8.71,8.71,0,0,1,2.2,1.39,6.57,6.57,0,0,1,1.56,2.06,6.88,6.88,0,0,1,.59,3,9.89,9.89,0,0,1-.64,3.53A8.19,8.19,0,0,1,187.94,87a8.8,8.8,0,0,1-3,1.92,11.29,11.29,0,0,1-4.07.7,12.32,12.32,0,0,1-5.08-1,12,12,0,0,1-3.9-2.73l1.05-1.84a1.15,1.15,0,0,1,.39-.37.92.92,0,0,1,.51-.15,1.14,1.14,0,0,1,.59.21,7.81,7.81,0,0,1,.75.53l1,.7A8.13,8.13,0,0,0,181,86.41a7.58,7.58,0,0,0,2.46-.38,5.44,5.44,0,0,0,1.83-1,4.64,4.64,0,0,0,1.15-1.65,5.61,5.61,0,0,0,.4-2.14,3.58,3.58,0,0,0-.59-2.13,4.92,4.92,0,0,0-1.55-1.39,10.4,10.4,0,0,0-2.2-1l-2.52-.79a18.1,18.1,0,0,1-2.52-1,8.31,8.31,0,0,1-2.2-1.4,6.36,6.36,0,0,1-1.55-2.15,7.6,7.6,0,0,1-.59-3.19,7.6,7.6,0,0,1,2.31-5.46,8.21,8.21,0,0,1,2.78-1.7,10.23,10.23,0,0,1,3.79-.66,12.08,12.08,0,0,1,4.37.76,10.29,10.29,0,0,1,3.47,2.2Z"/><path class="cls-4" d="M222.38,75a16.54,16.54,0,0,1-1,5.91,13.67,13.67,0,0,1-2.88,4.63,12.9,12.9,0,0,1-4.47,3,16,16,0,0,1-11.53,0,12.86,12.86,0,0,1-4.46-3,13.67,13.67,0,0,1-2.88-4.63,17.63,17.63,0,0,1,0-11.82A13.81,13.81,0,0,1,198,64.45a13,13,0,0,1,4.46-3,15.93,15.93,0,0,1,11.53,0,13,13,0,0,1,4.47,3,13.81,13.81,0,0,1,2.88,4.64A16.54,16.54,0,0,1,222.38,75Zm-4,0a14.66,14.66,0,0,0-.72-4.74,10.06,10.06,0,0,0-2-3.55,8.94,8.94,0,0,0-3.2-2.23,11,11,0,0,0-4.2-.78,10.7,10.7,0,0,0-4.18.78,8.85,8.85,0,0,0-3.21,2.23,9.76,9.76,0,0,0-2,3.55,15.93,15.93,0,0,0,0,9.47,10.11,10.11,0,0,0,2,3.54,8.83,8.83,0,0,0,3.21,2.22,11.79,11.79,0,0,0,8.38,0,8.91,8.91,0,0,0,3.2-2.22,10.11,10.11,0,0,0,2-3.54A14.31,14.31,0,0,0,218.4,75Z"/><path class="cls-4" d="M264.64,60.65,255.7,89.31h-3.48l-7.28-21.86c-.07-.22-.13-.44-.19-.68s-.13-.5-.19-.76c-.07.26-.14.52-.2.76s-.14.46-.2.68l-7.3,21.86h-3.48l-8.94-28.66h3.22a1.42,1.42,0,0,1,.87.26,1.18,1.18,0,0,1,.45.66l6,19.92c.09.36.18.74.27,1.16s.17.85.25,1.32c.09-.47.19-.91.29-1.33a11.59,11.59,0,0,1,.33-1.15l6.74-19.92a1.4,1.4,0,0,1,.47-.63,1.26,1.26,0,0,1,.85-.29h1.12a1.27,1.27,0,0,1,.84.26,1.66,1.66,0,0,1,.48.66l6.72,19.92c.12.34.23.72.33,1.12s.19.82.29,1.26c.06-.44.14-.86.22-1.26s.16-.78.26-1.12l5.94-19.92a1.13,1.13,0,0,1,.45-.64,1.3,1.3,0,0,1,.85-.28Z"/><path class="cls-4" d="M290.5,89.31h-3a1.33,1.33,0,0,1-.84-.26,1.51,1.51,0,0,1-.48-.66l-2.68-6.92H270.64l-2.7,6.92a1.46,1.46,0,0,1-.46.64,1.29,1.29,0,0,1-.84.28h-3L275.1,60.65H279Zm-8.08-10.64L277.94,67c-.14-.35-.28-.75-.42-1.21s-.29-1-.42-1.47a22.91,22.91,0,0,1-.86,2.7l-4.5,11.64Z"/><path class="cls-4" d="M317.5,60.65V89.31h-1.94a1.69,1.69,0,0,1-.77-.16,2,2,0,0,1-.61-.54L297.6,67l.06,1V89.31h-3.4V60.65h2.44a1.19,1.19,0,0,1,.32.1,1.79,1.79,0,0,1,.28.2,2.35,2.35,0,0,1,.3.33l16.58,21.58c0-.35-.05-.68-.07-1s0-.64,0-.93V60.65Z"/><path class="cls-4" d="M328.7,89.31h-3.88V60.65h3.88Z"/><path class="cls-4" d="M353.7,86.15v3.16H336V60.65h17.66v3.16H339.94v9.52H351.1v3H339.94v9.78Z"/><path class="cls-5" d="M91.74,168.19a10.46,10.46,0,0,1,3-2.54,7.59,7.59,0,0,1,3.84-1,7.27,7.27,0,0,1,3.18.67,6.43,6.43,0,0,1,2.42,2,9.63,9.63,0,0,1,1.54,3.25,16.81,16.81,0,0,1,.54,4.46,14,14,0,0,1-.6,4.17,10.13,10.13,0,0,1-1.73,3.34,8.26,8.26,0,0,1-2.76,2.22,8.16,8.16,0,0,1-3.67.81,7,7,0,0,1-5.56-2.36v9h-3.6V165.05h2.14a.88.88,0,0,1,.94.74Zm.2,12.24a5.65,5.65,0,0,0,2.14,1.86,6.13,6.13,0,0,0,2.6.54,5.18,5.18,0,0,0,4.36-2,9.48,9.48,0,0,0,1.52-5.76,14.44,14.44,0,0,0-.35-3.4,6.69,6.69,0,0,0-1-2.33A4,4,0,0,0,99.56,168a5.43,5.43,0,0,0-2.18-.42,5.68,5.68,0,0,0-3,.8,8.58,8.58,0,0,0-2.44,2.25Z"/><path class="cls-5" d="M114.14,169.11a9,9,0,0,1,2.36-3.25,5.56,5.56,0,0,1,4.65-1,3.13,3.13,0,0,1,1,.44l-.26,2.66a.58.58,0,0,1-.6.5,3.78,3.78,0,0,1-.82-.12,6.23,6.23,0,0,0-1.22-.12,4.76,4.76,0,0,0-1.71.28,3.73,3.73,0,0,0-1.34.83,5.8,5.8,0,0,0-1.06,1.36,10.66,10.66,0,0,0-.85,1.85v12.8h-3.58V165.05h2a1.15,1.15,0,0,1,.8.22,1.49,1.49,0,0,1,.3.76Z"/><path class="cls-5" d="M139.3,166.57a2.35,2.35,0,0,1-.13.74,2.25,2.25,0,0,1-.35.62l-11,14.6h11.12v2.78H123.66v-1.48a2.13,2.13,0,0,1,.12-.61,2.17,2.17,0,0,1,.36-.67l11-14.7h-10.9v-2.8h15Z"/><path class="cls-5" d="M160.88,165.05l-11.3,26.24a1.91,1.91,0,0,1-.45.64,1.23,1.23,0,0,1-.83.24h-2.64l3.7-8L141,165.09h3.08a1.08,1.08,0,0,1,.73.23,1.18,1.18,0,0,1,.37.51l5.42,12.76a13.73,13.73,0,0,1,.54,1.76c.18-.63.38-1.22.6-1.78L157,165.83a1.13,1.13,0,0,1,.41-.53,1.1,1.1,0,0,1,.65-.21Z"/><path class="cls-5" d="M180.22,155.85v29.46H178.1a.91.91,0,0,1-1-.74l-.32-2.46a11.19,11.19,0,0,1-3,2.52,7.83,7.83,0,0,1-7,.33,6.53,6.53,0,0,1-2.42-2,9.31,9.31,0,0,1-1.54-3.24,16.81,16.81,0,0,1-.54-4.46,14,14,0,0,1,.6-4.17,10.16,10.16,0,0,1,1.72-3.35,7.83,7.83,0,0,1,2.75-2.23,8.16,8.16,0,0,1,3.67-.81,7.43,7.43,0,0,1,3.19.63,7.85,7.85,0,0,1,2.37,1.75V155.85Zm-3.56,14A5.65,5.65,0,0,0,174.5,168a6.12,6.12,0,0,0-2.6-.53,5.06,5.06,0,0,0-4.34,2,9.39,9.39,0,0,0-1.52,5.76,14.29,14.29,0,0,0,.34,3.39,6.57,6.57,0,0,0,1,2.32,4,4,0,0,0,1.62,1.33,5.43,5.43,0,0,0,2.18.42,5.8,5.8,0,0,0,3.07-.8,9.26,9.26,0,0,0,2.41-2.26Z"/><path class="cls-5" d="M194.4,164.73a10.33,10.33,0,0,1,4,.74,8.62,8.62,0,0,1,3,2.1,9.19,9.19,0,0,1,1.93,3.29,14.28,14.28,0,0,1,0,8.63,9.39,9.39,0,0,1-1.93,3.28,8.6,8.6,0,0,1-3,2.09,11.36,11.36,0,0,1-8,0,8.44,8.44,0,0,1-3.05-2.09,9.15,9.15,0,0,1-1.93-3.28,14.28,14.28,0,0,1,0-8.63,9,9,0,0,1,1.93-3.29,8.34,8.34,0,0,1,3.05-2.1A10.33,10.33,0,0,1,194.4,164.73Zm0,18.08a5.23,5.23,0,0,0,4.48-2,11.45,11.45,0,0,0,0-11.25,5.19,5.19,0,0,0-4.48-2,6.18,6.18,0,0,0-2.65.52,4.82,4.82,0,0,0-1.88,1.5,6.41,6.41,0,0,0-1.12,2.41,13,13,0,0,0-.37,3.23,9.21,9.21,0,0,0,1.49,5.61A5.28,5.28,0,0,0,194.4,182.81Z"/><path class="cls-5" d="M208.54,185.31V165.05h2.14a.88.88,0,0,1,.94.74l.26,2.08a10,10,0,0,1,2.52-2.26,5.88,5.88,0,0,1,3.24-.88,4.76,4.76,0,0,1,3.31,1.14,6.35,6.35,0,0,1,1.82,3.08,6.81,6.81,0,0,1,1.14-1.9,6.14,6.14,0,0,1,1.55-1.32,6.39,6.39,0,0,1,1.83-.76,8.42,8.42,0,0,1,2-.24,7.53,7.53,0,0,1,2.85.51,5.75,5.75,0,0,1,2.12,1.49,6.56,6.56,0,0,1,1.33,2.41,11,11,0,0,1,.46,3.27v12.9h-3.61v-12.9a5.48,5.48,0,0,0-1-3.61,3.71,3.71,0,0,0-3-1.23,4.34,4.34,0,0,0-1.67.31,3.9,3.9,0,0,0-1.39.91,4.16,4.16,0,0,0-1,1.51,5.61,5.61,0,0,0-.35,2.11v12.9h-3.58v-12.9a5.68,5.68,0,0,0-1-3.64,3.49,3.49,0,0,0-2.86-1.2,4.4,4.4,0,0,0-2.44.71,7.73,7.73,0,0,0-2.06,1.93v15.1Z"/><path class="cls-5" d="M249.94,164.73a10.33,10.33,0,0,1,4,.74,8.62,8.62,0,0,1,3,2.1,9,9,0,0,1,1.92,3.29,14.28,14.28,0,0,1,0,8.63,9.13,9.13,0,0,1-1.92,3.28,8.73,8.73,0,0,1-3,2.09,10.51,10.51,0,0,1-4,.73,10.7,10.7,0,0,1-4-.73,8.47,8.47,0,0,1-3-2.09,9.18,9.18,0,0,1-1.94-3.28,14.28,14.28,0,0,1,0-8.63,9.22,9.22,0,0,1,1.94-3.29,8.41,8.41,0,0,1,3-2.1A10.33,10.33,0,0,1,249.94,164.73Zm0,18.08a5.17,5.17,0,0,0,4.47-2,11.35,11.35,0,0,0,0-11.25,5.15,5.15,0,0,0-4.47-2,6.41,6.41,0,0,0-2.66.52,4.82,4.82,0,0,0-1.88,1.5,6.73,6.73,0,0,0-1.12,2.41,13,13,0,0,0-.37,3.23,9.28,9.28,0,0,0,1.49,5.61A5.3,5.3,0,0,0,249.94,182.81Z"/><path class="cls-5" d="M291.75,165.05l-6.56,20.26h-2.82c-.34,0-.58-.23-.72-.68l-4.48-13.74c-.1-.31-.19-.62-.26-.93s-.13-.63-.2-.93c-.06.3-.13.61-.2.93a6.37,6.37,0,0,1-.26.95l-4.56,13.72a.77.77,0,0,1-.79.68h-2.69l-6.56-20.26h2.8a1.13,1.13,0,0,1,.71.22,1.06,1.06,0,0,1,.39.52l3.89,13c.22,1,.4,1.86.54,2.72.11-.44.24-.89.36-1.34s.27-.92.41-1.38L275,165.67a1.11,1.11,0,0,1,.35-.5,1,1,0,0,1,.61-.2h1.56a1,1,0,0,1,.66.2,1,1,0,0,1,.36.5l4.18,13.12c.15.46.28.92.4,1.38s.24.9.34,1.34c.07-.44.16-.88.25-1.33s.21-.91.33-1.39l4-13a1.07,1.07,0,0,1,.38-.53,1.1,1.1,0,0,1,.66-.21Z"/><path class="cls-5" d="M311.4,182.47a7,7,0,0,1-1.58,1.39,10.1,10.1,0,0,1-2,1,13.59,13.59,0,0,1-2.17.57,13.77,13.77,0,0,1-2.22.19,10.45,10.45,0,0,1-3.87-.71,8.58,8.58,0,0,1-3.07-2.08,9.78,9.78,0,0,1-2-3.39,13.77,13.77,0,0,1-.72-4.64,11.84,11.84,0,0,1,.64-4,9.44,9.44,0,0,1,1.88-3.19,8.46,8.46,0,0,1,3-2.12,9.64,9.64,0,0,1,4-.77,9,9,0,0,1,3.37.61,7.62,7.62,0,0,1,2.68,1.76,8.15,8.15,0,0,1,1.77,2.84,11,11,0,0,1,.64,3.85,2.38,2.38,0,0,1-.18,1.12.77.77,0,0,1-.68.28H297.32a11.48,11.48,0,0,0,.53,3.34,7,7,0,0,0,1.3,2.37,5.55,5.55,0,0,0,2,1.42,7.05,7.05,0,0,0,2.61.47,7.85,7.85,0,0,0,2.31-.31,10.87,10.87,0,0,0,1.66-.67c.4-.2.79-.43,1.17-.67a1.53,1.53,0,0,1,.82-.31.79.79,0,0,1,.68.34Zm-2.88-9.5a7,7,0,0,0-.35-2.27,5.14,5.14,0,0,0-1-1.78,4.59,4.59,0,0,0-1.63-1.16,6.17,6.17,0,0,0-6.23,1.08,7,7,0,0,0-1.87,4.16Z"/><path class="cls-5" d="M80.43,206.69a2.14,2.14,0,0,1-.21,1A2.67,2.67,0,0,1,78.84,209a2.66,2.66,0,0,1-1,.2,2.32,2.32,0,0,1-1-.2,2.88,2.88,0,0,1-.79-.55,2.57,2.57,0,0,1-.54-.8,2.6,2.6,0,0,1,0-2,2.39,2.39,0,0,1,.54-.82,2.44,2.44,0,0,1,.79-.55,2.29,2.29,0,0,1,1-.2,2.6,2.6,0,0,1,2.37,1.57A2.28,2.28,0,0,1,80.43,206.69Zm-.76,6.36v20.26H76.11V213.05Z"/><path class="cls-5" d="M99.15,216.19a10.46,10.46,0,0,1,3-2.54,7.59,7.59,0,0,1,3.84-1,7.27,7.27,0,0,1,3.18.67,6.43,6.43,0,0,1,2.42,2,9.63,9.63,0,0,1,1.54,3.25,16.81,16.81,0,0,1,.54,4.46,14,14,0,0,1-.6,4.17,10.13,10.13,0,0,1-1.73,3.34,8.26,8.26,0,0,1-2.76,2.22,8.16,8.16,0,0,1-3.67.81,7,7,0,0,1-5.54-2.38v9H95.75V213.05h2.19a.87.87,0,0,1,.94.74Zm.18,12.24a5.65,5.65,0,0,0,2.14,1.86,6.13,6.13,0,0,0,2.6.54,5.18,5.18,0,0,0,4.36-2,9.48,9.48,0,0,0,1.52-5.76,14.44,14.44,0,0,0-.35-3.4,6.69,6.69,0,0,0-1-2.33,3.88,3.88,0,0,0-1.66-1.34,5.43,5.43,0,0,0-2.18-.42,5.68,5.68,0,0,0-3,.8,8.65,8.65,0,0,0-2.41,2.26Z"/><path class="cls-5" d="M121.55,217.11a9,9,0,0,1,2.36-3.25,5.56,5.56,0,0,1,4.65-1,3.32,3.32,0,0,1,1,.44l-.26,2.66a.58.58,0,0,1-.6.5,3.78,3.78,0,0,1-.82-.12,6.23,6.23,0,0,0-1.22-.12,4.76,4.76,0,0,0-1.71.28,3.73,3.73,0,0,0-1.34.83,5.8,5.8,0,0,0-1.06,1.36,10.66,10.66,0,0,0-.85,1.85v12.8h-3.58V213.05h2a1.15,1.15,0,0,1,.8.22,1.49,1.49,0,0,1,.3.76Z"/><path class="cls-5" d="M146.71,214.57a2.35,2.35,0,0,1-.13.74,2.25,2.25,0,0,1-.35.62l-11,14.6h11.08v2.78H131.07v-1.48a2.13,2.13,0,0,1,.12-.61,2.17,2.17,0,0,1,.36-.67l11-14.7h-10.9v-2.8h15Z"/><path class="cls-5" d="M166.87,230.47a7,7,0,0,1-1.58,1.39,10.1,10.1,0,0,1-2,1,13.59,13.59,0,0,1-2.17.57,13.77,13.77,0,0,1-2.22.19,10.45,10.45,0,0,1-3.87-.71,8.54,8.54,0,0,1-3.06-2.08,9.69,9.69,0,0,1-2-3.39,13.77,13.77,0,0,1-.72-4.64,11.61,11.61,0,0,1,.65-4,9.17,9.17,0,0,1,1.87-3.19,8.46,8.46,0,0,1,3-2.12,9.64,9.64,0,0,1,4-.77,9,9,0,0,1,3.37.61,7.62,7.62,0,0,1,2.68,1.76,8.15,8.15,0,0,1,1.77,2.84,11,11,0,0,1,.64,3.85,2.38,2.38,0,0,1-.18,1.12.77.77,0,0,1-.68.28H152.79a11.48,11.48,0,0,0,.53,3.34,6.73,6.73,0,0,0,1.31,2.37,5.35,5.35,0,0,0,2,1.42,7,7,0,0,0,2.6.47,7.85,7.85,0,0,0,2.31-.31,11.41,11.41,0,0,0,1.67-.67c.46-.24.85-.47,1.17-.67a1.5,1.5,0,0,1,.81-.31.79.79,0,0,1,.68.34ZM164,221a7,7,0,0,0-.35-2.27,5.14,5.14,0,0,0-1-1.78,4.59,4.59,0,0,0-1.63-1.16,6.17,6.17,0,0,0-6.23,1.08,7,7,0,0,0-1.84,4.16Z"/><path class="cls-5" d="M171.55,233.31V213.05h2.14a.88.88,0,0,1,.94.74l.26,2.08a10,10,0,0,1,2.52-2.26,5.88,5.88,0,0,1,3.24-.88,4.76,4.76,0,0,1,3.31,1.14,6.44,6.44,0,0,1,1.83,3.08,6.42,6.42,0,0,1,1.13-1.9,6.14,6.14,0,0,1,1.55-1.32,6.39,6.39,0,0,1,1.83-.76,8.42,8.42,0,0,1,2-.24,7.53,7.53,0,0,1,2.85.51,5.75,5.75,0,0,1,2.12,1.49,6.56,6.56,0,0,1,1.33,2.41,11,11,0,0,1,.46,3.27v12.9h-3.58v-12.9a5.48,5.48,0,0,0-1-3.61,3.71,3.71,0,0,0-3-1.23,4.34,4.34,0,0,0-1.67.31,3.9,3.9,0,0,0-1.39.91,4.12,4.12,0,0,0-.95,1.51,5.61,5.61,0,0,0-.35,2.11v12.9h-3.58v-12.9a5.68,5.68,0,0,0-1-3.64,3.49,3.49,0,0,0-2.86-1.2,4.4,4.4,0,0,0-2.44.71,7.73,7.73,0,0,0-2.06,1.93v15.1Z"/><path class="cls-5" d="M221.43,213.05l-11.3,26.24a1.91,1.91,0,0,1-.45.64,1.23,1.23,0,0,1-.83.24h-2.64l3.7-8-8.36-19.08h3.08a1.08,1.08,0,0,1,.73.23,1.18,1.18,0,0,1,.37.51l5.42,12.76a13.73,13.73,0,0,1,.54,1.76c.18-.63.38-1.22.6-1.78l5.26-12.74a1.13,1.13,0,0,1,.41-.53,1.1,1.1,0,0,1,.65-.21Z"/><path class="cls-5" d="M236,216.39a.8.8,0,0,1-.74.44,1.48,1.48,0,0,1-.68-.22c-.26-.15-.57-.31-.93-.49a8.63,8.63,0,0,0-1.31-.5,6.1,6.1,0,0,0-1.8-.23,5.2,5.2,0,0,0-1.62.23,3.78,3.78,0,0,0-1.23.63,2.79,2.79,0,0,0-.78.93,2.56,2.56,0,0,0-.27,1.15,1.88,1.88,0,0,0,.45,1.3,4,4,0,0,0,1.19.9,11.1,11.1,0,0,0,1.68.67l1.93.62c.66.22,1.3.46,1.93.73a7,7,0,0,1,1.68,1A4.59,4.59,0,0,1,236.7,225a4.45,4.45,0,0,1,.45,2.09,6.57,6.57,0,0,1-.5,2.59,5.83,5.83,0,0,1-1.48,2.06,7.45,7.45,0,0,1-2.4,1.37,9.9,9.9,0,0,1-3.28.5,10.08,10.08,0,0,1-3.84-.69,9.6,9.6,0,0,1-2.92-1.77l.84-1.36a1,1,0,0,1,.38-.4,1,1,0,0,1,.56-.14,1.31,1.31,0,0,1,.76.28c.26.18.59.39,1,.62a7.86,7.86,0,0,0,1.39.62,6.45,6.45,0,0,0,2,.28,5.62,5.62,0,0,0,1.82-.27,4,4,0,0,0,1.3-.73,3,3,0,0,0,.77-1.06,3.51,3.51,0,0,0,.25-1.28,2.13,2.13,0,0,0-.45-1.39,3.76,3.76,0,0,0-1.19-.94,9.48,9.48,0,0,0-1.69-.68l-1.94-.61c-.66-.22-1.31-.46-1.94-.73a6.85,6.85,0,0,1-1.69-1,4.69,4.69,0,0,1-1.19-1.53,5,5,0,0,1-.45-2.21,5.44,5.44,0,0,1,1.88-4.11,6.78,6.78,0,0,1,2.26-1.29,8.83,8.83,0,0,1,3.06-.48,9.57,9.57,0,0,1,3.59.63,8.42,8.42,0,0,1,2.75,1.73Z"/><path class="cls-5" d="M250.51,213.15v2a.85.85,0,0,1-.54.88l-3.22,1.42v15.84h-3.56V218.77l-3.62,1.58v-2.1a.86.86,0,0,1,.5-.8l3.12-1.4v-12.2h3.56v10.88Z"/><path class="cls-5" d="M262.41,212.73a10.33,10.33,0,0,1,4,.74,8.62,8.62,0,0,1,3,2.1,9.19,9.19,0,0,1,1.93,3.29,14.28,14.28,0,0,1,0,8.63,9.39,9.39,0,0,1-1.93,3.28,8.6,8.6,0,0,1-3,2.09,11.36,11.36,0,0,1-8,0,8.44,8.44,0,0,1-3.05-2.09,9.15,9.15,0,0,1-1.93-3.28,14.28,14.28,0,0,1,0-8.63,9,9,0,0,1,1.93-3.29,8.34,8.34,0,0,1,3.05-2.1A10.33,10.33,0,0,1,262.41,212.73Zm0,18.08a5.23,5.23,0,0,0,4.48-2,11.45,11.45,0,0,0,0-11.25,5.19,5.19,0,0,0-4.48-2,6.18,6.18,0,0,0-2.65.52,4.82,4.82,0,0,0-1.88,1.5,6.41,6.41,0,0,0-1.12,2.41,12.56,12.56,0,0,0-.37,3.23,9.21,9.21,0,0,0,1.49,5.61A5.28,5.28,0,0,0,262.41,230.81Z"/><path class="cls-5" d="M304.19,213.05l-6.56,20.26h-2.82c-.35,0-.59-.23-.72-.68l-4.48-13.74a5.82,5.82,0,0,1-.26-.93c-.07-.32-.14-.63-.2-.93-.07.3-.14.61-.2.93a8.39,8.39,0,0,1-.26.95l-4.56,13.72a.79.79,0,0,1-.8.68h-2.68l-6.56-20.26h2.85a1.12,1.12,0,0,1,1.1.74l3.88,13c.22,1,.4,1.86.54,2.72.12-.44.24-.89.37-1.34s.26-.92.41-1.38l4.28-13.12a1,1,0,0,1,.35-.5,1,1,0,0,1,.61-.2H290a1,1,0,0,1,.66.2,1.06,1.06,0,0,1,.36.5l4.18,13.12c.14.46.28.92.4,1.38s.23.9.34,1.34c.06-.44.15-.88.25-1.33s.21-.91.33-1.39l4-13a1,1,0,0,1,.38-.53,1,1,0,0,1,.66-.21Z"/><path class="cls-5" d="M323.83,230.47a7,7,0,0,1-1.58,1.39,10.1,10.1,0,0,1-2,1,13.59,13.59,0,0,1-2.17.57,13.77,13.77,0,0,1-2.22.19,10.45,10.45,0,0,1-3.87-.71,8.49,8.49,0,0,1-3.05-2.11,9.69,9.69,0,0,1-2-3.39,13.77,13.77,0,0,1-.72-4.64,11.61,11.61,0,0,1,.65-4,9.17,9.17,0,0,1,1.87-3.19,8.46,8.46,0,0,1,3-2.12,9.64,9.64,0,0,1,4-.77,9,9,0,0,1,3.37.61,7.62,7.62,0,0,1,2.68,1.76,8.15,8.15,0,0,1,1.77,2.84,11,11,0,0,1,.64,3.85,2.38,2.38,0,0,1-.18,1.12.77.77,0,0,1-.68.28H309.75a11.48,11.48,0,0,0,.53,3.34,6.73,6.73,0,0,0,1.31,2.37,5.35,5.35,0,0,0,2,1.42,7,7,0,0,0,2.6.47,7.85,7.85,0,0,0,2.31-.31,11.41,11.41,0,0,0,1.67-.67c.46-.24.85-.47,1.17-.67a1.5,1.5,0,0,1,.81-.31.79.79,0,0,1,.68.34ZM320.94,221a7,7,0,0,0-.35-2.27,5.14,5.14,0,0,0-1-1.78,4.59,4.59,0,0,0-1.63-1.16,6.17,6.17,0,0,0-6.23,1.08,7,7,0,0,0-1.85,4.13Z"/><rect class="cls-6" x="389.26" y="100" width="849.51" height="304.34"/><path class="cls-2" d="M895,401.84V102.5h343.76a47.56,47.56,0,0,1,47.5,47.5V354.34a47.56,47.56,0,0,1-47.5,47.5Z"/><path class="cls-3" d="M1238.77,105a45.05,45.05,0,0,1,45,45V354.34a45.05,45.05,0,0,1-45,45H897.51V105h341.26m0-5H892.51V404.34h346.26a50,50,0,0,0,50-50h0V150A50,50,0,0,0,1238.77,100Z"/><text class="cls-7" transform="translate(953.45 189.31)">L</text><text class="cls-8" transform="translate(972.65 189.31)">OKALIZ</text><text class="cls-9" transform="translate(1114.07 189.31)">A</text><text class="cls-8" transform="translate(1140.41 189.31)">C</text><text class="cls-10" transform="translate(1167.13 189.31)">J</text><text class="cls-11" transform="translate(1183.65 189.31)">A</text><text class="cls-12" transform="translate(1018.24 285.31)">ląd</text><text class="cls-13" transform="translate(1069.96 285.31)">o</text><text class="cls-14" transform="translate(1092.34 285.31)">w</text><text class="cls-12" transform="translate(1123.48 285.31)">e </text><text class="cls-12" transform="translate(1002.31 333.31)">i mo</text><text class="cls-15" transform="translate(1077.73 333.31)">r</text><text class="cls-12" transform="translate(1092.17 333.31)">skie</text><rect class="cls-2" x="448.76" y="52.5" width="391.26" height="299.34"/><path class="cls-3" d="M837.51,55V349.34H451.26V55H837.51m5-5H446.26V354.34H842.51Z"/><path class="cls-4" d="M634.52,110.65v28.66h-3.4v-22a5,5,0,0,1,.07-1l-9.84,17.92a1.47,1.47,0,0,1-1.4.9h-.56a1.49,1.49,0,0,1-1.4-.9l-10-18a16.65,16.65,0,0,1,.12,2v21.06h-3.4V110.65h2.86a2.41,2.41,0,0,1,.8.1,1.06,1.06,0,0,1,.54.56l9.9,17.64c.16.32.32.65.47,1s.3.7.43,1.06l.42-1.07a10.34,10.34,0,0,1,.48-1l9.72-17.62a1,1,0,0,1,.53-.56,2.47,2.47,0,0,1,.81-.1Z"/><path class="cls-4" d="M668.32,125a16.54,16.54,0,0,1-1,5.91,13.67,13.67,0,0,1-2.88,4.63,12.9,12.9,0,0,1-4.47,3,16,16,0,0,1-11.53,0,13,13,0,0,1-4.46-3,13.67,13.67,0,0,1-2.88-4.63,17.63,17.63,0,0,1,0-11.82,13.81,13.81,0,0,1,2.88-4.64,13,13,0,0,1,4.46-3,15.93,15.93,0,0,1,11.53,0,13,13,0,0,1,4.47,3,13.81,13.81,0,0,1,2.88,4.64A16.54,16.54,0,0,1,668.32,125Zm-4,0a14.66,14.66,0,0,0-.72-4.74,10.06,10.06,0,0,0-2-3.55,8.81,8.81,0,0,0-3.2-2.23,11.64,11.64,0,0,0-8.38,0,9,9,0,0,0-3.21,2.23,10,10,0,0,0-2,3.55,15.93,15.93,0,0,0,0,9.47,10.14,10.14,0,0,0,2,3.54,9.17,9.17,0,0,0,3.21,2.22,11.75,11.75,0,0,0,8.38,0,8.79,8.79,0,0,0,3.2-2.22,10.11,10.11,0,0,0,2-3.54,14.31,14.31,0,0,0,.74-4.73Z"/><path class="cls-4" d="M693.94,133.39a.71.71,0,0,1,.56.26l1.54,1.66a12.17,12.17,0,0,1-4.27,3.18,14.54,14.54,0,0,1-6.07,1.14,14.34,14.34,0,0,1-5.6-1.07,12.29,12.29,0,0,1-4.3-3,13.81,13.81,0,0,1-2.76-4.63,17.44,17.44,0,0,1-1-5.94,16.71,16.71,0,0,1,1-5.94,13.62,13.62,0,0,1,2.87-4.64,12.88,12.88,0,0,1,4.43-3,14.84,14.84,0,0,1,5.7-1.07,13.84,13.84,0,0,1,5.4,1,13.49,13.49,0,0,1,4.2,2.66l-1.28,1.78a1.08,1.08,0,0,1-.31.33.9.9,0,0,1-.51.13,1.6,1.6,0,0,1-.88-.39,12.06,12.06,0,0,0-1.36-.87,11.22,11.22,0,0,0-9.26-.49,8.83,8.83,0,0,0-3.17,2.23,10.53,10.53,0,0,0-2.07,3.56,14.41,14.41,0,0,0-.74,4.74,13.88,13.88,0,0,0,.77,4.78,10.9,10.9,0,0,0,2.1,3.55,9.1,9.1,0,0,0,3.14,2.21,10.09,10.09,0,0,0,3.91.76,14.94,14.94,0,0,0,2.31-.15,9.6,9.6,0,0,0,1.9-.47,8.18,8.18,0,0,0,1.62-.81,11.29,11.29,0,0,0,1.49-1.17A1,1,0,0,1,693.94,133.39Z"/><path class="cls-5" d="M549.4,235.31V215.05h2.14a.87.87,0,0,1,.94.74l.26,2.08a10.45,10.45,0,0,1,2.52-2.26,6,6,0,0,1,3.24-.88,4.76,4.76,0,0,1,3.31,1.14,6.32,6.32,0,0,1,1.83,3.13,6.48,6.48,0,0,1,4.51-4,8.42,8.42,0,0,1,2-.24,7.53,7.53,0,0,1,2.85.51,5.75,5.75,0,0,1,2.12,1.49,6.56,6.56,0,0,1,1.33,2.41,10.64,10.64,0,0,1,.46,3.27v12.9h-3.58v-12.9a5.42,5.42,0,0,0-1-3.61,3.71,3.71,0,0,0-3-1.23,4.54,4.54,0,0,0-1.67.31,3.9,3.9,0,0,0-1.39.91,4.24,4.24,0,0,0-1,1.51,6.07,6.07,0,0,0-.35,2.11v12.9h-3.58v-12.9a5.62,5.62,0,0,0-1-3.64,3.47,3.47,0,0,0-2.86-1.2,4.4,4.4,0,0,0-2.44.71,8.22,8.22,0,0,0-2.06,1.93v15.1Z"/><path class="cls-5" d="M586.82,208.69a2.14,2.14,0,0,1-.21,1,2.81,2.81,0,0,1-.56.8,2.57,2.57,0,0,1-1.82.75,2.48,2.48,0,0,1-1-.2,2.88,2.88,0,0,1-.79-.55,3.31,3.31,0,0,1-.54-.8,2.32,2.32,0,0,1-.2-1,2.66,2.66,0,0,1,.2-1,2.78,2.78,0,0,1,.54-.82,2.44,2.44,0,0,1,.79-.55,2.48,2.48,0,0,1,1-.2,2.66,2.66,0,0,1,1,.2,2.28,2.28,0,0,1,.82.55,2.59,2.59,0,0,1,.77,1.82Zm-.76,6.36v20.26H582.5V215.05Z"/><path class="cls-5" d="M595.48,205.85v17.34h.92a1.4,1.4,0,0,0,1.24-.56l6.4-6.86a2.7,2.7,0,0,1,.59-.53,1.59,1.59,0,0,1,.83-.19h3.22L601.22,223a4.5,4.5,0,0,1-1.16,1.06,3.44,3.44,0,0,1,.65.55,4.21,4.21,0,0,1,.55.71l7.92,10H606a1.79,1.79,0,0,1-.79-.15,1.32,1.32,0,0,1-.57-.55l-6.66-8.3a1.56,1.56,0,0,0-.59-.55,2.24,2.24,0,0,0-.89-.13h-1v9.68h-3.56V205.85Z"/><path class="cls-5" d="M615.6,219.11a9.25,9.25,0,0,1,2.36-3.25,5.19,5.19,0,0,1,3.42-1.17,4.65,4.65,0,0,1,1.23.14,3.13,3.13,0,0,1,1,.44l-.26,2.66a.58.58,0,0,1-.6.5,3.78,3.78,0,0,1-.82-.12,6.23,6.23,0,0,0-1.22-.12,4.76,4.76,0,0,0-1.71.28,4,4,0,0,0-1.34.83,6.38,6.38,0,0,0-1.06,1.36,12.39,12.39,0,0,0-.85,1.85v12.8h-3.58V215.05h2a1.09,1.09,0,0,1,.8.22,1.31,1.31,0,0,1,.3.76Z"/><path class="cls-5" d="M634.5,214.73a10.33,10.33,0,0,1,4,.74,8.41,8.41,0,0,1,3,2.1,9,9,0,0,1,1.93,3.29,14.28,14.28,0,0,1,0,8.63,9.15,9.15,0,0,1-1.93,3.28,8.6,8.6,0,0,1-3,2.09,10.51,10.51,0,0,1-4,.73,10.7,10.7,0,0,1-4-.73,8.6,8.6,0,0,1-3-2.09,9.39,9.39,0,0,1-1.93-3.28,14.28,14.28,0,0,1,0-8.63,9.19,9.19,0,0,1,1.93-3.29,8.49,8.49,0,0,1,3-2.1A10.33,10.33,0,0,1,634.5,214.73Zm0,18.08a5.19,5.19,0,0,0,4.48-2,11.45,11.45,0,0,0,0-11.25,5.17,5.17,0,0,0-4.48-2,6.36,6.36,0,0,0-2.65.52,4.82,4.82,0,0,0-1.88,1.5,6.73,6.73,0,0,0-1.12,2.41,13,13,0,0,0-.37,3.23,9.25,9.25,0,0,0,1.46,5.58A5.29,5.29,0,0,0,634.5,232.81Z"/><path class="cls-5" d="M648.42,240.15a1.09,1.09,0,0,1-.22-.26.77.77,0,0,1-.06-.3.47.47,0,0,1,.09-.28,1.33,1.33,0,0,1,.21-.26c.14-.15.31-.34.51-.58a7.47,7.47,0,0,0,.63-.85,8.68,8.68,0,0,0,.59-1.08,5.49,5.49,0,0,0,.39-1.25h-.26a2.23,2.23,0,0,1-1.69-.69,2.51,2.51,0,0,1-.65-1.77,2.18,2.18,0,0,1,.65-1.6,2.33,2.33,0,0,1,1.73-.66,2.4,2.4,0,0,1,1.06.22,2.09,2.09,0,0,1,.77.61,2.77,2.77,0,0,1,.47.9,3.47,3.47,0,0,1,.16,1.11,7.39,7.39,0,0,1-.25,1.87,8.77,8.77,0,0,1-.74,1.92,11.65,11.65,0,0,1-1.19,1.85,10.92,10.92,0,0,1-1.6,1.66Z"/><path class="cls-5" d="M667.94,235.31V215.05h2.14a.87.87,0,0,1,.94.74l.26,2.08a10.45,10.45,0,0,1,2.52-2.26,6,6,0,0,1,3.24-.88,4.76,4.76,0,0,1,3.31,1.14,6.37,6.37,0,0,1,1.83,3.08,6.48,6.48,0,0,1,4.51-4,8.42,8.42,0,0,1,2-.24,7.53,7.53,0,0,1,2.85.51,5.75,5.75,0,0,1,2.12,1.49,6.56,6.56,0,0,1,1.33,2.41,10.64,10.64,0,0,1,.46,3.27v12.9h-3.58v-12.9a5.42,5.42,0,0,0-1-3.61,3.71,3.71,0,0,0-3-1.23,4.54,4.54,0,0,0-1.67.31,3.9,3.9,0,0,0-1.39.91,4.24,4.24,0,0,0-1,1.51,6.07,6.07,0,0,0-.35,2.11v12.9h-3.58v-12.9a5.62,5.62,0,0,0-1-3.64,3.47,3.47,0,0,0-2.86-1.2,4.4,4.4,0,0,0-2.44.71,8.22,8.22,0,0,0-2.06,1.93v15.1Z"/><path class="cls-5" d="M700.34,217.91a11.5,11.5,0,0,1,3.62-2.42,11.13,11.13,0,0,1,4.3-.8,7.51,7.51,0,0,1,3,.56,6.09,6.09,0,0,1,2.22,1.56,6.67,6.67,0,0,1,1.36,2.42,10,10,0,0,1,.46,3.12v13h-1.56a1.7,1.7,0,0,1-.8-.17,1.14,1.14,0,0,1-.44-.67l-.4-1.92c-.5.46-1,.9-1.56,1.31a8.57,8.57,0,0,1-1.6,1,8,8,0,0,1-1.79.6,9.33,9.33,0,0,1-2.11.21,7.28,7.28,0,0,1-2.22-.33,5.27,5.27,0,0,1-1.81-1,4.81,4.81,0,0,1-1.22-1.67,5.78,5.78,0,0,1-.45-2.39A4.39,4.39,0,0,1,700,228a5.79,5.79,0,0,1,2.14-2A13.66,13.66,0,0,1,706,224.6a28.69,28.69,0,0,1,5.84-.63v-1.58a5.42,5.42,0,0,0-1-3.57,3.67,3.67,0,0,0-3-1.21,6.38,6.38,0,0,0-2.21.33,8.73,8.73,0,0,0-1.54.74c-.43.27-.8.52-1.12.74a1.57,1.57,0,0,1-.93.33,1.06,1.06,0,0,1-.62-.19,2,2,0,0,1-.44-.47Zm11.5,8.28a29.54,29.54,0,0,0-4.19.39,11.52,11.52,0,0,0-2.82.81,4,4,0,0,0-1.58,1.18,2.51,2.51,0,0,0-.49,1.52,3.45,3.45,0,0,0,.26,1.38,2.56,2.56,0,0,0,.71.95,2.67,2.67,0,0,0,1.06.54,5.29,5.29,0,0,0,1.31.17,7.62,7.62,0,0,0,1.72-.19,6.52,6.52,0,0,0,1.47-.55,8.31,8.31,0,0,0,1.32-.86,11.07,11.07,0,0,0,1.23-1.14Z"/><path class="cls-5" d="M729.72,215.15v2a.85.85,0,0,1-.54.88l-3.24,1.44v15.84h-3.56V220.77l-3.62,1.58v-2.1a.86.86,0,0,1,.5-.8l3.12-1.4v-12.2h3.56v10.88Z"/><path class="cls-5" d="M749.52,232.47a7,7,0,0,1-1.58,1.39,10.1,10.1,0,0,1-2,1,13.12,13.12,0,0,1-4.39.76,10.45,10.45,0,0,1-3.87-.71,8.54,8.54,0,0,1-3.06-2.08,9.69,9.69,0,0,1-2-3.39,13.77,13.77,0,0,1-.72-4.64,12.11,12.11,0,0,1,.65-4,9.26,9.26,0,0,1,1.87-3.19,8.55,8.55,0,0,1,3-2.12,9.64,9.64,0,0,1,4-.77,9,9,0,0,1,3.37.61,7.62,7.62,0,0,1,2.68,1.76,8.15,8.15,0,0,1,1.77,2.84,10.74,10.74,0,0,1,.64,3.85,2.38,2.38,0,0,1-.18,1.12.74.74,0,0,1-.68.28H735.44a12.2,12.2,0,0,0,.53,3.34,6.73,6.73,0,0,0,1.31,2.37,5.35,5.35,0,0,0,2,1.42,7,7,0,0,0,2.6.47,7.53,7.53,0,0,0,2.31-.31,11.18,11.18,0,0,0,2.84-1.34,1.5,1.5,0,0,1,.81-.31.79.79,0,0,1,.68.34ZM746.64,223a7,7,0,0,0-.35-2.27,5.05,5.05,0,0,0-1-1.78,4.47,4.47,0,0,0-1.63-1.16,5.25,5.25,0,0,0-2.18-.41,5.49,5.49,0,0,0-4,1.49,7,7,0,0,0-1.85,4.13Z"/><path class="cls-5" d="M604.64,256.69a2.14,2.14,0,0,1-.21,1,2.81,2.81,0,0,1-.56.8,2.57,2.57,0,0,1-1.82.75,2.48,2.48,0,0,1-1-.2,2.88,2.88,0,0,1-.79-.55,3.31,3.31,0,0,1-.54-.8,2.32,2.32,0,0,1-.2-1,2.66,2.66,0,0,1,.2-1,2.78,2.78,0,0,1,.54-.82,2.44,2.44,0,0,1,.79-.55,2.48,2.48,0,0,1,1-.2,2.66,2.66,0,0,1,1,.2,2.28,2.28,0,0,1,.82.55,2.59,2.59,0,0,1,.77,1.82Zm-.76,6.36v20.26h-3.56V263.05Z"/><path class="cls-5" d="M636.72,253.85v29.46H634.6a.92.92,0,0,1-1-.74l-.32-2.46a11,11,0,0,1-3,2.52,7.49,7.49,0,0,1-3.84,1,7.19,7.19,0,0,1-3.16-.67,6.79,6.79,0,0,1-2.42-2,9.49,9.49,0,0,1-1.54-3.24,16.81,16.81,0,0,1-.54-4.46,14,14,0,0,1,.6-4.17,10.35,10.35,0,0,1,1.72-3.35,8,8,0,0,1,2.84-2.24,8.16,8.16,0,0,1,3.67-.81,7.43,7.43,0,0,1,3.19.63,7.57,7.57,0,0,1,2.37,1.75V253.85Zm-3.56,14A5.57,5.57,0,0,0,631,266a6,6,0,0,0-2.6-.53,5.13,5.13,0,0,0-4.34,2,9.41,9.41,0,0,0-1.52,5.76,14.83,14.83,0,0,0,.34,3.39,6.57,6.57,0,0,0,1,2.32,4,4,0,0,0,1.62,1.33,5.43,5.43,0,0,0,2.18.42,5.8,5.8,0,0,0,3.07-.8,8.65,8.65,0,0,0,2.41-2.26Z"/><path class="cls-5" d="M659,263.05v20.26h-2.08a.92.92,0,0,1-1-.74l-.28-2.18a11.23,11.23,0,0,1-3,2.35,7.81,7.81,0,0,1-3.76.89,7.37,7.37,0,0,1-2.93-.55,5.86,5.86,0,0,1-2.13-1.55,6.74,6.74,0,0,1-1.29-2.42,11.12,11.12,0,0,1-.43-3.14V263.05h3.56V276a5.42,5.42,0,0,0,1.05,3.56,3.92,3.92,0,0,0,3.21,1.26,5.94,5.94,0,0,0,3-.75,9,9,0,0,0,2.53-2.07V263.05Z"/><path class="cls-5" d="M678.64,264.57a2.1,2.1,0,0,1-.13.74,1.81,1.81,0,0,1-.35.62l-11,14.6h11.08v2.78H663v-1.48a2.13,2.13,0,0,1,.12-.61,2.17,2.17,0,0,1,.36-.67l11-14.7h-10.9v-2.8h15Zm-4.78-8a2.3,2.3,0,0,1-.21,1,2.77,2.77,0,0,1-.56.79,2.61,2.61,0,0,1-.81.54,2.49,2.49,0,0,1-2,0,2.64,2.64,0,0,1-.79-.54,3.07,3.07,0,0,1-.54-.79,2.48,2.48,0,0,1-.2-1,2.66,2.66,0,0,1,.2-1,3,3,0,0,1,.54-.82,2.44,2.44,0,0,1,.79-.55,2.49,2.49,0,0,1,2,0,2.38,2.38,0,0,1,.81.55,2.44,2.44,0,0,1,.56.82,2.37,2.37,0,0,1,.21,1Z"/><path class="cls-5" d="M698.8,280.47a7,7,0,0,1-1.58,1.39,10.1,10.1,0,0,1-2,1,13.59,13.59,0,0,1-2.17.57,12.72,12.72,0,0,1-2.22.19,10.45,10.45,0,0,1-3.87-.71,8.63,8.63,0,0,1-3-2.11,9.69,9.69,0,0,1-2-3.39,13.77,13.77,0,0,1-.72-4.64,12.11,12.11,0,0,1,.65-4,9.42,9.42,0,0,1,1.87-3.19,8.68,8.68,0,0,1,3-2.12,9.64,9.64,0,0,1,4-.77,9,9,0,0,1,3.37.61,7.62,7.62,0,0,1,2.68,1.76,7.86,7.86,0,0,1,1.77,2.84,10.74,10.74,0,0,1,.64,3.85,2.38,2.38,0,0,1-.18,1.12.72.72,0,0,1-.68.28H684.72a12.2,12.2,0,0,0,.53,3.34,6.73,6.73,0,0,0,1.31,2.37,5.35,5.35,0,0,0,2,1.42,7,7,0,0,0,2.6.47,7.53,7.53,0,0,0,2.31-.31,11.37,11.37,0,0,0,2.84-1.34,1.53,1.53,0,0,1,.81-.31.77.77,0,0,1,.68.34ZM695.94,271a7,7,0,0,0-.35-2.27,5.05,5.05,0,0,0-1-1.78,4.47,4.47,0,0,0-1.63-1.16,5.25,5.25,0,0,0-2.18-.41,5.53,5.53,0,0,0-4,1.49,7,7,0,0,0-1.94,4.13Z"/></g></g></svg>