<?xml version="1.0" encoding="utf-8"?>
<!-- Generator: Adobe Illustrator 23.0.1, SVG Export Plug-In . SVG Version: 6.00 Build 0)  -->
<svg version="1.1" id="Warstwa_1" xmlns="http://www.w3.org/2000/svg" xmlns:xlink="http://www.w3.org/1999/xlink" x="0px" y="0px"
	 viewBox="0 0 1288.8 404.3" style="enable-background:new 0 0 1288.8 404.3;" xml:space="preserve">
<style type="text/css">
	.st0{fill:url(#SVGID_1_);}
	.st1{fill:#FFFFFF;}
	.st2{fill:#96C8FF;}
	.st3{fill:#333333;}
	.st4{fill:#0096FF;}
	.st5{fill:url(#SVGID_2_);}
	.st6{enable-background:new    ;}
	.st7{font-family:'Lato-Regular';}
	.st8{font-size:40px;}
	.st9{letter-spacing:-1;}
</style>
<title>ElecWindZasób 1</title>
<linearGradient id="SVGID_1_" gradientUnits="userSpaceOnUse" x1="50" y1="457.85" x2="892.5" y2="457.85" gradientTransform="matrix(1 0 0 -1 0 610)">
	<stop  offset="0" style="stop-color:#FFFFFF"/>
	<stop  offset="1" style="stop-color:#F6F6F6;stop-opacity:0"/>
</linearGradient>
<rect x="50" class="st0" width="842.5" height="304.3"/>
<path class="st1" d="M50,301.8c-26.2,0-47.5-21.3-47.5-47.5V50C2.5,23.8,23.8,2.5,50,2.5h343.8v298.8c0,0.3-0.2,0.5-0.5,0.5H50z"/>
<path class="st2" d="M391.3,5v294.3H50c-24.8,0-45-20.2-45-45V50C5,25.2,25.2,5,50,5H391.3 M396.3,0H50C22.4,0,0,22.4,0,50v204.3
	c0,27.6,22.4,50,50,50l0,0h343.3c1.7,0,3-1.3,3-3V0z"/>
<path class="st3" d="M66.1,62.1c0,0.5-0.1,0.9-0.4,1.3L49.5,86.2h16.4v3.2H44.4v-1.5c0-0.2,0-0.4,0.1-0.6s0.2-0.4,0.3-0.5l16.2-23
	H45.1v-3.2h21V62.1z"/>
<path class="st3" d="M94.4,89.3h-3c-0.3,0-0.6-0.1-0.8-0.3c-0.2-0.2-0.4-0.4-0.5-0.7l-2.7-6.9H74.5l-2.7,6.9
	c-0.1,0.3-0.3,0.5-0.5,0.6c-0.2,0.2-0.5,0.3-0.8,0.3h-3l11.4-28.7h4L94.4,89.3z M86.3,78.7L81.8,67c-0.1-0.3-0.3-0.8-0.4-1.2
	s-0.3-1-0.4-1.5c-0.2,0.9-0.5,1.8-0.9,2.7l-4.5,11.6L86.3,78.7z"/>
<path class="st3" d="M112.8,65.1c-0.1,0.2-0.2,0.3-0.4,0.4c-0.1,0.1-0.3,0.2-0.5,0.2c-0.3,0-0.6-0.1-0.8-0.3
	c-0.4-0.3-0.8-0.5-1.2-0.8c-0.5-0.3-1.1-0.6-1.7-0.8c-0.8-0.2-1.6-0.4-2.3-0.3c-0.8,0-1.6,0.1-2.3,0.3c-0.6,0.2-1.2,0.5-1.7,1
	c-0.4,0.4-0.8,0.9-1,1.4c-0.2,0.6-0.3,1.1-0.3,1.7c0,0.7,0.2,1.4,0.6,2s1,1,1.6,1.3c0.7,0.4,1.4,0.7,2.2,1l2.5,0.8
	c0.9,0.3,1.7,0.6,2.5,1s1.5,0.8,2.2,1.4s1.2,1.3,1.6,2.1c0.4,0.9,0.6,2,0.6,3c0,1.2-0.2,2.4-0.6,3.5s-1.1,2-1.9,2.8
	c-0.9,0.8-1.9,1.5-3,1.9c-1.3,0.5-2.7,0.7-4.1,0.7c-1.7,0-3.5-0.3-5.1-1c-1.5-0.6-2.8-1.6-3.9-2.7l1.1-1.8c0.1-0.2,0.2-0.3,0.4-0.4
	c0.2-0.1,0.3-0.2,0.5-0.2s0.4,0.1,0.6,0.2c0.3,0.2,0.5,0.3,0.8,0.5l1,0.7c1.4,1,3.1,1.5,4.8,1.4c0.8,0,1.7-0.1,2.5-0.4
	c0.6-0.2,1.2-0.6,1.8-1c0.5-0.5,0.9-1,1.2-1.7c0.3-0.7,0.4-1.4,0.4-2.1c0-0.8-0.2-1.5-0.6-2.1s-0.9-1-1.6-1.4s-1.4-0.8-2.2-1
	l-2.5-0.8c-0.9-0.3-1.7-0.6-2.5-1c-0.8-0.3-1.5-0.8-2.2-1.4s-1.2-1.3-1.6-2.2c-0.4-1-0.7-2.1-0.7-3.2c0-2.1,0.8-4,2.3-5.5
	c0.8-0.7,1.8-1.3,2.8-1.7c1.2-0.5,2.5-0.7,3.8-0.7c1.5,0,3,0.2,4.4,0.8c1.3,0.5,2.5,1.2,3.5,2.2L112.8,65.1z"/>
<path class="st3" d="M139.2,63.9h-9.3v25.4H126V63.9h-9.3v-3.3h22.4v3.3H139.2z"/>
<path class="st3" d="M168.7,75c0,2-0.3,4-1,5.9c-0.6,1.7-1.6,3.3-2.9,4.6c-1.3,1.3-2.8,2.3-4.5,3c-3.7,1.4-7.8,1.4-11.5,0
	c-1.7-0.7-3.2-1.7-4.5-3s-2.2-2.9-2.9-4.6c-1.4-3.8-1.4-8,0-11.8c0.6-1.7,1.6-3.3,2.9-4.6c1.3-1.3,2.8-2.3,4.5-3
	c3.7-1.4,7.8-1.4,11.5,0c1.7,0.7,3.2,1.7,4.5,3c1.3,1.3,2.2,2.9,2.9,4.6C168.4,71,168.7,73,168.7,75z M164.7,75
	c0-1.6-0.2-3.2-0.7-4.7c-0.4-1.3-1.1-2.5-2-3.6c-0.9-1-2-1.7-3.2-2.2c-1.3-0.5-2.8-0.8-4.2-0.8s-2.9,0.2-4.2,0.8
	c-1.2,0.5-2.3,1.3-3.2,2.2c-0.9,1-1.6,2.2-2.1,3.6c-1,3.1-1,6.4,0,9.5c0.4,1.3,1.1,2.5,2.1,3.5c0.9,1,2,1.7,3.2,2.2
	c2.7,1,5.7,1,8.4,0c1.2-0.5,2.3-1.3,3.2-2.2c0.9-1,1.6-2.2,2-3.5C164.5,78.2,164.7,76.6,164.7,75L164.7,75z"/>
<path class="st3" d="M188.9,65.1c-0.1,0.2-0.2,0.3-0.4,0.4c-0.1,0.1-0.3,0.2-0.5,0.2c-0.3,0-0.6-0.1-0.8-0.3
	c-0.4-0.3-0.8-0.5-1.1-0.8c-0.5-0.3-1.1-0.6-1.7-0.8c-0.8-0.2-1.6-0.4-2.4-0.3c-0.8,0-1.6,0.1-2.3,0.3c-0.6,0.2-1.2,0.5-1.7,1
	c-0.4,0.4-0.8,0.9-1,1.4c-0.2,0.6-0.3,1.1-0.3,1.8c0,0.7,0.2,1.4,0.6,2c0.4,0.6,1,1,1.6,1.3c0.7,0.4,1.4,0.7,2.2,1l2.5,0.8
	c0.9,0.3,1.7,0.6,2.5,1s1.5,0.8,2.2,1.4s1.2,1.3,1.6,2.1c0.4,0.9,0.6,2,0.6,3c0,1.2-0.2,2.4-0.6,3.5c-0.4,1.1-1.1,2-1.9,2.8
	c-0.9,0.8-1.9,1.5-3,1.9c-1.3,0.5-2.7,0.7-4.1,0.7c-1.7,0-3.5-0.3-5.1-1c-1.5-0.6-2.8-1.6-3.9-2.7L173,84c0.1-0.2,0.2-0.3,0.4-0.4
	s0.3-0.2,0.5-0.2s0.4,0.1,0.6,0.2c0.3,0.2,0.5,0.3,0.8,0.5l1,0.7c1.4,1,3.1,1.5,4.8,1.4c0.8,0,1.7-0.1,2.5-0.4
	c0.7-0.2,1.3-0.6,1.8-1c0.5-0.5,0.9-1,1.1-1.7c0.3-0.7,0.4-1.4,0.4-2.1c0-0.8-0.2-1.5-0.6-2.1c-0.4-0.6-0.9-1-1.6-1.4
	c-0.7-0.4-1.4-0.8-2.2-1l-2.5-0.8c-0.9-0.3-1.7-0.6-2.5-1c-0.8-0.3-1.5-0.8-2.2-1.4s-1.2-1.3-1.6-2.2c-0.4-1-0.6-2.1-0.6-3.2
	c0-2.1,0.8-4,2.3-5.5c0.8-0.7,1.7-1.3,2.8-1.7c1.2-0.5,2.5-0.7,3.8-0.7c1.5,0,3,0.2,4.4,0.8c1.3,0.5,2.5,1.2,3.5,2.2L188.9,65.1z"/>
<path class="st3" d="M222.4,75c0,2-0.3,4-1,5.9c-0.6,1.7-1.6,3.3-2.9,4.6c-1.3,1.3-2.8,2.3-4.5,3c-3.7,1.4-7.8,1.4-11.5,0
	c-1.7-0.7-3.2-1.7-4.5-3s-2.2-2.9-2.9-4.6c-1.4-3.8-1.4-8,0-11.8c0.6-1.7,1.6-3.3,2.8-4.6c1.3-1.3,2.8-2.3,4.5-3
	c3.7-1.4,7.8-1.4,11.5,0c1.7,0.7,3.2,1.7,4.5,3c1.3,1.3,2.2,2.9,2.9,4.6C222,71,222.4,73,222.4,75z M218.4,75c0-1.6-0.2-3.2-0.7-4.7
	c-0.4-1.3-1.1-2.5-2-3.6c-0.9-1-2-1.7-3.2-2.2c-1.3-0.5-2.8-0.8-4.2-0.8s-2.9,0.2-4.2,0.8c-1.2,0.5-2.3,1.3-3.2,2.2
	c-0.9,1-1.6,2.2-2,3.6c-1,3.1-1,6.4,0,9.5c0.4,1.3,1.1,2.5,2,3.5s2,1.7,3.2,2.2c2.7,1,5.7,1,8.4,0c1.2-0.5,2.3-1.3,3.2-2.2
	c0.9-1,1.6-2.2,2-3.5C218.2,78.2,218.4,76.6,218.4,75L218.4,75z"/>
<path class="st3" d="M264.6,60.7l-8.9,28.7h-3.5l-7.3-21.9c-0.1-0.2-0.1-0.4-0.2-0.7s-0.1-0.5-0.2-0.8c-0.1,0.3-0.1,0.5-0.2,0.8
	s-0.1,0.5-0.2,0.7l-7.3,21.9h-3.5l-8.9-28.7h3.2c0.3,0,0.6,0.1,0.9,0.3c0.2,0.2,0.4,0.4,0.4,0.7l6,19.9c0.1,0.4,0.2,0.7,0.3,1.2
	s0.2,0.8,0.3,1.3c0.1-0.5,0.2-0.9,0.3-1.3s0.2-0.8,0.3-1.2l6.7-19.9c0.1-0.3,0.3-0.5,0.5-0.6c0.2-0.2,0.5-0.3,0.9-0.3h1.1
	c0.3,0,0.6,0.1,0.8,0.3s0.4,0.4,0.5,0.7l6.7,19.9c0.1,0.3,0.2,0.7,0.3,1.1s0.2,0.8,0.3,1.3c0.1-0.4,0.1-0.9,0.2-1.3s0.2-0.8,0.3-1.1
	l5.9-19.9c0.1-0.3,0.2-0.5,0.5-0.6c0.2-0.2,0.5-0.3,0.9-0.3h2.9V60.7z"/>
<path class="st3" d="M290.5,89.3h-3c-0.3,0-0.6-0.1-0.8-0.3c-0.2-0.2-0.4-0.4-0.5-0.7l-2.7-6.9h-12.9l-2.7,6.9
	c-0.1,0.3-0.3,0.5-0.5,0.6c-0.2,0.2-0.5,0.3-0.8,0.3h-3l11.5-28.7h3.9L290.5,89.3z M282.4,78.7L277.9,67c-0.1-0.3-0.3-0.8-0.4-1.2
	s-0.3-1-0.4-1.5c-0.2,0.9-0.5,1.8-0.9,2.7l-4.5,11.6L282.4,78.7z"/>
<path class="st3" d="M317.5,60.7v28.7h-1.9c-0.3,0-0.5,0-0.8-0.2c-0.2-0.1-0.4-0.3-0.6-0.5L297.6,67l0.1,1v21.3h-3.4V60.7h2.4
	c0.1,0,0.2,0.1,0.3,0.1c0.1,0.1,0.2,0.1,0.3,0.2c0.1,0.1,0.2,0.2,0.3,0.3l16.6,21.6c0-0.3,0-0.7-0.1-1s0-0.6,0-0.9V60.7H317.5z"/>
<path class="st3" d="M328.7,89.3h-3.9V60.7h3.9V89.3z"/>
<path class="st3" d="M353.7,86.2v3.2H336V60.7h17.7v3.2H340v9.5h11.2v3H340v9.8L353.7,86.2z"/>
<path class="st4" d="M91.7,168.2c0.8-1,1.8-1.9,3-2.5c1.2-0.7,2.5-1,3.8-1c1.1,0,2.2,0.2,3.2,0.7s1.8,1.1,2.4,2
	c0.7,1,1.2,2.1,1.5,3.3c0.4,1.5,0.6,3,0.5,4.5c0,1.4-0.2,2.8-0.6,4.2c-0.4,1.2-0.9,2.3-1.7,3.3c-0.7,0.9-1.7,1.7-2.8,2.2
	c-1.1,0.6-2.4,0.8-3.7,0.8c-2.1,0.1-4.2-0.8-5.6-2.4v9h-3.6v-27.2h2.1c0.5,0,0.9,0.3,0.9,0.7L91.7,168.2z M91.9,180.4
	c0.5,0.8,1.3,1.4,2.1,1.9c0.8,0.4,1.7,0.6,2.6,0.5c1.7,0.1,3.3-0.7,4.4-2c1.1-1.7,1.6-3.7,1.5-5.8c0-1.1-0.1-2.3-0.3-3.4
	c-0.2-0.8-0.5-1.6-1-2.3c-0.4-0.6-1-1.1-1.6-1.3c-0.7-0.3-1.4-0.4-2.2-0.4c-1.1,0-2.1,0.3-3,0.8c-1,0.6-1.8,1.3-2.4,2.3L91.9,180.4
	L91.9,180.4z"/>
<path class="st4" d="M114.1,169.1c0.5-1.2,1.3-2.4,2.4-3.3c1.3-1,3-1.4,4.7-1c0.4,0.1,0.7,0.2,1,0.4l-0.3,2.7c0,0.3-0.3,0.5-0.6,0.5
	c-0.3,0-0.6-0.1-0.8-0.1c-0.4-0.1-0.8-0.1-1.2-0.1c-0.6,0-1.2,0.1-1.7,0.3s-1,0.5-1.3,0.8c-0.4,0.4-0.8,0.9-1.1,1.4
	c-0.3,0.6-0.6,1.2-0.8,1.9v12.8h-3.6v-20.3h2c0.3,0,0.6,0,0.8,0.2c0.2,0.2,0.3,0.5,0.3,0.8L114.1,169.1z"/>
<path class="st4" d="M139.3,166.6c0,0.3,0,0.5-0.1,0.7s-0.2,0.4-0.4,0.6l-11,14.6h11.1v2.8h-15.3v-1.5c0-0.2,0.1-0.4,0.1-0.6
	c0.1-0.2,0.2-0.5,0.4-0.7l11-14.7h-10.9V165h15L139.3,166.6z"/>
<path class="st4" d="M160.9,165.1l-11.3,26.2c-0.1,0.2-0.3,0.5-0.4,0.6c-0.2,0.2-0.5,0.3-0.8,0.2h-2.6l3.7-8l-8.4-19.1h3.1
	c0.3,0,0.5,0.1,0.7,0.2c0.2,0.1,0.3,0.3,0.4,0.5l5.4,12.8c0.2,0.6,0.4,1.2,0.5,1.8c0.2-0.6,0.4-1.2,0.6-1.8l5.3-12.7
	c0.1-0.2,0.2-0.4,0.4-0.5s0.4-0.2,0.6-0.2H160.9z"/>
<path class="st4" d="M180.2,155.9v29.5h-2.1c-0.5,0.1-0.9-0.3-1-0.7l-0.3-2.5c-0.8,1-1.9,1.9-3,2.5c-2.2,1.2-4.7,1.3-7,0.3
	c-1-0.5-1.8-1.1-2.4-2c-0.7-1-1.2-2.1-1.5-3.2c-0.4-1.5-0.6-3-0.5-4.5c0-1.4,0.2-2.8,0.6-4.2c0.4-1.2,0.9-2.4,1.7-3.4
	c0.7-0.9,1.7-1.7,2.8-2.2c1.1-0.6,2.4-0.8,3.7-0.8c1.1,0,2.2,0.2,3.2,0.6c0.9,0.4,1.7,1,2.4,1.8v-11.2L180.2,155.9L180.2,155.9z
	 M176.7,169.9c-0.6-0.8-1.3-1.4-2.2-1.9c-0.8-0.4-1.7-0.5-2.6-0.5c-1.7-0.1-3.3,0.6-4.3,2c-1.1,1.7-1.7,3.7-1.5,5.8
	c0,1.1,0.1,2.3,0.3,3.4c0.2,0.8,0.5,1.6,1,2.3c0.4,0.6,1,1,1.6,1.3c0.7,0.3,1.4,0.4,2.2,0.4c1.1,0,2.1-0.3,3.1-0.8
	c0.9-0.6,1.7-1.4,2.4-2.3V169.9z"/>
<path class="st4" d="M194.4,164.7c1.4,0,2.7,0.2,4,0.7c1.1,0.5,2.2,1.2,3,2.1c0.9,0.9,1.5,2.1,1.9,3.3c0.9,2.8,0.9,5.8,0,8.6
	c-0.4,1.2-1.1,2.3-1.9,3.3c-0.8,0.9-1.9,1.6-3,2.1c-2.6,1-5.4,1-8,0c-1.2-0.5-2.2-1.2-3.1-2.1c-0.9-0.9-1.5-2.1-1.9-3.3
	c-0.9-2.8-0.9-5.8,0-8.6c0.4-1.2,1.1-2.3,1.9-3.3c0.8-0.9,1.9-1.6,3.1-2.1C191.7,165,193,164.7,194.4,164.7z M194.4,182.8
	c1.7,0.1,3.4-0.6,4.5-2c2-3.5,2-7.8,0-11.3c-1.1-1.4-2.7-2.1-4.5-2c-0.9,0-1.8,0.2-2.6,0.5c-0.7,0.3-1.4,0.8-1.9,1.5
	s-0.9,1.5-1.1,2.4c-0.3,1.1-0.4,2.1-0.4,3.2c-0.1,2,0.4,3.9,1.5,5.6C191,182.2,192.7,182.9,194.4,182.8z"/>
<path class="st4" d="M208.5,185.3V165h2.1c0.5,0,0.9,0.3,0.9,0.7l0.3,2.1c0.7-0.9,1.6-1.7,2.5-2.3c1-0.6,2.1-0.9,3.2-0.9
	c1.2-0.1,2.4,0.4,3.3,1.1c0.9,0.8,1.5,1.9,1.8,3.1c0.3-0.7,0.7-1.3,1.1-1.9c0.4-0.5,1-1,1.6-1.3s1.2-0.6,1.8-0.8
	c0.7-0.2,1.3-0.2,2-0.2c1,0,1.9,0.2,2.9,0.5c0.8,0.3,1.5,0.8,2.1,1.5s1.1,1.5,1.3,2.4c0.3,1.1,0.5,2.2,0.5,3.3v12.9h-3.6v-12.9
	c0.1-1.3-0.3-2.6-1-3.6c-0.8-0.8-1.9-1.3-3-1.2c-0.6,0-1.1,0.1-1.7,0.3c-0.5,0.2-1,0.5-1.4,0.9s-0.8,0.9-1,1.5
	c-0.3,0.7-0.4,1.4-0.4,2.1v12.9h-3.6v-12.9c0.1-1.3-0.3-2.6-1-3.6c-0.7-0.8-1.8-1.3-2.9-1.2c-0.9,0-1.7,0.2-2.4,0.7
	c-0.8,0.5-1.5,1.2-2.1,1.9v15.1L208.5,185.3z"/>
<path class="st4" d="M249.9,164.7c1.4,0,2.7,0.2,4,0.7c1.1,0.5,2.2,1.2,3,2.1c0.9,0.9,1.5,2.1,1.9,3.3c0.9,2.8,0.9,5.8,0,8.6
	c-0.4,1.2-1.1,2.3-1.9,3.3c-0.8,0.9-1.9,1.6-3,2.1c-1.3,0.5-2.6,0.7-4,0.7s-2.7-0.2-4-0.7c-1.1-0.5-2.2-1.2-3-2.1
	c-0.9-0.9-1.5-2.1-1.9-3.3c-0.9-2.8-0.9-5.8,0-8.6c0.4-1.2,1.1-2.3,1.9-3.3c0.8-0.9,1.9-1.6,3-2.1
	C247.2,165,248.6,164.7,249.9,164.7z M249.9,182.8c1.7,0.1,3.4-0.6,4.5-2c2-3.5,2-7.8,0-11.3c-1.1-1.4-2.7-2.1-4.5-2
	c-0.9,0-1.8,0.2-2.7,0.5c-0.7,0.3-1.4,0.8-1.9,1.5s-0.9,1.5-1.1,2.4c-0.3,1.1-0.4,2.1-0.4,3.2c-0.1,2,0.4,3.9,1.5,5.6
	C246.5,182.2,248.2,182.9,249.9,182.8z"/>
<path class="st4" d="M291.8,165.1l-6.6,20.3h-2.8c-0.3,0-0.6-0.2-0.7-0.7l-4.5-13.7c-0.1-0.3-0.2-0.6-0.3-0.9s-0.1-0.6-0.2-0.9
	c-0.1,0.3-0.1,0.6-0.2,0.9c-0.1,0.3-0.1,0.6-0.3,0.9l-4.6,13.7c0,0.4-0.4,0.7-0.8,0.7h-2.7l-6.6-20.3h2.8c0.3,0,0.5,0.1,0.7,0.2
	c0.2,0.1,0.3,0.3,0.4,0.5l3.9,13c0.2,1,0.4,1.9,0.5,2.7c0.1-0.4,0.2-0.9,0.4-1.3s0.3-0.9,0.4-1.4l4.3-13.1c0.1-0.2,0.2-0.4,0.4-0.5
	c0.2-0.1,0.4-0.2,0.6-0.2h1.6c0.2,0,0.5,0.1,0.7,0.2c0.2,0.1,0.3,0.3,0.4,0.5l4.2,13.1c0.1,0.5,0.3,0.9,0.4,1.4s0.2,0.9,0.3,1.3
	c0.1-0.4,0.2-0.9,0.3-1.3s0.2-0.9,0.3-1.4l4-13c0.1-0.2,0.2-0.4,0.4-0.5c0.2-0.1,0.4-0.2,0.7-0.2H291.8z"/>
<path class="st4" d="M311.4,182.5c-0.5,0.5-1,1-1.6,1.4s-1.3,0.7-2,1c-0.7,0.2-1.4,0.4-2.2,0.6c-0.7,0.1-1.5,0.2-2.2,0.2
	c-1.3,0-2.6-0.2-3.9-0.7c-1.2-0.5-2.2-1.2-3.1-2.1c-0.9-1-1.6-2.1-2-3.4c-0.5-1.5-0.7-3.1-0.7-4.6c0-1.4,0.2-2.7,0.6-4
	c0.4-1.2,1-2.3,1.9-3.2c0.8-0.9,1.9-1.6,3-2.1c1.3-0.5,2.6-0.8,4-0.8c1.2,0,2.3,0.2,3.4,0.6c1,0.4,1.9,1,2.7,1.8
	c0.8,0.8,1.4,1.8,1.8,2.8c0.4,1.2,0.7,2.5,0.6,3.9c0,0.4,0,0.8-0.2,1.1c-0.2,0.2-0.4,0.3-0.7,0.3h-13.6c0,1.1,0.2,2.3,0.5,3.3
	c0.3,0.9,0.7,1.7,1.3,2.4c0.6,0.6,1.2,1.1,2,1.4c0.8,0.3,1.7,0.5,2.6,0.5c0.8,0,1.6-0.1,2.3-0.3c0.6-0.2,1.1-0.4,1.7-0.7
	c0.4-0.2,0.8-0.4,1.2-0.7c0.2-0.2,0.5-0.3,0.8-0.3s0.5,0.1,0.7,0.3L311.4,182.5z M308.5,173c0-0.8-0.1-1.5-0.4-2.3
	c-0.2-0.7-0.6-1.3-1-1.8c-0.5-0.5-1-0.9-1.6-1.2c-2.1-0.8-4.5-0.4-6.2,1.1c-1.1,1.1-1.7,2.6-1.9,4.2H308.5z"/>
<path class="st4" d="M80.4,206.7c0,0.3-0.1,0.7-0.2,1c-0.3,0.6-0.8,1.1-1.4,1.3c-0.3,0.1-0.7,0.2-1,0.2s-0.7-0.1-1-0.2
	c-0.3-0.1-0.6-0.3-0.8-0.6c-0.2-0.2-0.4-0.5-0.5-0.8c-0.3-0.6-0.3-1.4,0-2c0.1-0.3,0.3-0.6,0.5-0.8s0.5-0.4,0.8-0.6
	c0.3-0.1,0.7-0.2,1-0.2c1,0,2,0.6,2.4,1.6C80.4,206,80.4,206.3,80.4,206.7z M79.7,213.1v20.3h-3.6v-20.3H79.7z"/>
<path class="st4" d="M99.2,216.2c0.8-1,1.8-1.9,3-2.5c1.2-0.7,2.5-1,3.8-1c1.1,0,2.2,0.2,3.2,0.7s1.8,1.1,2.4,2
	c0.7,1,1.2,2.1,1.5,3.3c0.4,1.5,0.6,3,0.5,4.5c0,1.4-0.2,2.8-0.6,4.2c-0.4,1.2-0.9,2.3-1.7,3.3c-0.7,0.9-1.7,1.7-2.8,2.2
	c-1.1,0.6-2.4,0.8-3.7,0.8c-2.1,0.1-4.1-0.8-5.5-2.4v9h-3.6v-27.1h2.2c0.5,0,0.9,0.3,0.9,0.7L99.2,216.2z M99.3,228.4
	c0.5,0.8,1.3,1.4,2.1,1.9c0.8,0.4,1.7,0.6,2.6,0.5c1.7,0.1,3.3-0.7,4.4-2c1.1-1.7,1.6-3.7,1.5-5.8c0-1.1-0.1-2.3-0.3-3.4
	c-0.2-0.8-0.5-1.6-1-2.3c-0.4-0.6-1-1.1-1.7-1.3c-0.7-0.3-1.4-0.4-2.2-0.4c-1.1,0-2.1,0.3-3,0.8c-0.9,0.6-1.8,1.4-2.4,2.3V228.4z"/>
<path class="st4" d="M121.6,217.1c0.5-1.2,1.3-2.4,2.4-3.3c1.3-1,3-1.4,4.6-1c0.4,0.1,0.7,0.2,1,0.4l-0.3,2.7c0,0.3-0.3,0.5-0.6,0.5
	s-0.6-0.1-0.8-0.1c-0.4-0.1-0.8-0.1-1.2-0.1c-0.6,0-1.2,0.1-1.7,0.3s-1,0.5-1.3,0.8c-0.4,0.4-0.8,0.9-1.1,1.4
	c-0.3,0.6-0.6,1.2-0.8,1.9v12.8h-3.6v-20.3h2c0.3,0,0.6,0,0.8,0.2c0.2,0.2,0.3,0.5,0.3,0.8L121.6,217.1z"/>
<path class="st4" d="M146.7,214.6c0,0.3,0,0.5-0.1,0.7s-0.2,0.4-0.4,0.6l-11,14.6h11.1v2.8h-15.2v-1.5c0-0.2,0.1-0.4,0.1-0.6
	c0.1-0.2,0.2-0.5,0.4-0.7l11-14.7h-10.9V213h15L146.7,214.6z"/>
<path class="st4" d="M166.9,230.5c-0.5,0.5-1,1-1.6,1.4s-1.3,0.7-2,1c-0.7,0.2-1.4,0.4-2.2,0.6c-0.7,0.1-1.5,0.2-2.2,0.2
	c-1.3,0-2.6-0.2-3.9-0.7c-1.2-0.5-2.2-1.2-3.1-2.1c-0.9-1-1.6-2.1-2-3.4c-0.5-1.5-0.7-3.1-0.7-4.6c0-1.4,0.2-2.7,0.6-4
	c0.4-1.2,1-2.3,1.9-3.2c0.8-0.9,1.9-1.6,3-2.1c1.3-0.5,2.6-0.8,4-0.8c1.2,0,2.3,0.2,3.4,0.6c1,0.4,1.9,1,2.7,1.8s1.4,1.8,1.8,2.8
	c0.4,1.2,0.7,2.5,0.6,3.9c0,0.4,0,0.8-0.2,1.1c-0.2,0.2-0.4,0.3-0.7,0.3h-13.6c0,1.1,0.2,2.3,0.5,3.3c0.3,0.9,0.7,1.7,1.3,2.4
	c0.5,0.6,1.2,1.1,2,1.4c0.8,0.3,1.7,0.5,2.6,0.5c0.8,0,1.6-0.1,2.3-0.3c0.6-0.2,1.1-0.4,1.7-0.7c0.5-0.2,0.9-0.5,1.2-0.7
	c0.2-0.2,0.5-0.3,0.8-0.3s0.5,0.1,0.7,0.3L166.9,230.5z M164,221c0-0.8-0.1-1.5-0.4-2.3c-0.2-0.7-0.6-1.3-1-1.8
	c-0.5-0.5-1-0.9-1.6-1.2c-2.1-0.8-4.5-0.4-6.2,1.1c-1.1,1.1-1.7,2.6-1.8,4.2H164z"/>
<path class="st4" d="M171.6,233.3V213h2.1c0.5,0,0.9,0.3,0.9,0.7l0.3,2.1c0.7-0.9,1.6-1.7,2.5-2.3c1-0.6,2.1-0.9,3.2-0.9
	c1.2-0.1,2.4,0.4,3.3,1.1c0.9,0.8,1.5,1.9,1.8,3.1c0.3-0.7,0.6-1.3,1.1-1.9c0.4-0.5,1-1,1.6-1.3s1.2-0.6,1.8-0.8
	c0.7-0.2,1.3-0.2,2-0.2c1,0,1.9,0.2,2.9,0.5c0.8,0.3,1.5,0.8,2.1,1.5s1.1,1.5,1.3,2.4c0.3,1.1,0.5,2.2,0.5,3.3v12.9h-3.6v-12.9
	c0.1-1.3-0.3-2.6-1-3.6c-0.8-0.8-1.9-1.3-3-1.2c-0.6,0-1.1,0.1-1.7,0.3c-0.5,0.2-1,0.5-1.4,0.9s-0.7,0.9-0.9,1.5
	c-0.3,0.7-0.4,1.4-0.4,2.1v12.9h-3.6v-12.9c0.1-1.3-0.3-2.6-1-3.6c-0.7-0.8-1.8-1.3-2.9-1.2c-0.9,0-1.7,0.2-2.4,0.7
	c-0.8,0.5-1.5,1.2-2.1,1.9v15.1L171.6,233.3z"/>
<path class="st4" d="M221.4,213.1l-11.3,26.2c-0.1,0.2-0.3,0.5-0.4,0.6c-0.2,0.2-0.5,0.3-0.8,0.2h-2.6l3.7-8l-8.4-19.1h3.1
	c0.3,0,0.5,0.1,0.7,0.2c0.2,0.1,0.3,0.3,0.4,0.5l5.4,12.8c0.2,0.6,0.4,1.2,0.5,1.8c0.2-0.6,0.4-1.2,0.6-1.8l5.3-12.7
	c0.1-0.2,0.2-0.4,0.4-0.5s0.4-0.2,0.6-0.2H221.4z"/>
<path class="st4" d="M236,216.4c-0.1,0.3-0.4,0.4-0.7,0.4c-0.2,0-0.5-0.1-0.7-0.2c-0.3-0.1-0.6-0.3-0.9-0.5
	c-0.4-0.2-0.9-0.4-1.3-0.5c-0.6-0.2-1.2-0.2-1.8-0.2c-0.5,0-1.1,0.1-1.6,0.2c-0.4,0.1-0.9,0.3-1.2,0.6c-0.3,0.2-0.6,0.6-0.8,0.9
	c-0.2,0.4-0.3,0.8-0.3,1.1c0,0.5,0.1,0.9,0.4,1.3c0.3,0.4,0.7,0.7,1.2,0.9c0.5,0.3,1.1,0.5,1.7,0.7l1.9,0.6c0.7,0.2,1.3,0.5,1.9,0.7
	c0.6,0.3,1.2,0.6,1.7,1s0.9,0.9,1.2,1.5s0.5,1.4,0.4,2.1c0,0.9-0.2,1.8-0.5,2.6s-0.8,1.5-1.5,2.1s-1.5,1.1-2.4,1.4
	c-1.1,0.3-2.2,0.5-3.3,0.5c-1.3,0-2.6-0.2-3.8-0.7c-1.1-0.4-2.1-1-2.9-1.8l0.8-1.4c0.1-0.2,0.2-0.3,0.4-0.4c0.2-0.1,0.4-0.1,0.6-0.1
	c0.3,0,0.5,0.1,0.8,0.3s0.6,0.4,1,0.6c0.4,0.3,0.9,0.5,1.4,0.6c0.6,0.2,1.3,0.3,2,0.3c0.6,0,1.2-0.1,1.8-0.3
	c0.5-0.2,0.9-0.4,1.3-0.7c0.3-0.3,0.6-0.7,0.8-1.1c0.2-0.4,0.2-0.8,0.3-1.3c0-0.5-0.1-1-0.4-1.4c-0.3-0.4-0.7-0.7-1.2-0.9
	c-0.5-0.3-1.1-0.5-1.7-0.7l-1.9-0.6c-0.7-0.2-1.3-0.5-1.9-0.7c-0.6-0.3-1.2-0.6-1.7-1s-0.9-0.9-1.2-1.5c-0.3-0.7-0.5-1.4-0.4-2.2
	c0-1.6,0.7-3.1,1.9-4.1c0.7-0.6,1.4-1,2.3-1.3c1-0.3,2-0.5,3.1-0.5c1.2,0,2.4,0.2,3.6,0.6c1,0.4,2,1,2.8,1.7L236,216.4z"/>
<path class="st4" d="M250.5,213.1v2c0,0.4-0.2,0.7-0.5,0.9l-3.2,1.4v15.8h-3.6v-14.5l-3.6,1.6v-2.1c0-0.3,0.2-0.7,0.5-0.8l3.1-1.4
	v-12.2h3.6v10.9L250.5,213.1z"/>
<path class="st4" d="M262.4,212.7c1.4,0,2.7,0.2,4,0.7c1.1,0.5,2.2,1.2,3,2.1c0.9,0.9,1.5,2.1,1.9,3.3c0.9,2.8,0.9,5.8,0,8.6
	c-0.4,1.2-1.1,2.3-1.9,3.3c-0.8,0.9-1.9,1.6-3,2.1c-2.6,1-5.4,1-8,0c-1.2-0.5-2.2-1.2-3.1-2.1c-0.9-0.9-1.5-2.1-1.9-3.3
	c-0.9-2.8-0.9-5.8,0-8.6c0.4-1.2,1.1-2.3,1.9-3.3c0.8-0.9,1.9-1.6,3.1-2.1C259.7,213,261,212.7,262.4,212.7z M262.4,230.8
	c1.7,0.1,3.4-0.6,4.5-2c2-3.5,2-7.8,0-11.3c-1.1-1.4-2.7-2.1-4.5-2c-0.9,0-1.8,0.2-2.6,0.5c-0.7,0.3-1.4,0.8-1.9,1.5
	s-0.9,1.5-1.1,2.4c-0.3,1.1-0.4,2.1-0.4,3.2c-0.1,2,0.4,3.9,1.5,5.6C259,230.2,260.7,230.9,262.4,230.8z"/>
<path class="st4" d="M304.2,213.1l-6.6,20.3h-2.8c-0.4,0-0.6-0.2-0.7-0.7l-4.5-13.7c-0.1-0.3-0.2-0.6-0.3-0.9
	c-0.1-0.3-0.1-0.6-0.2-0.9c-0.1,0.3-0.1,0.6-0.2,0.9c-0.1,0.3-0.2,0.6-0.3,0.9l-4.6,13.7c-0.1,0.4-0.4,0.7-0.8,0.7h-2.7l-6.6-20.3
	h2.9c0.5,0,0.9,0.3,1.1,0.7l3.9,13c0.2,1,0.4,1.9,0.5,2.7c0.1-0.4,0.2-0.9,0.4-1.3s0.3-0.9,0.4-1.4l4.3-13.1
	c0.1-0.2,0.2-0.4,0.4-0.5c0.2-0.1,0.4-0.2,0.6-0.2h1.5c0.2,0,0.5,0.1,0.7,0.2c0.2,0.1,0.3,0.3,0.4,0.5l4.2,13.1
	c0.1,0.5,0.3,0.9,0.4,1.4s0.2,0.9,0.3,1.3c0.1-0.4,0.1-0.9,0.3-1.3s0.2-0.9,0.3-1.4l4-13c0.1-0.2,0.2-0.4,0.4-0.5
	c0.2-0.1,0.4-0.2,0.7-0.2H304.2z"/>
<path class="st4" d="M323.8,230.5c-0.5,0.5-1,1-1.6,1.4s-1.3,0.7-2,1c-0.7,0.2-1.4,0.4-2.2,0.6c-0.7,0.1-1.5,0.2-2.2,0.2
	c-1.3,0-2.6-0.2-3.9-0.7c-1.2-0.5-2.2-1.2-3-2.1c-0.9-1-1.6-2.1-2-3.4c-0.5-1.5-0.7-3.1-0.7-4.6c0-1.4,0.2-2.7,0.6-4
	c0.4-1.2,1-2.3,1.9-3.2c0.8-0.9,1.9-1.6,3-2.1c1.3-0.5,2.6-0.8,4-0.8c1.2,0,2.3,0.2,3.4,0.6c1,0.4,1.9,1,2.7,1.8
	c0.8,0.8,1.4,1.8,1.8,2.8c0.4,1.2,0.7,2.5,0.6,3.9c0,0.4,0,0.8-0.2,1.1c-0.2,0.2-0.4,0.3-0.7,0.3h-13.6c0,1.1,0.2,2.3,0.5,3.3
	c0.3,0.9,0.7,1.7,1.3,2.4c0.5,0.6,1.2,1.1,2,1.4c0.8,0.3,1.7,0.5,2.6,0.5c0.8,0,1.6-0.1,2.3-0.3c0.6-0.2,1.1-0.4,1.7-0.7
	c0.5-0.2,0.9-0.5,1.2-0.7c0.2-0.2,0.5-0.3,0.8-0.3s0.5,0.1,0.7,0.3L323.8,230.5z M320.9,221c0-0.8-0.1-1.5-0.4-2.3
	c-0.2-0.7-0.6-1.3-1-1.8c-0.5-0.5-1-0.9-1.6-1.2c-2.1-0.8-4.5-0.4-6.2,1.1c-1.1,1.1-1.7,2.6-1.9,4.1L320.9,221L320.9,221z"/>
<linearGradient id="SVGID_2_" gradientUnits="userSpaceOnUse" x1="2374.6699" y1="2314.9199" x2="1525.1699" y2="2314.9199" gradientTransform="matrix(-1 0 0 1 2763.97 -2062.77)">
	<stop  offset="0" style="stop-color:#F6F6F6;stop-opacity:0"/>
	<stop  offset="1" style="stop-color:#FFFFFF"/>
</linearGradient>
<rect x="389.3" y="100" class="st5" width="849.5" height="304.3"/>
<path class="st1" d="M895,401.8V102.5h343.8c26.2,0,47.5,21.3,47.5,47.5v204.3c0,26.2-21.3,47.5-47.5,47.5H895z"/>
<path class="st2" d="M1238.8,105c24.8,0,45,20.2,45,45v204.3c0,24.8-20.2,45-45,45H897.5V105H1238.8 M1238.8,100H892.5v304.3h346.3
	c27.6,0,50-22.4,50-50l0,0l0,0V150C1288.8,122.4,1266.4,100,1238.8,100z"/>
<g class="st6">
	<path class="st3" d="M973.4,186.1v3.3h-16.3v-28.7h3.9v25.4H973.4z"/>
</g>
<g class="st6">
	<path class="st3" d="M1002.8,175c0,2.1-0.3,4.1-1,5.9c-0.7,1.8-1.6,3.3-2.9,4.6c-1.2,1.3-2.7,2.3-4.5,3c-1.7,0.7-3.7,1.1-5.8,1.1
		c-2.1,0-4-0.4-5.8-1.1c-1.7-0.7-3.2-1.7-4.5-3c-1.2-1.3-2.2-2.8-2.9-4.6c-0.7-1.8-1-3.8-1-5.9c0-2.1,0.3-4.1,1-5.9
		c0.7-1.8,1.6-3.3,2.9-4.6c1.2-1.3,2.7-2.3,4.5-3c1.7-0.7,3.7-1.1,5.8-1.1c2.1,0,4,0.4,5.8,1.1c1.7,0.7,3.2,1.7,4.5,3
		c1.2,1.3,2.2,2.8,2.9,4.6C1002.5,170.9,1002.8,172.8,1002.8,175z M998.8,175c0-1.8-0.2-3.3-0.7-4.7c-0.5-1.4-1.2-2.6-2-3.6
		c-0.9-1-1.9-1.7-3.2-2.2c-1.3-0.5-2.7-0.8-4.2-0.8c-1.5,0-2.9,0.3-4.2,0.8c-1.3,0.5-2.3,1.3-3.2,2.2c-0.9,1-1.6,2.2-2,3.6
		c-0.5,1.4-0.7,3-0.7,4.7c0,1.8,0.2,3.3,0.7,4.7c0.5,1.4,1.2,2.6,2,3.5s2,1.7,3.2,2.2c1.3,0.5,2.6,0.8,4.2,0.8
		c1.5,0,2.9-0.3,4.2-0.8c1.3-0.5,2.3-1.3,3.2-2.2s1.6-2.1,2-3.5C998.6,178.3,998.8,176.8,998.8,175z"/>
	<path class="st3" d="M1012.2,173.2h1.5c0.5,0,0.9-0.1,1.2-0.2c0.3-0.1,0.6-0.3,0.8-0.7l9.5-10.8c0.3-0.3,0.5-0.6,0.8-0.7
		c0.3-0.1,0.7-0.2,1.1-0.2h3.3l-10.9,12.3c-0.3,0.3-0.5,0.6-0.8,0.8c-0.2,0.2-0.5,0.4-0.8,0.5c0.4,0.1,0.7,0.3,1,0.5
		c0.3,0.2,0.6,0.5,0.9,0.9l11.4,13.6h-3.4c-0.3,0-0.5,0-0.7,0c-0.2,0-0.3-0.1-0.5-0.2c-0.1-0.1-0.3-0.2-0.3-0.3
		c-0.1-0.1-0.2-0.2-0.3-0.4l-9.9-11.4c-0.3-0.3-0.6-0.6-0.9-0.7c-0.3-0.1-0.8-0.2-1.4-0.2h-1.8v13.1h-3.9v-28.7h3.9V173.2z"/>
	<path class="st3" d="M1058.1,189.3h-3c-0.3,0-0.6-0.1-0.8-0.3c-0.2-0.2-0.4-0.4-0.5-0.7l-2.7-6.9h-12.9l-2.7,6.9
		c-0.1,0.2-0.2,0.5-0.5,0.6c-0.2,0.2-0.5,0.3-0.8,0.3h-3l11.5-28.7h3.9L1058.1,189.3z M1050,178.7l-4.5-11.7
		c-0.1-0.3-0.3-0.8-0.4-1.2c-0.1-0.5-0.3-1-0.4-1.5c-0.3,1.1-0.6,2-0.9,2.7l-4.5,11.6H1050z"/>
	<path class="st3" d="M1078.2,186.1v3.3h-16.3v-28.7h3.9v25.4H1078.2z"/>
	<path class="st3" d="M1086.3,189.3h-3.9v-28.7h3.9V189.3z"/>
	<path class="st3" d="M1112.8,162.1c0,0.4-0.1,0.9-0.4,1.3l-16.2,22.8h16.4v3.2H1091v-1.5c0-0.2,0-0.4,0.1-0.6s0.2-0.4,0.3-0.5
		l16.3-22.8h-15.9v-3.2h21V162.1z"/>
</g>
<g class="st6">
	<path class="st3" d="M1141,189.3h-3c-0.3,0-0.6-0.1-0.8-0.3c-0.2-0.2-0.4-0.4-0.5-0.7l-2.7-6.9h-12.9l-2.7,6.9
		c-0.1,0.2-0.2,0.5-0.5,0.6c-0.2,0.2-0.5,0.3-0.8,0.3h-3l11.5-28.7h3.9L1141,189.3z M1133,178.7l-4.5-11.7c-0.1-0.3-0.3-0.8-0.4-1.2
		c-0.1-0.5-0.3-1-0.4-1.5c-0.3,1.1-0.6,2-0.9,2.7l-4.5,11.6H1133z"/>
</g>
<g class="st6">
	<path class="st3" d="M1164.2,183.4c0.2,0,0.4,0.1,0.6,0.3l1.5,1.7c-1.2,1.4-2.6,2.4-4.3,3.2c-1.7,0.8-3.7,1.1-6.1,1.1
		c-2.1,0-3.9-0.4-5.6-1.1c-1.7-0.7-3.1-1.7-4.3-3c-1.2-1.3-2.1-2.8-2.8-4.6s-1-3.8-1-5.9s0.3-4.1,1-5.9s1.6-3.3,2.9-4.6
		c1.2-1.3,2.7-2.3,4.4-3c1.7-0.7,3.6-1.1,5.7-1.1c2,0,3.8,0.3,5.4,1c1.6,0.7,2.9,1.5,4.1,2.7l-1.3,1.8c-0.1,0.1-0.2,0.2-0.3,0.3
		c-0.1,0.1-0.3,0.1-0.5,0.1c-0.2,0-0.5-0.1-0.9-0.4s-0.8-0.5-1.4-0.9c-0.6-0.3-1.3-0.6-2.1-0.9c-0.8-0.3-1.9-0.4-3.1-0.4
		c-1.5,0-2.8,0.3-4.1,0.8c-1.2,0.5-2.3,1.3-3.2,2.2c-0.9,1-1.6,2.2-2.1,3.6c-0.5,1.4-0.7,3-0.7,4.7c0,1.8,0.3,3.4,0.8,4.8
		c0.5,1.4,1.2,2.6,2.1,3.5s1.9,1.7,3.1,2.2c1.2,0.5,2.5,0.8,3.9,0.8c0.9,0,1.6-0.1,2.3-0.2s1.3-0.3,1.9-0.5c0.6-0.2,1.1-0.5,1.6-0.8
		c0.5-0.3,1-0.7,1.5-1.2C1163.7,183.5,1164,183.4,1164.2,183.4z"/>
</g>
<g class="st6">
	<path class="st3" d="M1180.7,179.4c0,1.6-0.2,3-0.6,4.3s-1,2.3-1.7,3.2s-1.7,1.5-2.8,2s-2.4,0.7-3.9,0.7c-1.3,0-2.7-0.2-4-0.6
		c0-0.4,0.1-0.8,0.1-1.1s0.1-0.8,0.1-1.1c0-0.2,0.1-0.4,0.3-0.6c0.1-0.1,0.4-0.2,0.6-0.2c0.2,0,0.6,0.1,1,0.2
		c0.4,0.1,0.9,0.2,1.6,0.2c0.9,0,1.7-0.1,2.4-0.4c0.7-0.3,1.3-0.7,1.7-1.2c0.5-0.6,0.8-1.3,1.1-2.2s0.4-1.9,0.4-3.1v-18.8h3.9V179.4
		z"/>
</g>
<g class="st6">
	<path class="st3" d="M1210.6,189.3h-3c-0.3,0-0.6-0.1-0.8-0.3c-0.2-0.2-0.4-0.4-0.5-0.7l-2.7-6.9h-12.9l-2.7,6.9
		c-0.1,0.2-0.2,0.5-0.5,0.6c-0.2,0.2-0.5,0.3-0.8,0.3h-3l11.5-28.7h3.9L1210.6,189.3z M1202.5,178.7L1198,167
		c-0.1-0.3-0.3-0.8-0.4-1.2c-0.1-0.5-0.3-1-0.4-1.5c-0.3,1.1-0.6,2-0.9,2.7l-4.5,11.6H1202.5z"/>
</g>
<text transform="matrix(1 0 0 1 1018.24 285.31)" class="st4 st7 st8">ląd</text>
<text transform="matrix(1 0 0 1 1069.96 285.31)" class="st4 st7 st8">o</text>
<text transform="matrix(1 0 0 1 1092.34 285.31)" class="st4 st7 st8 st9">w</text>
<text transform="matrix(1 0 0 1 1123.48 285.31)" class="st4 st7 st8">e</text>
<text transform="matrix(1 0 0 1 1002.31 333.31)" class="st4 st7 st8">i mo</text>
<text transform="matrix(1 0 0 1 1077.73 333.31)" class="st4 st7 st8">r</text>
<text transform="matrix(1 0 0 1 1092.17 333.31)" class="st4 st7 st8">skie</text>
<rect x="448.8" y="52.5" class="st1" width="391.3" height="299.3"/>
<path class="st2" d="M837.5,55v294.3H451.3V55H837.5 M842.5,50H446.3v304.3h396.3L842.5,50L842.5,50z"/>
<path class="st3" d="M634.5,110.7v28.7h-3.4v-22c0-0.3,0-0.7,0.1-1l-9.8,17.9c-0.2,0.6-0.8,0.9-1.4,0.9h-0.6c-0.6,0-1.2-0.3-1.4-0.9
	l-10-18c0.1,0.7,0.1,1.3,0.1,2v21.1h-3.4v-28.6h2.9c0.3,0,0.5,0,0.8,0.1c0.2,0.1,0.4,0.3,0.5,0.6l9.9,17.6c0.2,0.3,0.3,0.6,0.5,1
	s0.3,0.7,0.4,1.1l0.4-1.1c0.1-0.3,0.3-0.7,0.5-1l9.7-17.6c0.1-0.3,0.3-0.5,0.5-0.6c0.3-0.1,0.5-0.1,0.8-0.1L634.5,110.7z"/>
<path class="st3" d="M668.3,125c0,2-0.3,4-1,5.9c-0.6,1.7-1.6,3.3-2.9,4.6c-1.3,1.3-2.8,2.3-4.5,3c-3.7,1.4-7.8,1.4-11.5,0
	c-1.7-0.7-3.2-1.7-4.5-3s-2.2-2.9-2.9-4.6c-1.4-3.8-1.4-8,0-11.8c0.6-1.7,1.6-3.3,2.9-4.6c1.3-1.3,2.8-2.3,4.5-3
	c3.7-1.4,7.8-1.4,11.5,0c1.7,0.7,3.2,1.7,4.5,3s2.2,2.9,2.9,4.6C668,121,668.3,123,668.3,125z M664.3,125c0-1.6-0.2-3.2-0.7-4.7
	c-0.4-1.3-1.1-2.5-2-3.6c-0.9-1-2-1.7-3.2-2.2c-2.7-1-5.7-1-8.4,0c-1.2,0.5-2.3,1.3-3.2,2.2c-0.9,1-1.6,2.2-2,3.6
	c-1,3.1-1,6.4,0,9.5c0.4,1.3,1.1,2.5,2,3.5s2,1.7,3.2,2.2c2.7,1,5.7,1,8.4,0c1.2-0.5,2.3-1.3,3.2-2.2c0.9-1,1.6-2.2,2-3.5
	C664.1,128.2,664.4,126.6,664.3,125L664.3,125z"/>
<path class="st3" d="M693.9,133.4c0.2,0,0.4,0.1,0.6,0.3l1.5,1.7c-1.2,1.4-2.6,2.4-4.3,3.2c-1.9,0.8-4,1.2-6.1,1.1
	c-1.9,0-3.8-0.3-5.6-1.1c-1.6-0.7-3.1-1.7-4.3-3s-2.2-2.9-2.8-4.6c-0.7-1.9-1-3.9-1-5.9s0.3-4,1-5.9c0.6-1.7,1.6-3.3,2.9-4.6
	c1.3-1.3,2.8-2.3,4.4-3c1.8-0.7,3.7-1.1,5.7-1.1c1.8,0,3.7,0.3,5.4,1c1.6,0.6,3,1.5,4.2,2.7l-1.3,1.8c-0.1,0.1-0.2,0.2-0.3,0.3
	c-0.2,0.1-0.3,0.1-0.5,0.1c-0.3,0-0.6-0.2-0.9-0.4c-0.4-0.3-0.9-0.6-1.4-0.9c-2.9-1.5-6.2-1.7-9.3-0.5c-1.2,0.5-2.3,1.3-3.2,2.2
	c-0.9,1-1.6,2.2-2.1,3.6c-0.5,1.5-0.8,3.1-0.7,4.7c0,1.6,0.2,3.2,0.8,4.8c0.5,1.3,1.2,2.5,2.1,3.6c0.9,1,1.9,1.7,3.1,2.2
	c1.2,0.5,2.6,0.8,3.9,0.8c0.8,0,1.5,0,2.3-0.1c0.6-0.1,1.3-0.2,1.9-0.5c0.6-0.2,1.1-0.5,1.6-0.8s1-0.7,1.5-1.2
	C693.5,133.5,693.7,133.4,693.9,133.4z"/>
<path class="st4" d="M549.4,235.3V215h2.1c0.5,0,0.9,0.3,0.9,0.7l0.3,2.1c0.7-0.9,1.6-1.6,2.5-2.3c1-0.6,2.1-0.9,3.2-0.9
	c1.2-0.1,2.4,0.4,3.3,1.1c0.9,0.8,1.5,1.9,1.8,3.1c0.8-2,2.4-3.5,4.5-4c0.7-0.2,1.3-0.2,2-0.2c1,0,1.9,0.2,2.8,0.5
	c0.8,0.3,1.5,0.8,2.1,1.5s1.1,1.5,1.3,2.4c0.3,1.1,0.5,2.2,0.5,3.3v12.9h-3.6v-12.9c0.1-1.3-0.2-2.6-1-3.6c-0.8-0.8-1.9-1.3-3-1.2
	c-0.6,0-1.1,0.1-1.7,0.3c-0.5,0.2-1,0.5-1.4,0.9s-0.8,0.9-1,1.5c-0.2,0.7-0.4,1.4-0.3,2.1v12.9h-3.6v-12.9c0.1-1.3-0.3-2.6-1-3.6
	c-0.7-0.8-1.8-1.3-2.9-1.2c-0.9,0-1.7,0.2-2.4,0.7c-0.8,0.5-1.5,1.2-2.1,1.9v15.1L549.4,235.3z"/>
<path class="st4" d="M586.8,208.7c0,0.3-0.1,0.7-0.2,1c-0.1,0.3-0.3,0.6-0.6,0.8c-0.5,0.5-1.1,0.8-1.8,0.8c-0.3,0-0.7-0.1-1-0.2
	c-0.3-0.1-0.6-0.3-0.8-0.6c-0.2-0.2-0.4-0.5-0.5-0.8s-0.2-0.7-0.2-1s0.1-0.7,0.2-1c0.1-0.3,0.3-0.6,0.5-0.8s0.5-0.4,0.8-0.6
	c0.3-0.1,0.7-0.2,1-0.2s0.7,0.1,1,0.2c0.3,0.1,0.6,0.3,0.8,0.6C586.5,207.4,586.8,208,586.8,208.7z M586.1,215.1v20.3h-3.6v-20.3
	H586.1z"/>
<path class="st4" d="M595.5,205.9v17.3h0.9c0.5,0,1-0.2,1.2-0.6l6.4-6.9c0.2-0.2,0.4-0.4,0.6-0.5c0.3-0.1,0.5-0.2,0.8-0.2h3.2
	l-7.5,7.9c-0.3,0.4-0.7,0.8-1.2,1.1c0.2,0.2,0.5,0.3,0.7,0.6c0.2,0.2,0.4,0.5,0.5,0.7l7.9,10h-3c-0.3,0-0.5,0-0.8-0.1
	c-0.2-0.1-0.4-0.3-0.6-0.6l-6.7-8.3c-0.1-0.2-0.3-0.4-0.6-0.6c-0.3-0.1-0.6-0.1-0.9-0.1h-1v9.7h-3.6v-29.5h3.7V205.9z"/>
<path class="st4" d="M615.6,219.1c0.5-1.2,1.3-2.4,2.4-3.3c1-0.8,2.2-1.2,3.4-1.2c0.4,0,0.8,0,1.2,0.1s0.7,0.2,1,0.4l-0.3,2.7
	c0,0.3-0.3,0.5-0.6,0.5s-0.6-0.1-0.8-0.1c-0.4-0.1-0.8-0.1-1.2-0.1c-0.6,0-1.2,0.1-1.7,0.3s-1,0.5-1.3,0.8c-0.4,0.4-0.8,0.9-1.1,1.4
	c-0.3,0.6-0.6,1.2-0.8,1.9v12.8h-3.6V215h2c0.3,0,0.6,0,0.8,0.2s0.3,0.5,0.3,0.8L615.6,219.1z"/>
<path class="st4" d="M634.5,214.7c1.4,0,2.7,0.2,4,0.7c1.1,0.5,2.2,1.2,3,2.1c0.9,0.9,1.5,2.1,1.9,3.3c0.9,2.8,0.9,5.8,0,8.6
	c-0.4,1.2-1.1,2.3-1.9,3.3c-0.8,0.9-1.9,1.6-3,2.1c-1.3,0.5-2.6,0.7-4,0.7s-2.7-0.2-4-0.7c-1.1-0.5-2.2-1.2-3-2.1
	c-0.9-1-1.5-2.1-1.9-3.3c-0.9-2.8-0.9-5.8,0-8.6c0.4-1.2,1.1-2.3,1.9-3.3c0.8-0.9,1.9-1.6,3-2.1C631.8,215,633.1,214.7,634.5,214.7z
	 M634.5,232.8c1.7,0.1,3.4-0.6,4.5-2c2-3.5,2-7.8,0-11.3c-1.1-1.4-2.7-2.1-4.5-2c-0.9,0-1.8,0.2-2.7,0.5c-0.7,0.3-1.4,0.8-1.9,1.5
	s-0.9,1.5-1.1,2.4c-0.3,1.1-0.4,2.1-0.4,3.2c-0.1,2,0.4,3.9,1.5,5.6C631,232.2,632.7,232.9,634.5,232.8z"/>
<path class="st4" d="M648.4,240.1c-0.1-0.1-0.2-0.2-0.2-0.3s-0.1-0.2-0.1-0.3s0-0.2,0.1-0.3s0.1-0.2,0.2-0.3
	c0.1-0.1,0.3-0.3,0.5-0.6s0.4-0.6,0.6-0.9c0.2-0.3,0.4-0.7,0.6-1.1c0.2-0.4,0.3-0.8,0.4-1.3h-0.3c-0.6,0-1.3-0.2-1.7-0.7
	s-0.7-1.1-0.7-1.8c0-0.6,0.2-1.2,0.7-1.6c0.5-0.4,1.1-0.7,1.7-0.7c0.4,0,0.7,0.1,1.1,0.2c0.3,0.1,0.6,0.3,0.8,0.6s0.4,0.6,0.5,0.9
	c0.1,0.4,0.2,0.7,0.2,1.1c0,0.6-0.1,1.3-0.3,1.9c-0.2,0.7-0.4,1.3-0.7,1.9c-0.3,0.7-0.7,1.3-1.2,1.9c-0.5,0.6-1,1.2-1.6,1.7
	L648.4,240.1z"/>
<path class="st4" d="M667.9,235.3V215h2.1c0.5,0,0.9,0.3,0.9,0.7l0.3,2.1c0.7-0.9,1.6-1.6,2.5-2.3c1-0.6,2.1-0.9,3.2-0.9
	c1.2-0.1,2.4,0.4,3.3,1.1c0.9,0.8,1.5,1.9,1.8,3.1c0.8-2,2.4-3.5,4.5-4c0.7-0.2,1.3-0.2,2-0.2c1,0,1.9,0.2,2.8,0.5
	c0.8,0.3,1.5,0.8,2.1,1.5s1.1,1.5,1.3,2.4c0.3,1.1,0.5,2.2,0.5,3.3v12.9h-3.6v-12.9c0.1-1.3-0.2-2.6-1-3.6c-0.8-0.8-1.9-1.3-3-1.2
	c-0.6,0-1.1,0.1-1.7,0.3c-0.5,0.2-1,0.5-1.4,0.9s-0.8,0.9-1,1.5c-0.2,0.7-0.4,1.4-0.3,2.1v12.9h-3.6v-12.9c0.1-1.3-0.3-2.6-1-3.6
	c-0.7-0.8-1.8-1.3-2.9-1.2c-0.9,0-1.7,0.2-2.4,0.7c-0.8,0.5-1.5,1.2-2.1,1.9v15.1L667.9,235.3z"/>
<path class="st4" d="M700.3,217.9c1-1,2.3-1.9,3.6-2.4c1.4-0.5,2.8-0.8,4.3-0.8c1,0,2,0.2,3,0.6c0.8,0.3,1.6,0.9,2.2,1.6
	c0.6,0.7,1.1,1.5,1.4,2.4c0.3,1,0.5,2.1,0.5,3.1v13h-1.6c-0.3,0-0.6,0-0.8-0.2s-0.4-0.4-0.4-0.7l-0.4-1.9c-0.5,0.5-1,0.9-1.6,1.3
	c-0.5,0.4-1,0.7-1.6,1s-1.2,0.5-1.8,0.6c-0.7,0.1-1.4,0.2-2.1,0.2c-0.8,0-1.5-0.1-2.2-0.3s-1.3-0.6-1.8-1c-0.5-0.5-0.9-1-1.2-1.7
	c-0.3-0.8-0.5-1.6-0.5-2.4c0-0.8,0.2-1.6,0.7-2.3c0.5-0.8,1.3-1.5,2.1-2c1.2-0.7,2.5-1.1,3.9-1.4c1.9-0.4,3.9-0.6,5.8-0.6v-1.6
	c0.1-1.3-0.3-2.5-1-3.6c-0.8-0.8-1.9-1.3-3-1.2c-0.8,0-1.5,0.1-2.2,0.3c-0.5,0.2-1.1,0.4-1.5,0.7s-0.8,0.5-1.1,0.7s-0.6,0.3-0.9,0.3
	c-0.2,0-0.4-0.1-0.6-0.2c-0.2-0.1-0.3-0.3-0.4-0.5L700.3,217.9z M711.8,226.2c-1.4,0-2.8,0.2-4.2,0.4c-1,0.1-1.9,0.4-2.8,0.8
	c-0.6,0.3-1.2,0.7-1.6,1.2c-0.3,0.4-0.5,1-0.5,1.5s0.1,0.9,0.3,1.4c0.2,0.4,0.4,0.7,0.7,0.9c0.3,0.3,0.7,0.4,1.1,0.5
	c0.4,0.1,0.9,0.2,1.3,0.2c0.6,0,1.2-0.1,1.7-0.2c0.5-0.1,1-0.3,1.5-0.6c0.5-0.2,0.9-0.5,1.3-0.9c0.4-0.3,0.8-0.7,1.2-1.1V226.2z"/>
<path class="st4" d="M729.7,215.1v2c0,0.4-0.2,0.7-0.5,0.9l-3.2,1.4v15.8h-3.6v-14.5l-3.6,1.6v-2.1c0-0.3,0.2-0.7,0.5-0.8l3.1-1.4
	v-12.2h3.6v10.9L729.7,215.1z"/>
<path class="st4" d="M749.5,232.5c-0.5,0.5-1,1-1.6,1.4s-1.3,0.7-2,1c-1.4,0.5-2.9,0.8-4.4,0.8c-1.3,0-2.6-0.2-3.9-0.7
	c-1.2-0.5-2.2-1.2-3.1-2.1c-0.9-1-1.6-2.1-2-3.4c-0.5-1.5-0.7-3.1-0.7-4.6c0-1.4,0.2-2.7,0.7-4c0.4-1.2,1-2.3,1.9-3.2
	c0.8-0.9,1.9-1.6,3-2.1c1.3-0.5,2.6-0.8,4-0.8c1.2,0,2.3,0.2,3.4,0.6c1,0.4,1.9,1,2.7,1.8s1.4,1.8,1.8,2.8c0.4,1.2,0.7,2.5,0.6,3.9
	c0,0.4,0,0.8-0.2,1.1c-0.2,0.2-0.4,0.3-0.7,0.3h-13.6c0,1.1,0.2,2.3,0.5,3.3c0.3,0.9,0.7,1.7,1.3,2.4c0.5,0.6,1.2,1.1,2,1.4
	c0.8,0.3,1.7,0.5,2.6,0.5c0.8,0,1.6-0.1,2.3-0.3c1-0.3,2-0.8,2.8-1.3c0.2-0.2,0.5-0.3,0.8-0.3s0.5,0.1,0.7,0.3L749.5,232.5z
	 M746.6,223c0-0.8-0.1-1.5-0.3-2.3c-0.2-0.7-0.5-1.3-1-1.8c-0.4-0.5-1-0.9-1.6-1.2c-0.7-0.3-1.4-0.4-2.2-0.4c-1.5-0.1-2.9,0.5-4,1.5
	c-1.1,1.1-1.7,2.6-1.8,4.1L746.6,223L746.6,223z"/>
<path class="st4" d="M604.6,256.7c0,0.3-0.1,0.7-0.2,1c-0.1,0.3-0.3,0.6-0.6,0.8c-0.5,0.5-1.1,0.8-1.8,0.8c-0.3,0-0.7-0.1-1-0.2
	s-0.6-0.3-0.8-0.5s-0.4-0.5-0.5-0.8s-0.2-0.7-0.2-1s0.1-0.7,0.2-1c0.1-0.3,0.3-0.6,0.5-0.8s0.5-0.4,0.8-0.6c0.3-0.1,0.7-0.2,1-0.2
	s0.7,0.1,1,0.2c0.3,0.1,0.6,0.3,0.8,0.6C604.4,255.4,604.6,256,604.6,256.7z M603.9,263v20.3h-3.6V263H603.9z"/>
<path class="st4" d="M636.7,253.9v29.5h-2.1c-0.5,0.1-0.9-0.3-1-0.7l-0.3-2.5c-0.8,1-1.9,1.9-3,2.5c-1.2,0.7-2.5,1-3.8,1
	c-1.1,0-2.2-0.2-3.2-0.7s-1.8-1.2-2.4-2c-0.7-1-1.2-2.1-1.5-3.2c-0.4-1.5-0.6-3-0.5-4.5c0-1.4,0.2-2.8,0.6-4.2
	c0.4-1.2,0.9-2.3,1.7-3.4c0.8-1,1.7-1.7,2.8-2.2c1.1-0.6,2.4-0.8,3.7-0.8c1.1,0,2.2,0.2,3.2,0.6c0.9,0.4,1.7,1,2.4,1.8v-11.2
	L636.7,253.9L636.7,253.9z M633.2,267.9c-0.5-0.8-1.3-1.4-2.2-1.9c-0.8-0.4-1.7-0.5-2.6-0.5c-1.7-0.1-3.3,0.7-4.3,2
	c-1.1,1.7-1.7,3.7-1.5,5.8c0,1.1,0.1,2.3,0.3,3.4c0.2,0.8,0.5,1.6,1,2.3c0.4,0.6,1,1,1.6,1.3c0.7,0.3,1.4,0.4,2.2,0.4
	c1.1,0,2.1-0.3,3.1-0.8c0.9-0.6,1.8-1.4,2.4-2.3V267.9z"/>
<path class="st4" d="M659,263v20.3h-2.1c-0.5,0.1-0.9-0.3-1-0.7l-0.3-2.2c-0.9,0.9-1.9,1.7-3,2.4c-1.2,0.6-2.5,0.9-3.8,0.9
	c-1,0-2-0.2-2.9-0.5c-0.8-0.3-1.5-0.9-2.1-1.5c-0.6-0.7-1-1.5-1.3-2.4c-0.3-1-0.4-2.1-0.4-3.1V263h3.6v13c-0.1,1.3,0.3,2.5,1,3.6
	c0.8,0.9,2,1.4,3.2,1.3c1,0,2.1-0.2,3-0.8c1-0.5,1.8-1.2,2.5-2.1v-15H659z"/>
<path class="st4" d="M678.6,264.6c0,0.3,0,0.5-0.1,0.7s-0.2,0.4-0.3,0.6l-11,14.6h11.1v2.8H663v-1.5c0-0.2,0.1-0.4,0.1-0.6
	c0.1-0.2,0.2-0.5,0.4-0.7l11-14.7h-10.9V263h15V264.6z M673.9,256.6c0,0.3-0.1,0.7-0.2,1c-0.1,0.3-0.3,0.6-0.6,0.8
	c-0.2,0.2-0.5,0.4-0.8,0.5c-0.6,0.3-1.4,0.3-2,0c-0.3-0.1-0.6-0.3-0.8-0.5s-0.4-0.5-0.5-0.8s-0.2-0.7-0.2-1s0.1-0.7,0.2-1
	c0.1-0.3,0.3-0.6,0.5-0.8s0.5-0.4,0.8-0.6c0.6-0.3,1.4-0.3,2,0c0.3,0.1,0.6,0.3,0.8,0.6c0.2,0.2,0.4,0.5,0.6,0.8
	C673.8,255.9,673.9,256.2,673.9,256.6z"/>
<path class="st4" d="M698.8,280.5c-0.5,0.5-1,1-1.6,1.4s-1.3,0.7-2,1c-0.7,0.2-1.4,0.4-2.2,0.6c-0.7,0.1-1.5,0.2-2.2,0.2
	c-1.3,0-2.6-0.2-3.9-0.7c-1.1-0.5-2.2-1.2-3-2.1c-0.9-1-1.6-2.1-2-3.4c-0.5-1.5-0.7-3.1-0.7-4.6c0-1.4,0.2-2.7,0.7-4
	c0.4-1.2,1-2.3,1.9-3.2c0.8-0.9,1.9-1.6,3-2.1c1.3-0.5,2.6-0.8,4-0.8c1.2,0,2.3,0.2,3.4,0.6c1,0.4,1.9,1,2.7,1.8s1.4,1.8,1.8,2.8
	c0.4,1.2,0.7,2.5,0.6,3.9c0,0.4,0,0.8-0.2,1.1c-0.2,0.2-0.4,0.3-0.7,0.3h-13.6c0,1.1,0.2,2.3,0.5,3.3c0.3,0.9,0.7,1.7,1.3,2.4
	c0.5,0.6,1.2,1.1,2,1.4s1.7,0.5,2.6,0.5c0.8,0,1.6-0.1,2.3-0.3c1-0.3,2-0.8,2.8-1.3c0.2-0.2,0.5-0.3,0.8-0.3s0.5,0.1,0.7,0.3
	L698.8,280.5z M695.9,271c0-0.8-0.1-1.5-0.3-2.3c-0.2-0.7-0.5-1.3-1-1.8c-0.4-0.5-1-0.9-1.6-1.2c-0.7-0.3-1.4-0.4-2.2-0.4
	c-1.5-0.1-2.9,0.5-4,1.5c-1.1,1.1-1.8,2.6-1.9,4.1L695.9,271L695.9,271z"/>
</svg>
